Gidugu.ufo
<glyph name="dollar" format="1">
  <advance width="376"/>
  <unicode hex="0024"/>
  <outline>
    <contour>
      <point x="208" y="199" type="line" name="hr00"/>
      <point x="245" y="188"/>
      <point x="264" y="168"/>
      <point x="264" y="137" type="curve" smooth="yes"/>
      <point x="264" y="100"/>
      <point x="245" y="78"/>
      <point x="208" y="71" type="curve"/>
    </contour>
    <contour>
      <point x="161" y="308" type="line"/>
      <point x="132" y="320"/>
      <point x="118" y="339"/>
      <point x="118" y="365" type="curve" smooth="yes"/>
      <point x="118" y="393"/>
      <point x="132" y="412"/>
      <point x="161" y="422" type="curve"/>
    </contour>
    <contour>
      <point x="161" y="75" type="line"/>
      <point x="133" y="88"/>
      <point x="115" y="113"/>
      <point x="107" y="148" type="curve"/>
      <point x="22" y="139" type="line"/>
      <point x="35" y="53"/>
      <point x="81" y="5"/>
      <point x="161" y="-4" type="curve"/>
      <point x="161" y="-64" type="line"/>
      <point x="208" y="-64" type="line"/>
      <point x="208" y="-3" type="line"/>
      <point x="292" y="9"/>
      <point x="344" y="65"/>
      <point x="344" y="148" type="curve" smooth="yes"/>
      <point x="344" y="221"/>
      <point x="299" y="269"/>
      <point x="208" y="292" type="curve"/>
      <point x="208" y="420" type="line"/>
      <point x="229" y="411"/>
      <point x="242" y="394"/>
      <point x="247" y="368" type="curve"/>
      <point x="331" y="379" type="line"/>
      <point x="319" y="447"/>
      <point x="278" y="485"/>
      <point x="208" y="494" type="curve"/>
      <point x="208" y="526" type="line"/>
      <point x="161" y="526" type="line"/>
      <point x="161" y="494" type="line"/>
      <point x="85" y="487"/>
      <point x="35" y="434"/>
      <point x="35" y="361" type="curve" smooth="yes"/>
      <point x="35" y="286"/>
      <point x="77" y="237"/>
      <point x="161" y="213" type="curve"/>
    </contour>
  </outline>
</glyph>
<glyph name="percent" format="1">
  <advance width="599"/>
  <unicode hex="0025"/>
  <outline>
    <contour>
      <point x="426" y="112" type="curve" smooth="yes" name="hr00"/>
      <point x="426" y="162"/>
      <point x="437" y="187"/>
      <point x="460" y="187" type="curve" smooth="yes"/>
      <point x="482" y="187"/>
      <point x="493" y="162"/>
      <point x="493" y="112" type="curve" smooth="yes"/>
      <point x="493" y="62"/>
      <point x="482" y="37"/>
      <point x="460" y="37" type="curve" smooth="yes"/>
      <point x="437" y="37"/>
      <point x="426" y="62"/>
    </contour>
    <contour>
      <point x="353" y="112" type="curve" smooth="yes"/>
      <point x="353" y="27"/>
      <point x="389" y="-16"/>
      <point x="462" y="-16" type="curve" smooth="yes"/>
      <point x="532" y="-16"/>
      <point x="567" y="27"/>
      <point x="567" y="112" type="curve" smooth="yes"/>
      <point x="567" y="197"/>
      <point x="532" y="239"/>
      <point x="461" y="239" type="curve" smooth="yes"/>
      <point x="389" y="239"/>
      <point x="353" y="197"/>
    </contour>
    <contour>
      <point x="460" y="495" type="line"/>
      <point x="392" y="495" type="line"/>
      <point x="136" y="-15" type="line"/>
      <point x="203" y="-15" type="line"/>
    </contour>
    <contour>
      <point x="100" y="368" type="curve" smooth="yes"/>
      <point x="100" y="419"/>
      <point x="111" y="444"/>
      <point x="133" y="444" type="curve" smooth="yes"/>
      <point x="156" y="444"/>
      <point x="167" y="419"/>
      <point x="167" y="368" type="curve" smooth="yes"/>
      <point x="167" y="318"/>
      <point x="156" y="293"/>
      <point x="133" y="293" type="curve" smooth="yes"/>
      <point x="111" y="293"/>
      <point x="100" y="318"/>
    </contour>
    <contour>
      <point x="27" y="368" type="curve" smooth="yes"/>
      <point x="27" y="283"/>
      <point x="63" y="240"/>
      <point x="134" y="240" type="curve" smooth="yes"/>
      <point x="205" y="240"/>
      <point x="241" y="283"/>
      <point x="241" y="368" type="curve" smooth="yes"/>
      <point x="241" y="453"/>
      <point x="205" y="495"/>
      <point x="133" y="495" type="curve" smooth="yes"/>
      <point x="62" y="495"/>
      <point x="27" y="453"/>
    </contour>
  </outline>
</glyph>
<glyph name="quotesingle" format="1">
  <advance width="160"/>
  <unicode hex="0027"/>
  <outline>
    <contour>
      <point x="115" y="555" type="line" name="hr00"/>
      <point x="131" y="646" type="line"/>
      <point x="131" y="728" type="line"/>
      <point x="30" y="728" type="line"/>
      <point x="30" y="646" type="line"/>
      <point x="48" y="555" type="line"/>
    </contour>
  </outline>
</glyph>
<glyph name="parenleft" format="1">
  <advance width="328"/>
  <unicode hex="0028"/>
  <outline>
    <contour>
      <point x="270" y="-80" type="line" name="hr00"/>
      <point x="233" y="-80"/>
      <point x="205" y="-54"/>
      <point x="184" y="-2" type="curve" smooth="yes"/>
      <point x="163" y="50"/>
      <point x="153" y="123"/>
      <point x="153" y="216" type="curve" smooth="yes"/>
      <point x="153" y="325"/>
      <point x="162" y="404"/>
      <point x="181" y="455" type="curve" smooth="yes"/>
      <point x="199" y="506"/>
      <point x="228" y="532"/>
      <point x="268" y="532" type="curve"/>
      <point x="268" y="580" type="line"/>
      <point x="261" y="581"/>
      <point x="253" y="582"/>
      <point x="244" y="582" type="curve" smooth="yes"/>
      <point x="185" y="582"/>
      <point x="140" y="550"/>
      <point x="107" y="487" type="curve" smooth="yes"/>
      <point x="74" y="424"/>
      <point x="58" y="334"/>
      <point x="58" y="219" type="curve" smooth="yes"/>
      <point x="58" y="113"/>
      <point x="75" y="28"/>
      <point x="108" y="-36" type="curve" smooth="yes"/>
      <point x="142" y="-101"/>
      <point x="187" y="-133"/>
      <point x="243" y="-133" type="curve" smooth="yes"/>
      <point x="254" y="-133"/>
      <point x="263" y="-132"/>
      <point x="270" y="-129" type="curve"/>
    </contour>
  </outline>
</glyph>
<glyph name="parenright" format="1">
  <advance width="328"/>
  <unicode hex="0029"/>
  <outline>
    <contour>
      <point x="58" y="-129" type="line" name="hr00"/>
      <point x="65" y="-132"/>
      <point x="74" y="-133"/>
      <point x="86" y="-133" type="curve" smooth="yes"/>
      <point x="141" y="-133"/>
      <point x="186" y="-101"/>
      <point x="220" y="-36" type="curve" smooth="yes"/>
      <point x="253" y="28"/>
      <point x="270" y="113"/>
      <point x="270" y="219" type="curve" smooth="yes"/>
      <point x="270" y="334"/>
      <point x="254" y="424"/>
      <point x="221" y="487" type="curve" smooth="yes"/>
      <point x="189" y="550"/>
      <point x="143" y="582"/>
      <point x="84" y="582" type="curve" smooth="yes"/>
      <point x="75" y="582"/>
      <point x="67" y="581"/>
      <point x="60" y="580" type="curve"/>
      <point x="60" y="532" type="line"/>
      <point x="100" y="532"/>
      <point x="129" y="506"/>
      <point x="148" y="455" type="curve" smooth="yes"/>
      <point x="166" y="404"/>
      <point x="175" y="325"/>
      <point x="175" y="216" type="curve" smooth="yes"/>
      <point x="175" y="123"/>
      <point x="165" y="50"/>
      <point x="144" y="-2" type="curve" smooth="yes"/>
      <point x="123" y="-54"/>
      <point x="95" y="-80"/>
      <point x="58" y="-80" type="curve"/>
    </contour>
  </outline>
</glyph>
<glyph name="plus" format="1">
  <advance width="538"/>
  <unicode hex="002B"/>
  <outline>
    <contour>
      <point x="484" y="205" type="line" name="hr00"/>
      <point x="326" y="205" type="line"/>
      <point x="326" y="345" type="line"/>
      <point x="206" y="345" type="line"/>
      <point x="206" y="205" type="line"/>
      <point x="54" y="205" type="line"/>
      <point x="54" y="135" type="line"/>
      <point x="206" y="135" type="line"/>
      <point x="206" y="-4" type="line"/>
      <point x="326" y="-4" type="line"/>
      <point x="326" y="135" type="line"/>
      <point x="484" y="135" type="line"/>
    </contour>
  </outline>
</glyph>
<glyph name="hyphen" format="1">
  <advance width="361"/>
  <unicode hex="002D"/>
  <outline>
    <contour>
      <point x="308" y="210" type="line" name="hr00"/>
      <point x="54" y="210" type="line"/>
      <point x="54" y="156" type="line"/>
      <point x="308" y="156" type="line"/>
    </contour>
  </outline>
</glyph>
<glyph name="period" format="1">
  <advance width="236"/>
  <unicode hex="002E"/>
  <outline>
    <contour>
      <point x="183" y="52" type="curve" smooth="yes" name="hr00"/>
      <point x="183" y="70"/>
      <point x="176" y="84"/>
      <point x="163" y="95" type="curve" smooth="yes"/>
      <point x="152" y="105"/>
      <point x="138" y="110"/>
      <point x="122" y="110" type="curve" smooth="yes"/>
      <point x="103" y="110"/>
      <point x="88" y="105"/>
      <point x="75" y="96" type="curve" smooth="yes"/>
      <point x="61" y="85"/>
      <point x="54" y="71"/>
      <point x="54" y="52" type="curve" smooth="yes"/>
      <point x="54" y="34"/>
      <point x="61" y="20"/>
      <point x="75" y="9" type="curve" smooth="yes"/>
      <point x="87" y="0"/>
      <point x="101" y="-5"/>
      <point x="118" y="-5" type="curve" smooth="yes"/>
      <point x="135" y="-5"/>
      <point x="149" y="0"/>
      <point x="162" y="9" type="curve" smooth="yes"/>
      <point x="176" y="20"/>
      <point x="183" y="34"/>
    </contour>
  </outline>
</glyph>
<glyph name="slash" format="1">
  <advance width="552"/>
  <unicode hex="002F"/>
  <outline>
    <contour>
      <point x="394" y="517" type="line" name="hr00"/>
      <point x="54" y="-161" type="line"/>
      <point x="150" y="-161" type="line"/>
      <point x="498" y="517" type="line"/>
    </contour>
  </outline>
</glyph>
<glyph name="zero" format="1">
  <advance width="563"/>
  <unicode hex="0030"/>
  <outline>
    <contour>
      <point x="409" y="209" type="curve" smooth="yes" name="hr00"/>
      <point x="409" y="154"/>
      <point x="402" y="115"/>
      <point x="388" y="90" type="curve" smooth="yes"/>
      <point x="369" y="57"/>
      <point x="334" y="40"/>
      <point x="283" y="40" type="curve" smooth="yes"/>
      <point x="237" y="40"/>
      <point x="203" y="57"/>
      <point x="180" y="90" type="curve" smooth="yes"/>
      <point x="161" y="117"/>
      <point x="152" y="152"/>
      <point x="152" y="194" type="curve" smooth="yes"/>
      <point x="152" y="246"/>
      <point x="162" y="286"/>
      <point x="181" y="314" type="curve" smooth="yes"/>
      <point x="203" y="347"/>
      <point x="238" y="364"/>
      <point x="285" y="364" type="curve" smooth="yes"/>
      <point x="330" y="364"/>
      <point x="363" y="348"/>
      <point x="384" y="315" type="curve" smooth="yes"/>
      <point x="401" y="289"/>
      <point x="409" y="254"/>
    </contour>
    <contour>
      <point x="530" y="196" type="curve" smooth="yes"/>
      <point x="530" y="266"/>
      <point x="510" y="320"/>
      <point x="471" y="357" type="curve" smooth="yes"/>
      <point x="428" y="396"/>
      <point x="363" y="416"/>
      <point x="276" y="416" type="curve" smooth="yes"/>
      <point x="201" y="416"/>
      <point x="142" y="397"/>
      <point x="97" y="358" type="curve" smooth="yes"/>
      <point x="54" y="319"/>
      <point x="32" y="269"/>
      <point x="32" y="208" type="curve" smooth="yes"/>
      <point x="32" y="137"/>
      <point x="55" y="83"/>
      <point x="102" y="44" type="curve" smooth="yes"/>
      <point x="147" y="8"/>
      <point x="208" y="-10"/>
      <point x="287" y="-10" type="curve" smooth="yes"/>
      <point x="356" y="-10"/>
      <point x="412" y="7"/>
      <point x="456" y="40" type="curve" smooth="yes"/>
      <point x="505" y="77"/>
      <point x="530" y="129"/>
    </contour>
  </outline>
</glyph>
<glyph name="one" format="1">
  <advance width="562"/>
  <unicode hex="0031"/>
  <outline>
    <contour>
      <point x="468" y="57" type="line" name="hr00"/>
      <point x="375" y="57" type="line" smooth="yes"/>
      <point x="365" y="57"/>
      <point x="357" y="62"/>
      <point x="352" y="71" type="curve" smooth="yes"/>
      <point x="348" y="78"/>
      <point x="346" y="88"/>
      <point x="346" y="99" type="curve" smooth="yes"/>
      <point x="346" y="411" type="line"/>
      <point x="266" y="411" type="line"/>
      <point x="264" y="392"/>
      <point x="251" y="374"/>
      <point x="228" y="358" type="curve" smooth="yes"/>
      <point x="207" y="344"/>
      <point x="185" y="335"/>
      <point x="160" y="330" type="curve"/>
      <point x="160" y="285" type="line"/>
      <point x="202" y="285" type="line" smooth="yes"/>
      <point x="209" y="285"/>
      <point x="213" y="284"/>
      <point x="216" y="281" type="curve" smooth="yes"/>
      <point x="218" y="278"/>
      <point x="219" y="274"/>
      <point x="219" y="267" type="curve" smooth="yes"/>
      <point x="219" y="93" type="line" smooth="yes"/>
      <point x="219" y="80"/>
      <point x="217" y="70"/>
      <point x="214" y="64" type="curve" smooth="yes"/>
      <point x="211" y="58"/>
      <point x="204" y="55"/>
      <point x="193" y="55" type="curve" smooth="yes"/>
      <point x="94" y="55" type="line"/>
      <point x="94" y="-5" type="line"/>
      <point x="468" y="-5" type="line"/>
    </contour>
  </outline>
</glyph>
<glyph name="two" format="1">
  <advance width="562"/>
  <unicode hex="0032"/>
  <outline>
    <contour>
      <point x="528" y="129" type="line" name="hr00"/>
      <point x="405" y="129" type="line"/>
      <point x="405" y="53" type="line"/>
      <point x="173" y="53" type="line"/>
      <point x="170" y="58"/>
      <point x="169" y="66"/>
      <point x="169" y="76" type="curve" smooth="yes"/>
      <point x="169" y="122"/>
      <point x="226" y="153"/>
      <point x="341" y="172" type="curve" smooth="yes"/>
      <point x="395" y="181" type="line" smooth="yes"/>
      <point x="434" y="188"/>
      <point x="463" y="199"/>
      <point x="482" y="214" type="curve" smooth="yes"/>
      <point x="507" y="233"/>
      <point x="519" y="260"/>
      <point x="519" y="293" type="curve" smooth="yes"/>
      <point x="519" y="338"/>
      <point x="492" y="371"/>
      <point x="439" y="392" type="curve" smooth="yes"/>
      <point x="399" y="408"/>
      <point x="351" y="416"/>
      <point x="296" y="416" type="curve" smooth="yes"/>
      <point x="211" y="416"/>
      <point x="150" y="405"/>
      <point x="112" y="383" type="curve" smooth="yes"/>
      <point x="70" y="359"/>
      <point x="49" y="319"/>
      <point x="49" y="264" type="curve"/>
      <point x="173" y="264" type="line"/>
      <point x="171" y="269"/>
      <point x="170" y="273"/>
      <point x="170" y="277" type="curve" smooth="yes"/>
      <point x="170" y="303"/>
      <point x="180" y="324"/>
      <point x="201" y="339" type="curve" smooth="yes"/>
      <point x="221" y="354"/>
      <point x="248" y="362"/>
      <point x="281" y="362" type="curve" smooth="yes"/>
      <point x="308" y="362"/>
      <point x="329" y="359"/>
      <point x="345" y="352" type="curve" smooth="yes"/>
      <point x="369" y="341"/>
      <point x="381" y="323"/>
      <point x="381" y="298" type="curve" smooth="yes"/>
      <point x="381" y="261"/>
      <point x="332" y="236"/>
      <point x="235" y="221" type="curve" smooth="yes"/>
      <point x="222" y="219"/>
      <point x="213" y="217"/>
      <point x="208" y="216" type="curve" smooth="yes"/>
      <point x="146" y="203"/>
      <point x="101" y="182"/>
      <point x="73" y="153" type="curve" smooth="yes"/>
      <point x="47" y="126"/>
      <point x="34" y="88"/>
      <point x="34" y="39" type="curve" smooth="yes"/>
      <point x="34" y="30"/>
      <point x="35" y="15"/>
      <point x="38" y="-5" type="curve"/>
      <point x="528" y="-5" type="line"/>
    </contour>
  </outline>
</glyph>
<glyph name="three" format="1">
  <advance width="563"/>
  <unicode hex="0033"/>
  <outline>
    <contour>
      <point x="530" y="125" type="curve" smooth="yes" name="hr00"/>
      <point x="530" y="146"/>
      <point x="522" y="165"/>
      <point x="505" y="181" type="curve" smooth="yes"/>
      <point x="492" y="194"/>
      <point x="476" y="203"/>
      <point x="457" y="209" type="curve"/>
      <point x="469" y="214"/>
      <point x="480" y="222"/>
      <point x="490" y="235" type="curve" smooth="yes"/>
      <point x="503" y="252"/>
      <point x="509" y="271"/>
      <point x="509" y="292" type="curve" smooth="yes"/>
      <point x="509" y="331"/>
      <point x="486" y="362"/>
      <point x="439" y="385" type="curve" smooth="yes"/>
      <point x="396" y="406"/>
      <point x="345" y="416"/>
      <point x="286" y="416" type="curve" smooth="yes"/>
      <point x="219" y="416"/>
      <point x="164" y="405"/>
      <point x="121" y="383" type="curve" smooth="yes"/>
      <point x="71" y="358"/>
      <point x="45" y="320"/>
      <point x="44" y="269" type="curve"/>
      <point x="171" y="269" type="line"/>
      <point x="168" y="277"/>
      <point x="167" y="285"/>
      <point x="167" y="292" type="curve" smooth="yes"/>
      <point x="167" y="312"/>
      <point x="179" y="329"/>
      <point x="203" y="344" type="curve" smooth="yes"/>
      <point x="225" y="357"/>
      <point x="249" y="363"/>
      <point x="274" y="363" type="curve" smooth="yes"/>
      <point x="305" y="363"/>
      <point x="330" y="357"/>
      <point x="349" y="345" type="curve" smooth="yes"/>
      <point x="368" y="333"/>
      <point x="377" y="317"/>
      <point x="377" y="297" type="curve" smooth="yes"/>
      <point x="377" y="272"/>
      <point x="366" y="256"/>
      <point x="344" y="245" type="curve" smooth="yes"/>
      <point x="327" y="237"/>
      <point x="299" y="232"/>
      <point x="260" y="232" type="curve"/>
      <point x="260" y="184" type="line"/>
      <point x="303" y="184"/>
      <point x="332" y="181"/>
      <point x="349" y="175" type="curve" smooth="yes"/>
      <point x="374" y="166"/>
      <point x="387" y="147"/>
      <point x="387" y="120" type="curve" smooth="yes"/>
      <point x="387" y="99"/>
      <point x="376" y="80"/>
      <point x="354" y="65" type="curve" smooth="yes"/>
      <point x="333" y="51"/>
      <point x="308" y="44"/>
      <point x="280" y="44" type="curve" smooth="yes"/>
      <point x="243" y="44"/>
      <point x="214" y="51"/>
      <point x="193" y="65" type="curve" smooth="yes"/>
      <point x="170" y="80"/>
      <point x="158" y="102"/>
      <point x="158" y="129" type="curve"/>
      <point x="33" y="129" type="line"/>
      <point x="42" y="74"/>
      <point x="74" y="36"/>
      <point x="129" y="13" type="curve" smooth="yes"/>
      <point x="166" y="-2"/>
      <point x="215" y="-10"/>
      <point x="274" y="-10" type="curve" smooth="yes"/>
      <point x="354" y="-10"/>
      <point x="417" y="3"/>
      <point x="463" y="28" type="curve" smooth="yes"/>
      <point x="508" y="52"/>
      <point x="530" y="84"/>
    </contour>
  </outline>
</glyph>
<glyph name="four" format="1">
  <advance width="563"/>
  <unicode hex="0034"/>
  <outline>
    <contour>
      <point x="132" y="125" type="line" name="hr00"/>
      <point x="311" y="359" type="line"/>
      <point x="311" y="125" type="line"/>
    </contour>
    <contour>
      <point x="513" y="125" type="line"/>
      <point x="437" y="125" type="line"/>
      <point x="437" y="411" type="line"/>
      <point x="269" y="411" type="line"/>
      <point x="49" y="128" type="line"/>
      <point x="49" y="69" type="line"/>
      <point x="311" y="69" type="line"/>
      <point x="311" y="-5" type="line"/>
      <point x="437" y="-5" type="line"/>
      <point x="437" y="69" type="line"/>
      <point x="513" y="69" type="line"/>
    </contour>
  </outline>
</glyph>
<glyph name="five" format="1">
  <advance width="564"/>
  <unicode hex="0035"/>
  <outline>
    <contour>
      <point x="517" y="159" type="curve" smooth="yes" name="hr00"/>
      <point x="517" y="204"/>
      <point x="495" y="240"/>
      <point x="452" y="265" type="curve" smooth="yes"/>
      <point x="413" y="288"/>
      <point x="365" y="299"/>
      <point x="308" y="299" type="curve" smooth="yes"/>
      <point x="286" y="299"/>
      <point x="263" y="297"/>
      <point x="238" y="292" type="curve" smooth="yes"/>
      <point x="206" y="285"/>
      <point x="184" y="275"/>
      <point x="171" y="263" type="curve"/>
      <point x="171" y="356" type="line"/>
      <point x="490" y="356" type="line"/>
      <point x="490" y="411" type="line"/>
      <point x="49" y="411" type="line"/>
      <point x="49" y="193" type="line"/>
      <point x="177" y="193" type="line"/>
      <point x="178" y="208"/>
      <point x="190" y="221"/>
      <point x="215" y="232" type="curve" smooth="yes"/>
      <point x="238" y="243"/>
      <point x="261" y="248"/>
      <point x="286" y="248" type="curve" smooth="yes"/>
      <point x="315" y="248"/>
      <point x="339" y="241"/>
      <point x="356" y="228" type="curve" smooth="yes"/>
      <point x="377" y="213"/>
      <point x="387" y="189"/>
      <point x="387" y="158" type="curve" smooth="yes"/>
      <point x="387" y="115"/>
      <point x="375" y="84"/>
      <point x="351" y="65" type="curve" smooth="yes"/>
      <point x="333" y="50"/>
      <point x="309" y="43"/>
      <point x="279" y="43" type="curve" smooth="yes"/>
      <point x="244" y="43"/>
      <point x="217" y="50"/>
      <point x="199" y="65" type="curve" smooth="yes"/>
      <point x="183" y="79"/>
      <point x="175" y="98"/>
      <point x="175" y="122" type="curve" smooth="yes"/>
      <point x="175" y="128"/>
      <point x="175" y="133"/>
      <point x="176" y="137" type="curve"/>
      <point x="47" y="137" type="line"/>
      <point x="47" y="88"/>
      <point x="66" y="52"/>
      <point x="104" y="27" type="curve" smooth="yes"/>
      <point x="142" y="2"/>
      <point x="197" y="-10"/>
      <point x="270" y="-10" type="curve" smooth="yes"/>
      <point x="341" y="-10"/>
      <point x="398" y="2"/>
      <point x="441" y="27" type="curve" smooth="yes"/>
      <point x="492" y="57"/>
      <point x="517" y="101"/>
    </contour>
  </outline>
</glyph>
<glyph name="seven" format="1">
  <advance width="564"/>
  <unicode hex="0037"/>
  <outline>
    <contour>
      <point x="511" y="411" type="line" name="hr00"/>
      <point x="54" y="411" type="line"/>
      <point x="54" y="352" type="line"/>
      <point x="354" y="352" type="line"/>
      <point x="316" y="322"/>
      <point x="276" y="267"/>
      <point x="233" y="187" type="curve" smooth="yes"/>
      <point x="188" y="104"/>
      <point x="165" y="40"/>
      <point x="165" y="-5" type="curve"/>
      <point x="302" y="-5" type="line"/>
      <point x="301" y="-2"/>
      <point x="301" y="3"/>
      <point x="301" y="10" type="curve" smooth="yes"/>
      <point x="301" y="63"/>
      <point x="320" y="126"/>
      <point x="357" y="199" type="curve" smooth="yes"/>
      <point x="401" y="286"/>
      <point x="452" y="337"/>
      <point x="511" y="352" type="curve"/>
    </contour>
  </outline>
</glyph>
<glyph name="colon" format="1">
  <advance width="236"/>
  <unicode hex="003A"/>
  <outline>
    <contour>
      <point x="183" y="54" type="curve" smooth="yes" name="hr00"/>
      <point x="183" y="72"/>
      <point x="176" y="86"/>
      <point x="163" y="97" type="curve" smooth="yes"/>
      <point x="152" y="107"/>
      <point x="138" y="112"/>
      <point x="122" y="112" type="curve" smooth="yes"/>
      <point x="103" y="112"/>
      <point x="88" y="107"/>
      <point x="75" y="97" type="curve" smooth="yes"/>
      <point x="61" y="86"/>
      <point x="54" y="72"/>
      <point x="54" y="54" type="curve" smooth="yes"/>
      <point x="54" y="35"/>
      <point x="61" y="21"/>
      <point x="75" y="10" type="curve" smooth="yes"/>
      <point x="87" y="1"/>
      <point x="101" y="-4"/>
      <point x="118" y="-4" type="curve" smooth="yes"/>
      <point x="135" y="-4"/>
      <point x="150" y="1"/>
      <point x="162" y="10" type="curve" smooth="yes"/>
      <point x="176" y="21"/>
      <point x="183" y="35"/>
    </contour>
    <contour>
      <point x="183" y="255" type="curve" smooth="yes"/>
      <point x="183" y="272"/>
      <point x="176" y="287"/>
      <point x="163" y="298" type="curve" smooth="yes"/>
      <point x="152" y="308"/>
      <point x="138" y="313"/>
      <point x="122" y="313" type="curve" smooth="yes"/>
      <point x="103" y="313"/>
      <point x="88" y="308"/>
      <point x="75" y="298" type="curve" smooth="yes"/>
      <point x="61" y="287"/>
      <point x="54" y="273"/>
      <point x="54" y="254" type="curve" smooth="yes"/>
      <point x="54" y="236"/>
      <point x="61" y="222"/>
      <point x="75" y="211" type="curve" smooth="yes"/>
      <point x="87" y="202"/>
      <point x="101" y="197"/>
      <point x="118" y="197" type="curve" smooth="yes"/>
      <point x="135" y="197"/>
      <point x="150" y="202"/>
      <point x="162" y="211" type="curve" smooth="yes"/>
      <point x="176" y="222"/>
      <point x="183" y="236"/>
    </contour>
  </outline>
</glyph>
<glyph name="semicolon" format="1">
  <advance width="289"/>
  <unicode hex="003B"/>
  <outline>
    <contour>
      <point x="111" y="-75" type="line" name="hr00"/>
      <point x="115" y="-81"/>
      <point x="122" y="-86"/>
      <point x="133" y="-89" type="curve" smooth="yes"/>
      <point x="140" y="-90"/>
      <point x="149" y="-91"/>
      <point x="160" y="-91" type="curve" smooth="yes"/>
      <point x="181" y="-91"/>
      <point x="198" y="-83"/>
      <point x="211" y="-67" type="curve" smooth="yes"/>
      <point x="224" y="-52"/>
      <point x="231" y="-32"/>
      <point x="231" y="-8" type="curve" smooth="yes"/>
      <point x="231" y="13"/>
      <point x="226" y="29"/>
      <point x="217" y="42" type="curve"/>
      <point x="204" y="57"/>
      <point x="185" y="65"/>
      <point x="162" y="65" type="curve" smooth="yes"/>
      <point x="149" y="65"/>
      <point x="137" y="61"/>
      <point x="126" y="53" type="curve" smooth="yes"/>
      <point x="113" y="43"/>
      <point x="106" y="28"/>
      <point x="106" y="8" type="curve" smooth="yes"/>
      <point x="106" y="-5"/>
      <point x="110" y="-16"/>
      <point x="117" y="-24" type="curve" smooth="yes"/>
      <point x="124" y="-33"/>
      <point x="136" y="-38"/>
      <point x="151" y="-38" type="curve" smooth="yes"/>
      <point x="158" y="-38"/>
      <point x="164" y="-38"/>
      <point x="167" y="-37" type="curve"/>
      <point x="168" y="-38"/>
      <point x="168" y="-41"/>
      <point x="168" y="-44" type="curve" smooth="yes"/>
      <point x="168" y="-56"/>
      <point x="163" y="-64"/>
      <point x="153" y="-69" type="curve" smooth="yes"/>
      <point x="145" y="-74"/>
      <point x="135" y="-77"/>
      <point x="124" y="-76" type="curve" smooth="yes"/>
    </contour>
    <contour>
      <point x="236" y="260" type="curve" smooth="yes"/>
      <point x="236" y="279"/>
      <point x="230" y="294"/>
      <point x="217" y="305" type="curve" smooth="yes"/>
      <point x="206" y="315"/>
      <point x="192" y="320"/>
      <point x="175" y="320" type="curve" smooth="yes"/>
      <point x="156" y="320"/>
      <point x="141" y="315"/>
      <point x="128" y="306" type="curve" smooth="yes"/>
      <point x="114" y="295"/>
      <point x="107" y="279"/>
      <point x="107" y="260" type="curve" smooth="yes"/>
      <point x="107" y="242"/>
      <point x="114" y="228"/>
      <point x="127" y="217" type="curve"/>
      <point x="140" y="208"/>
      <point x="154" y="204"/>
      <point x="171" y="204" type="curve" smooth="yes"/>
      <point x="188" y="204"/>
      <point x="202" y="208"/>
      <point x="215" y="217" type="curve" smooth="yes"/>
      <point x="229" y="228"/>
      <point x="236" y="242"/>
    </contour>
  </outline>
</glyph>
<glyph name="equal" format="1">
  <advance width="413"/>
  <unicode hex="003D"/>
  <outline>
    <contour>
      <point x="363" y="223" type="line" name="hr00"/>
      <point x="363" y="275" type="line"/>
      <point x="53" y="275" type="line"/>
      <point x="53" y="223" type="line"/>
    </contour>
    <contour>
      <point x="363" y="58" type="line"/>
      <point x="363" y="109" type="line"/>
      <point x="53" y="109" type="line"/>
      <point x="53" y="58" type="line"/>
    </contour>
  </outline>
</glyph>
<glyph name="Nukta" format="1">
  <advance width="0"/>
  <unicode hex="093C"/>
  <outline>
    <contour>
      <point x="570" y="1025" type="curve" smooth="yes" name="hr00"/>
      <point x="570" y="1039"/>
      <point x="575" y="1050"/>
      <point x="584" y="1058" type="curve" smooth="yes"/>
      <point x="593" y="1067"/>
      <point x="605" y="1072"/>
      <point x="621" y="1072" type="curve" smooth="yes"/>
      <point x="636" y="1072"/>
      <point x="649" y="1067"/>
      <point x="658" y="1058" type="curve" smooth="yes"/>
      <point x="665" y="1050"/>
      <point x="669" y="1039"/>
      <point x="669" y="1025" type="curve" smooth="yes"/>
      <point x="669" y="1010"/>
      <point x="665" y="999"/>
      <point x="658" y="991" type="curve"/>
      <point x="649" y="983"/>
      <point x="636" y="979"/>
      <point x="621" y="979" type="curve" smooth="yes"/>
      <point x="606" y="979"/>
      <point x="594" y="982"/>
      <point x="586" y="988" type="curve" smooth="yes"/>
      <point x="575" y="995"/>
      <point x="570" y="1008"/>
    </contour>
    <contour>
      <point x="633" y="920" type="line" smooth="yes"/>
      <point x="670" y="920"/>
      <point x="699" y="928"/>
      <point x="722" y="944" type="curve" smooth="yes"/>
      <point x="745" y="961"/>
      <point x="757" y="983"/>
      <point x="757" y="1010" type="curve" smooth="yes"/>
      <point x="757" y="1047"/>
      <point x="741" y="1073"/>
      <point x="708" y="1089" type="curve" smooth="yes"/>
      <point x="684" y="1101"/>
      <point x="652" y="1107"/>
      <point x="613" y="1107" type="curve" smooth="yes"/>
      <point x="581" y="1107"/>
      <point x="553" y="1102"/>
      <point x="530" y="1091" type="curve" smooth="yes"/>
      <point x="499" y="1077"/>
      <point x="483" y="1056"/>
      <point x="483" y="1029" type="curve" smooth="yes"/>
      <point x="483" y="1020"/>
      <point x="484" y="1011"/>
      <point x="486" y="1002" type="curve" smooth="yes"/>
      <point x="489" y="992"/>
      <point x="493" y="984"/>
      <point x="498" y="979" type="curve"/>
      <point x="130" y="979" type="line"/>
      <point x="130" y="920" type="line"/>
    </contour>
  </outline>
</glyph>
<glyph name="Arasunna" format="1">
  <advance width="319"/>
  <unicode hex="0C01"/>
  <outline>
    <contour>
      <point x="308" y="425" type="line" name="hr00"/>
      <point x="295" y="428"/>
      <point x="282" y="429"/>
      <point x="269" y="429" type="curve" smooth="yes"/>
      <point x="186" y="429"/>
      <point x="122" y="410"/>
      <point x="78" y="373" type="curve" smooth="yes"/>
      <point x="33" y="334"/>
      <point x="10" y="279"/>
      <point x="10" y="206" type="curve" smooth="yes"/>
      <point x="10" y="139"/>
      <point x="30" y="88"/>
      <point x="70" y="53" type="curve" smooth="yes"/>
      <point x="110" y="18"/>
      <point x="167" y="0"/>
      <point x="240" y="0" type="curve" smooth="yes"/>
      <point x="264" y="0"/>
      <point x="287" y="3"/>
      <point x="308" y="9" type="curve"/>
      <point x="308" y="54" type="line"/>
      <point x="302" y="53"/>
      <point x="294" y="53"/>
      <point x="284" y="53" type="curve" smooth="yes"/>
      <point x="238" y="53"/>
      <point x="202" y="69"/>
      <point x="176" y="101" type="curve" smooth="yes"/>
      <point x="153" y="131"/>
      <point x="141" y="170"/>
      <point x="141" y="218" type="curve" smooth="yes"/>
      <point x="141" y="268"/>
      <point x="150" y="305"/>
      <point x="169" y="329" type="curve" smooth="yes"/>
      <point x="192" y="358"/>
      <point x="229" y="373"/>
      <point x="280" y="373" type="curve" smooth="yes"/>
      <point x="292" y="373"/>
      <point x="301" y="372"/>
      <point x="308" y="371" type="curve"/>
    </contour>
  </outline>
</glyph>
<glyph name="Anusvara" format="1">
  <advance width="579"/>
  <unicode hex="0C02"/>
  <outline>
    <contour>
      <point x="423" y="221" type="curve" smooth="yes" name="hr00"/>
      <point x="423" y="164"/>
      <point x="411" y="121"/>
      <point x="388" y="93" type="curve" smooth="yes"/>
      <point x="363" y="64"/>
      <point x="327" y="49"/>
      <point x="278" y="49" type="curve" smooth="yes"/>
      <point x="229" y="49"/>
      <point x="193" y="63"/>
      <point x="171" y="90" type="curve" smooth="yes"/>
      <point x="151" y="116"/>
      <point x="141" y="155"/>
      <point x="141" y="206" type="curve" smooth="yes"/>
      <point x="141" y="266"/>
      <point x="152" y="309"/>
      <point x="174" y="335" type="curve" smooth="yes"/>
      <point x="197" y="362"/>
      <point x="234" y="375"/>
      <point x="286" y="375" type="curve" smooth="yes"/>
      <point x="335" y="375"/>
      <point x="371" y="362"/>
      <point x="393" y="336" type="curve" smooth="yes"/>
      <point x="413" y="312"/>
      <point x="423" y="274"/>
    </contour>
    <contour>
      <point x="554" y="216" type="curve" smooth="yes"/>
      <point x="555" y="282"/>
      <point x="530" y="334"/>
      <point x="481" y="371" type="curve" smooth="yes"/>
      <point x="434" y="407"/>
      <point x="370" y="425"/>
      <point x="291" y="425" type="curve" smooth="yes"/>
      <point x="197" y="425"/>
      <point x="126" y="405"/>
      <point x="78" y="366" type="curve" smooth="yes"/>
      <point x="33" y="329"/>
      <point x="10" y="279"/>
      <point x="10" y="216" type="curve" smooth="yes"/>
      <point x="10" y="145"/>
      <point x="34" y="91"/>
      <point x="81" y="54" type="curve" smooth="yes"/>
      <point x="127" y="18"/>
      <point x="193" y="0"/>
      <point x="278" y="0" type="curve" smooth="yes"/>
      <point x="353" y="0"/>
      <point x="415" y="16"/>
      <point x="464" y="49" type="curve" smooth="yes"/>
      <point x="521" y="87"/>
      <point x="552" y="143"/>
    </contour>
  </outline>
</glyph>
<glyph name="II" format="1">
  <advance width="1010"/>
  <unicode hex="0C08"/>
  <outline>
    <contour>
      <point x="884" y="148" type="curve" smooth="yes" name="hr00"/>
      <point x="884" y="123"/>
      <point x="880" y="106"/>
      <point x="871" y="96" type="curve"/>
      <point x="863" y="85"/>
      <point x="849" y="80"/>
      <point x="829" y="80" type="curve" smooth="yes"/>
      <point x="810" y="80"/>
      <point x="795" y="85"/>
      <point x="786" y="95" type="curve" smooth="yes"/>
      <point x="778" y="104"/>
      <point x="774" y="118"/>
      <point x="774" y="136" type="curve" smooth="yes"/>
      <point x="774" y="159"/>
      <point x="778" y="175"/>
      <point x="786" y="186" type="curve" smooth="yes"/>
      <point x="795" y="198"/>
      <point x="810" y="204"/>
      <point x="829" y="204" type="curve" smooth="yes"/>
      <point x="848" y="204"/>
      <point x="862" y="199"/>
      <point x="871" y="188" type="curve" smooth="yes"/>
      <point x="880" y="179"/>
      <point x="884" y="165"/>
    </contour>
    <contour>
      <point x="369" y="375" type="curve" smooth="yes"/>
      <point x="412" y="375"/>
      <point x="444" y="366"/>
      <point x="466" y="348" type="curve" smooth="yes"/>
      <point x="489" y="329"/>
      <point x="503" y="301"/>
      <point x="509" y="263" type="curve"/>
      <point x="218" y="263" type="line"/>
      <point x="225" y="302"/>
      <point x="240" y="330"/>
      <point x="264" y="348" type="curve" smooth="yes"/>
      <point x="288" y="366"/>
      <point x="323" y="375"/>
    </contour>
    <contour>
      <point x="360" y="49" type="curve" smooth="yes"/>
      <point x="309" y="49"/>
      <point x="270" y="62"/>
      <point x="246" y="90" type="curve" smooth="yes"/>
      <point x="224" y="114"/>
      <point x="214" y="154"/>
      <point x="214" y="205" type="curve"/>
      <point x="510" y="205" type="line"/>
      <point x="510" y="154"/>
      <point x="499" y="115"/>
      <point x="473" y="88" type="curve" smooth="yes"/>
      <point x="448" y="62"/>
      <point x="409" y="49"/>
    </contour>
    <contour>
      <point x="490" y="580" type="line"/>
      <point x="462" y="537"/>
      <point x="435" y="504"/>
      <point x="410" y="481" type="curve" smooth="yes"/>
      <point x="379" y="453"/>
      <point x="350" y="439"/>
      <point x="323" y="439" type="curve" smooth="yes"/>
      <point x="298" y="439"/>
      <point x="279" y="445"/>
      <point x="268" y="456" type="curve" smooth="yes"/>
      <point x="256" y="467"/>
      <point x="250" y="484"/>
      <point x="250" y="505" type="curve"/>
      <point x="115" y="505" type="line"/>
      <point x="115" y="475"/>
      <point x="121" y="450"/>
      <point x="134" y="430" type="curve" smooth="yes"/>
      <point x="145" y="412"/>
      <point x="161" y="398"/>
      <point x="183" y="388" type="curve"/>
      <point x="156" y="373"/>
      <point x="135" y="355"/>
      <point x="118" y="334" type="curve" smooth="yes"/>
      <point x="103" y="314"/>
      <point x="92" y="290"/>
      <point x="86" y="263" type="curve"/>
      <point x="10" y="263" type="line"/>
      <point x="10" y="205" type="line"/>
      <point x="83" y="205" type="line"/>
      <point x="83" y="138"/>
      <point x="108" y="86"/>
      <point x="158" y="51" type="curve" smooth="yes"/>
      <point x="205" y="17"/>
      <point x="273" y="0"/>
      <point x="360" y="0" type="curve" smooth="yes"/>
      <point x="437" y="0"/>
      <point x="500" y="15"/>
      <point x="549" y="46" type="curve" smooth="yes"/>
      <point x="607" y="82"/>
      <point x="637" y="135"/>
      <point x="640" y="205" type="curve"/>
      <point x="718" y="205" type="line"/>
      <point x="703" y="200"/>
      <point x="691" y="191"/>
      <point x="684" y="178" type="curve" smooth="yes"/>
      <point x="677" y="165"/>
      <point x="674" y="149"/>
      <point x="674" y="130" type="curve" smooth="yes"/>
      <point x="674" y="99"/>
      <point x="688" y="76"/>
      <point x="716" y="60" type="curve" smooth="yes"/>
      <point x="742" y="46"/>
      <point x="777" y="39"/>
      <point x="821" y="39" type="curve" smooth="yes"/>
      <point x="873" y="39"/>
      <point x="913" y="48"/>
      <point x="940" y="65" type="curve" smooth="yes"/>
      <point x="969" y="84"/>
      <point x="984" y="114"/>
      <point x="984" y="153" type="curve" smooth="yes"/>
      <point x="984" y="176"/>
      <point x="978" y="197"/>
      <point x="966" y="214" type="curve" smooth="yes"/>
      <point x="954" y="231"/>
      <point x="938" y="243"/>
      <point x="918" y="250" type="curve"/>
      <point x="931" y="259"/>
      <point x="942" y="270"/>
      <point x="949" y="283" type="curve"/>
      <point x="958" y="296"/>
      <point x="963" y="310"/>
      <point x="963" y="325" type="curve" smooth="yes"/>
      <point x="963" y="358"/>
      <point x="950" y="384"/>
      <point x="923" y="403" type="curve" smooth="yes"/>
      <point x="898" y="421"/>
      <point x="865" y="430"/>
      <point x="826" y="430" type="curve" smooth="yes"/>
      <point x="773" y="430"/>
      <point x="734" y="422"/>
      <point x="711" y="406" type="curve" smooth="yes"/>
      <point x="689" y="391"/>
      <point x="677" y="363"/>
      <point x="676" y="323" type="curve"/>
      <point x="769" y="323" type="line"/>
      <point x="767" y="327"/>
      <point x="766" y="333"/>
      <point x="766" y="340" type="curve" smooth="yes"/>
      <point x="766" y="359"/>
      <point x="772" y="372"/>
      <point x="785" y="379" type="curve" smooth="yes"/>
      <point x="794" y="383"/>
      <point x="805" y="385"/>
      <point x="819" y="385" type="curve" smooth="yes"/>
      <point x="846" y="385"/>
      <point x="864" y="378"/>
      <point x="874" y="365" type="curve" smooth="yes"/>
      <point x="880" y="357"/>
      <point x="883" y="345"/>
      <point x="883" y="328" type="curve" smooth="yes"/>
      <point x="883" y="305"/>
      <point x="874" y="287"/>
      <point x="856" y="276" type="curve" smooth="yes"/>
      <point x="842" y="267"/>
      <point x="822" y="263"/>
      <point x="796" y="263" type="curve" smooth="yes"/>
      <point x="635" y="263" type="line"/>
      <point x="627" y="304"/>
      <point x="607" y="339"/>
      <point x="574" y="366" type="curve" smooth="yes"/>
      <point x="541" y="392"/>
      <point x="500" y="410"/>
      <point x="449" y="419" type="curve"/>
      <point x="510" y="450"/>
      <point x="568" y="493"/>
      <point x="625" y="550" type="curve"/>
    </contour>
  </outline>
</glyph>
<glyph name="uni0C09" format="1">
  <advance width="765"/>
  <unicode hex="0C09"/>
  <outline>
    <contour>
      <point x="756" y="263" type="line" name="hr00"/>
      <point x="700" y="263" type="line"/>
      <point x="707" y="255"/>
      <point x="713" y="244"/>
      <point x="718" y="231" type="curve" smooth="yes"/>
      <point x="723" y="219"/>
      <point x="725" y="210"/>
      <point x="725" y="204" type="curve"/>
      <point x="756" y="204" type="line"/>
    </contour>
    <contour>
      <point x="584" y="238" type="curve" smooth="yes"/>
      <point x="584" y="225"/>
      <point x="580" y="215"/>
      <point x="573" y="208" type="curve" smooth="yes"/>
      <point x="567" y="202"/>
      <point x="559" y="199"/>
      <point x="548" y="199" type="curve" smooth="yes"/>
      <point x="539" y="199"/>
      <point x="531" y="201"/>
      <point x="525" y="206" type="curve" smooth="yes"/>
      <point x="518" y="212"/>
      <point x="514" y="220"/>
      <point x="514" y="231" type="curve" smooth="yes"/>
      <point x="514" y="246"/>
      <point x="518" y="257"/>
      <point x="525" y="264" type="curve" smooth="yes"/>
      <point x="530" y="268"/>
      <point x="538" y="270"/>
      <point x="548" y="270" type="curve" smooth="yes"/>
      <point x="559" y="270"/>
      <point x="567" y="268"/>
      <point x="573" y="264" type="curve" smooth="yes"/>
      <point x="580" y="258"/>
      <point x="584" y="249"/>
    </contour>
    <contour>
      <point x="468" y="530" type="curve"/>
      <point x="468" y="561"/>
      <point x="460" y="582"/>
      <point x="444" y="595" type="curve" smooth="yes"/>
      <point x="434" y="604"/>
      <point x="419" y="608"/>
      <point x="398" y="608" type="curve" smooth="yes"/>
      <point x="383" y="608"/>
      <point x="370" y="603"/>
      <point x="360" y="594" type="curve" smooth="yes"/>
      <point x="344" y="581"/>
      <point x="336" y="557"/>
      <point x="336" y="524" type="curve" smooth="yes"/>
      <point x="336" y="497"/>
      <point x="342" y="478"/>
      <point x="355" y="466" type="curve" smooth="yes"/>
      <point x="365" y="458"/>
      <point x="378" y="454"/>
      <point x="395" y="454" type="curve" smooth="yes"/>
      <point x="412" y="454"/>
      <point x="426" y="458"/>
      <point x="436" y="466" type="curve" smooth="yes"/>
      <point x="451" y="479"/>
      <point x="462" y="500"/>
    </contour>
    <contour>
      <point x="86" y="204" type="line"/>
      <point x="86" y="199" type="line" smooth="yes"/>
      <point x="86" y="132"/>
      <point x="103" y="81"/>
      <point x="136" y="48" type="curve" smooth="yes"/>
      <point x="168" y="16"/>
      <point x="216" y="0"/>
      <point x="279" y="0" type="curve" smooth="yes"/>
      <point x="305" y="0"/>
      <point x="329" y="5"/>
      <point x="351" y="14" type="curve" smooth="yes"/>
      <point x="374" y="23"/>
      <point x="392" y="36"/>
      <point x="405" y="51" type="curve"/>
      <point x="411" y="37"/>
      <point x="424" y="25"/>
      <point x="444" y="16" type="curve" smooth="yes"/>
      <point x="467" y="5"/>
      <point x="493" y="0"/>
      <point x="523" y="0" type="curve" smooth="yes"/>
      <point x="578" y="0"/>
      <point x="624" y="14"/>
      <point x="661" y="43" type="curve" smooth="yes"/>
      <point x="697" y="70"/>
      <point x="715" y="103"/>
      <point x="715" y="144" type="curve" smooth="yes"/>
      <point x="715" y="198"/>
      <point x="703" y="238"/>
      <point x="679" y="263" type="curve" smooth="yes"/>
      <point x="653" y="290"/>
      <point x="610" y="303"/>
      <point x="550" y="303" type="curve" smooth="yes"/>
      <point x="512" y="303"/>
      <point x="483" y="298"/>
      <point x="463" y="289" type="curve" smooth="yes"/>
      <point x="437" y="277"/>
      <point x="424" y="257"/>
      <point x="424" y="229" type="curve" smooth="yes"/>
      <point x="424" y="206"/>
      <point x="432" y="188"/>
      <point x="448" y="176" type="curve" smooth="yes"/>
      <point x="465" y="163"/>
      <point x="489" y="158"/>
      <point x="520" y="158" type="curve" smooth="yes"/>
      <point x="537" y="158"/>
      <point x="551" y="160"/>
      <point x="564" y="163" type="curve" smooth="yes"/>
      <point x="579" y="167"/>
      <point x="589" y="173"/>
      <point x="596" y="180" type="curve"/>
      <point x="596" y="130" type="line" smooth="yes"/>
      <point x="596" y="104"/>
      <point x="588" y="84"/>
      <point x="573" y="70" type="curve" smooth="yes"/>
      <point x="558" y="57"/>
      <point x="541" y="51"/>
      <point x="520" y="51" type="curve" smooth="yes"/>
      <point x="493" y="51"/>
      <point x="475" y="59"/>
      <point x="463" y="74" type="curve" smooth="yes"/>
      <point x="452" y="88"/>
      <point x="445" y="111"/>
      <point x="445" y="144" type="curve"/>
      <point x="359" y="144" type="line"/>
      <point x="359" y="113"/>
      <point x="353" y="90"/>
      <point x="340" y="74" type="curve" smooth="yes"/>
      <point x="327" y="59"/>
      <point x="310" y="51"/>
      <point x="289" y="51" type="curve" smooth="yes"/>
      <point x="263" y="51"/>
      <point x="244" y="62"/>
      <point x="231" y="83" type="curve" smooth="yes"/>
      <point x="218" y="105"/>
      <point x="211" y="140"/>
      <point x="211" y="189" type="curve" smooth="yes"/>
      <point x="211" y="204" type="line"/>
      <point x="390" y="204" type="line"/>
      <point x="390" y="263" type="line"/>
      <point x="221" y="263" type="line"/>
      <point x="229" y="304"/>
      <point x="247" y="333"/>
      <point x="275" y="350" type="curve" smooth="yes"/>
      <point x="304" y="367"/>
      <point x="348" y="376"/>
      <point x="408" y="376" type="curve" smooth="yes"/>
      <point x="441" y="376"/>
      <point x="470" y="372"/>
      <point x="494" y="364" type="curve" smooth="yes"/>
      <point x="525" y="354"/>
      <point x="542" y="339"/>
      <point x="546" y="320" type="curve"/>
      <point x="670" y="320" type="line"/>
      <point x="661" y="362"/>
      <point x="629" y="392"/>
      <point x="576" y="409" type="curve" smooth="yes"/>
      <point x="536" y="422"/>
      <point x="480" y="429"/>
      <point x="408" y="429" type="curve" smooth="yes"/>
      <point x="316" y="429"/>
      <point x="245" y="417"/>
      <point x="196" y="394" type="curve" smooth="yes"/>
      <point x="141" y="367"/>
      <point x="106" y="324"/>
      <point x="93" y="263" type="curve"/>
      <point x="10" y="263" type="line"/>
      <point x="10" y="204" type="line"/>
    </contour>
  </outline>
</glyph>
<glyph name="Ru" format="1">
  <advance width="1379"/>
  <unicode hex="0C0B"/>
  <outline>
    <contour>
      <point x="438" y="53" type="curve" smooth="yes" name="hr00"/>
      <point x="413" y="53"/>
      <point x="396" y="60"/>
      <point x="386" y="74" type="curve" smooth="yes"/>
      <point x="375" y="88"/>
      <point x="370" y="111"/>
      <point x="370" y="144" type="curve"/>
      <point x="271" y="144" type="line"/>
      <point x="271" y="113"/>
      <point x="266" y="90"/>
      <point x="255" y="75" type="curve" smooth="yes"/>
      <point x="244" y="61"/>
      <point x="226" y="54"/>
      <point x="203" y="54" type="curve" smooth="yes"/>
      <point x="185" y="54"/>
      <point x="172" y="62"/>
      <point x="161" y="78" type="curve" smooth="yes"/>
      <point x="151" y="93"/>
      <point x="145" y="113"/>
      <point x="145" y="139" type="curve" smooth="yes"/>
      <point x="145" y="166"/>
      <point x="153" y="186"/>
      <point x="168" y="199" type="curve" smooth="yes"/>
      <point x="182" y="212"/>
      <point x="208" y="222"/>
      <point x="245" y="229" type="curve" smooth="yes"/>
      <point x="286" y="236"/>
      <point x="314" y="246"/>
      <point x="331" y="261" type="curve" smooth="yes"/>
      <point x="347" y="275"/>
      <point x="355" y="297"/>
      <point x="355" y="326" type="curve" smooth="yes"/>
      <point x="355" y="357"/>
      <point x="341" y="382"/>
      <point x="313" y="399" type="curve" smooth="yes"/>
      <point x="284" y="416"/>
      <point x="245" y="425"/>
      <point x="194" y="425" type="curve" smooth="yes"/>
      <point x="131" y="425"/>
      <point x="84" y="415"/>
      <point x="55" y="394" type="curve" smooth="yes"/>
      <point x="25" y="373"/>
      <point x="10" y="340"/>
      <point x="10" y="295" type="curve"/>
      <point x="136" y="295" type="line"/>
      <point x="136" y="325" type="line" smooth="yes"/>
      <point x="136" y="339"/>
      <point x="142" y="351"/>
      <point x="153" y="361" type="curve" smooth="yes"/>
      <point x="164" y="371"/>
      <point x="176" y="376"/>
      <point x="191" y="376" type="curve" smooth="yes"/>
      <point x="210" y="376"/>
      <point x="225" y="371"/>
      <point x="236" y="361" type="curve" smooth="yes"/>
      <point x="247" y="351"/>
      <point x="253" y="337"/>
      <point x="253" y="320" type="curve" smooth="yes"/>
      <point x="253" y="301"/>
      <point x="247" y="288"/>
      <point x="234" y="283" type="curve"/>
      <point x="221" y="276"/>
      <point x="187" y="268"/>
      <point x="133" y="258" type="curve" smooth="yes"/>
      <point x="88" y="250"/>
      <point x="57" y="237"/>
      <point x="40" y="219" type="curve" smooth="yes"/>
      <point x="23" y="200"/>
      <point x="14" y="171"/>
      <point x="14" y="133" type="curve" smooth="yes"/>
      <point x="14" y="91"/>
      <point x="28" y="58"/>
      <point x="56" y="35" type="curve" smooth="yes"/>
      <point x="85" y="12"/>
      <point x="125" y="0"/>
      <point x="176" y="0" type="curve" smooth="yes"/>
      <point x="213" y="0"/>
      <point x="242" y="4"/>
      <point x="264" y="13" type="curve" smooth="yes"/>
      <point x="285" y="22"/>
      <point x="302" y="36"/>
      <point x="315" y="56" type="curve"/>
      <point x="327" y="36"/>
      <point x="344" y="22"/>
      <point x="365" y="13" type="curve" smooth="yes"/>
      <point x="386" y="4"/>
      <point x="415" y="0"/>
      <point x="454" y="0" type="curve" smooth="yes"/>
      <point x="494" y="0"/>
      <point x="530" y="8"/>
      <point x="563" y="23" type="curve" smooth="yes"/>
      <point x="594" y="38"/>
      <point x="618" y="58"/>
      <point x="635" y="85" type="curve"/>
      <point x="647" y="59"/>
      <point x="668" y="38"/>
      <point x="698" y="23" type="curve" smooth="yes"/>
      <point x="729" y="7"/>
      <point x="764" y="-1"/>
      <point x="803" y="-1" type="curve" smooth="yes"/>
      <point x="838" y="-1"/>
      <point x="871" y="7"/>
      <point x="901" y="24" type="curve" smooth="yes"/>
      <point x="931" y="40"/>
      <point x="954" y="62"/>
      <point x="971" y="90" type="curve"/>
      <point x="982" y="63"/>
      <point x="1004" y="41"/>
      <point x="1035" y="24" type="curve" smooth="yes"/>
      <point x="1066" y="7"/>
      <point x="1101" y="-1"/>
      <point x="1141" y="-1" type="curve" smooth="yes"/>
      <point x="1204" y="-1"/>
      <point x="1255" y="19"/>
      <point x="1293" y="59" type="curve" smooth="yes"/>
      <point x="1331" y="100"/>
      <point x="1350" y="153"/>
      <point x="1350" y="220" type="curve" smooth="yes"/>
      <point x="1350" y="282"/>
      <point x="1332" y="332"/>
      <point x="1296" y="369" type="curve" smooth="yes"/>
      <point x="1261" y="406"/>
      <point x="1213" y="425"/>
      <point x="1153" y="425" type="curve" smooth="yes"/>
      <point x="1110" y="425" type="line"/>
      <point x="1110" y="376" type="line"/>
      <point x="1143" y="376"/>
      <point x="1169" y="362"/>
      <point x="1189" y="333" type="curve" smooth="yes"/>
      <point x="1209" y="304"/>
      <point x="1219" y="264"/>
      <point x="1219" y="215" type="curve" smooth="yes"/>
      <point x="1219" y="165"/>
      <point x="1211" y="124"/>
      <point x="1193" y="94" type="curve" smooth="yes"/>
      <point x="1175" y="63"/>
      <point x="1150" y="49"/>
      <point x="1121" y="49" type="curve" smooth="yes"/>
      <point x="1094" y="49"/>
      <point x="1069" y="58"/>
      <point x="1046" y="75" type="curve" smooth="yes"/>
      <point x="1023" y="92"/>
      <point x="1005" y="115"/>
      <point x="994" y="144" type="curve"/>
      <point x="1005" y="185"/>
      <point x="1011" y="210"/>
      <point x="1011" y="220" type="curve" smooth="yes"/>
      <point x="1011" y="282"/>
      <point x="993" y="332"/>
      <point x="958" y="369" type="curve" smooth="yes"/>
      <point x="922" y="406"/>
      <point x="874" y="425"/>
      <point x="814" y="425" type="curve" smooth="yes"/>
      <point x="771" y="425" type="line"/>
      <point x="771" y="376" type="line"/>
      <point x="804" y="376"/>
      <point x="830" y="362"/>
      <point x="850" y="333" type="curve" smooth="yes"/>
      <point x="870" y="304"/>
      <point x="880" y="264"/>
      <point x="880" y="215" type="curve" smooth="yes"/>
      <point x="880" y="165"/>
      <point x="872" y="124"/>
      <point x="854" y="94" type="curve" smooth="yes"/>
      <point x="836" y="63"/>
      <point x="812" y="49"/>
      <point x="783" y="49" type="curve" smooth="yes"/>
      <point x="757" y="49"/>
      <point x="732" y="57"/>
      <point x="709" y="73" type="curve" smooth="yes"/>
      <point x="686" y="88"/>
      <point x="669" y="109"/>
      <point x="658" y="136" type="curve"/>
      <point x="669" y="174"/>
      <point x="674" y="205"/>
      <point x="674" y="230" type="curve" smooth="yes"/>
      <point x="674" y="292"/>
      <point x="654" y="341"/>
      <point x="615" y="378" type="curve" smooth="yes"/>
      <point x="576" y="415"/>
      <point x="524" y="433"/>
      <point x="459" y="433" type="curve" smooth="yes"/>
      <point x="439" y="433"/>
      <point x="420" y="432"/>
      <point x="403" y="429" type="curve"/>
      <point x="403" y="376" type="line"/>
      <point x="408" y="377"/>
      <point x="417" y="378"/>
      <point x="430" y="378" type="curve" smooth="yes"/>
      <point x="469" y="378"/>
      <point x="497" y="365"/>
      <point x="515" y="339" type="curve" smooth="yes"/>
      <point x="534" y="313"/>
      <point x="543" y="273"/>
      <point x="543" y="218" type="curve" smooth="yes"/>
      <point x="543" y="159"/>
      <point x="535" y="116"/>
      <point x="519" y="91" type="curve" smooth="yes"/>
      <point x="502" y="66"/>
      <point x="475" y="53"/>
    </contour>
  </outline>
</glyph>
<glyph name="Lu" format="1">
  <advance width="984"/>
  <unicode hex="0C0C"/>
  <outline>
    <contour>
      <point x="10" y="316" type="curve" smooth="yes" name="hr00"/>
      <point x="10" y="311"/>
      <point x="10" y="296"/>
      <point x="15" y="271" type="curve" smooth="yes"/>
      <point x="18" y="255" type="line"/>
      <point x="150" y="255" type="line"/>
      <point x="144" y="271"/>
      <point x="141" y="293"/>
      <point x="141" y="320" type="curve" smooth="yes"/>
      <point x="141" y="341"/>
      <point x="147" y="358"/>
      <point x="159" y="371" type="curve" smooth="yes"/>
      <point x="172" y="384"/>
      <point x="188" y="390"/>
      <point x="208" y="390" type="curve" smooth="yes"/>
      <point x="229" y="390"/>
      <point x="247" y="384"/>
      <point x="260" y="373" type="curve" smooth="yes"/>
      <point x="273" y="361"/>
      <point x="280" y="345"/>
      <point x="280" y="325" type="curve" smooth="yes"/>
      <point x="280" y="283" type="line"/>
      <point x="368" y="283" type="line"/>
      <point x="368" y="323" type="line" smooth="yes"/>
      <point x="368" y="344"/>
      <point x="373" y="359"/>
      <point x="384" y="370" type="curve" smooth="yes"/>
      <point x="395" y="381"/>
      <point x="411" y="386"/>
      <point x="433" y="386" type="curve" smooth="yes"/>
      <point x="458" y="386"/>
      <point x="476" y="379"/>
      <point x="489" y="364" type="curve" smooth="yes"/>
      <point x="502" y="350"/>
      <point x="508" y="328"/>
      <point x="508" y="299" type="curve" smooth="yes"/>
      <point x="508" y="265"/>
      <point x="489" y="220"/>
      <point x="449" y="163" type="curve" smooth="yes"/>
      <point x="410" y="107"/>
      <point x="389" y="62"/>
      <point x="389" y="28" type="curve" smooth="yes"/>
      <point x="389" y="-19"/>
      <point x="410" y="-58"/>
      <point x="453" y="-91" type="curve" smooth="yes"/>
      <point x="496" y="-124"/>
      <point x="548" y="-141"/>
      <point x="608" y="-141" type="curve" smooth="yes"/>
      <point x="712" y="-141"/>
      <point x="795" y="-113"/>
      <point x="858" y="-54" type="curve" smooth="yes"/>
      <point x="920" y="4"/>
      <point x="951" y="84"/>
      <point x="951" y="181" type="curve" smooth="yes"/>
      <point x="951" y="254"/>
      <point x="931" y="312"/>
      <point x="888" y="356" type="curve" smooth="yes"/>
      <point x="846" y="399"/>
      <point x="789" y="421"/>
      <point x="719" y="421" type="curve"/>
      <point x="719" y="365" type="line"/>
      <point x="752" y="359"/>
      <point x="778" y="341"/>
      <point x="795" y="311" type="curve" smooth="yes"/>
      <point x="812" y="280"/>
      <point x="820" y="238"/>
      <point x="820" y="185" type="curve" smooth="yes"/>
      <point x="820" y="102"/>
      <point x="802" y="35"/>
      <point x="765" y="-15" type="curve" smooth="yes"/>
      <point x="729" y="-65"/>
      <point x="681" y="-90"/>
      <point x="620" y="-90" type="curve" smooth="yes"/>
      <point x="587" y="-90"/>
      <point x="557" y="-76"/>
      <point x="534" y="-49" type="curve" smooth="yes"/>
      <point x="510" y="-21"/>
      <point x="499" y="12"/>
      <point x="499" y="51" type="curve" smooth="yes"/>
      <point x="499" y="86"/>
      <point x="522" y="129"/>
      <point x="569" y="180" type="curve" smooth="yes"/>
      <point x="616" y="232"/>
      <point x="639" y="275"/>
      <point x="639" y="310" type="curve" smooth="yes"/>
      <point x="639" y="349"/>
      <point x="623" y="381"/>
      <point x="591" y="405" type="curve" smooth="yes"/>
      <point x="560" y="428"/>
      <point x="517" y="440"/>
      <point x="464" y="440" type="curve" smooth="yes"/>
      <point x="431" y="440"/>
      <point x="402" y="435"/>
      <point x="378" y="426" type="curve" smooth="yes"/>
      <point x="353" y="416"/>
      <point x="337" y="403"/>
      <point x="329" y="388" type="curve"/>
      <point x="322" y="403"/>
      <point x="307" y="417"/>
      <point x="283" y="426" type="curve" smooth="yes"/>
      <point x="258" y="436"/>
      <point x="228" y="440"/>
      <point x="193" y="440" type="curve" smooth="yes"/>
      <point x="135" y="440"/>
      <point x="90" y="429"/>
      <point x="58" y="408" type="curve" smooth="yes"/>
      <point x="26" y="386"/>
      <point x="10" y="355"/>
    </contour>
  </outline>
</glyph>
<glyph name="uni0C0E" format="1">
  <advance width="655"/>
  <unicode hex="0C0E"/>
  <outline>
    <contour>
      <point x="265" y="155" type="curve" smooth="yes" name="hr00"/>
      <point x="265" y="118"/>
      <point x="258" y="93"/>
      <point x="244" y="79" type="curve" smooth="yes"/>
      <point x="234" y="69"/>
      <point x="219" y="64"/>
      <point x="199" y="64" type="curve" smooth="yes"/>
      <point x="176" y="64"/>
      <point x="160" y="72"/>
      <point x="151" y="88" type="curve" smooth="yes"/>
      <point x="144" y="99"/>
      <point x="141" y="118"/>
      <point x="141" y="144" type="curve" smooth="yes"/>
      <point x="141" y="181"/>
      <point x="147" y="206"/>
      <point x="158" y="219" type="curve" smooth="yes"/>
      <point x="165" y="229"/>
      <point x="179" y="234"/>
      <point x="199" y="234" type="curve" smooth="yes"/>
      <point x="222" y="234"/>
      <point x="238" y="229"/>
      <point x="248" y="219" type="curve" smooth="yes"/>
      <point x="259" y="207"/>
      <point x="265" y="186"/>
    </contour>
    <contour>
      <point x="621" y="236" type="curve" smooth="yes"/>
      <point x="623" y="317"/>
      <point x="602" y="382"/>
      <point x="563" y="429" type="curve" smooth="yes"/>
      <point x="521" y="480"/>
      <point x="460" y="505"/>
      <point x="381" y="505" type="curve"/>
      <point x="381" y="454" type="line"/>
      <point x="418" y="454"/>
      <point x="445" y="434"/>
      <point x="464" y="393" type="curve" smooth="yes"/>
      <point x="481" y="356"/>
      <point x="490" y="307"/>
      <point x="490" y="244" type="curve" smooth="yes"/>
      <point x="490" y="183"/>
      <point x="483" y="136"/>
      <point x="470" y="103" type="curve" smooth="yes"/>
      <point x="457" y="68"/>
      <point x="438" y="51"/>
      <point x="415" y="51" type="curve" smooth="yes"/>
      <point x="398" y="51"/>
      <point x="385" y="56"/>
      <point x="378" y="65" type="curve" smooth="yes"/>
      <point x="370" y="77"/>
      <point x="366" y="98"/>
      <point x="366" y="129" type="curve" smooth="yes"/>
      <point x="366" y="185"/>
      <point x="354" y="227"/>
      <point x="329" y="254" type="curve" smooth="yes"/>
      <point x="302" y="285"/>
      <point x="258" y="300"/>
      <point x="198" y="300" type="curve" smooth="yes"/>
      <point x="143" y="300"/>
      <point x="99" y="286"/>
      <point x="64" y="259" type="curve" smooth="yes"/>
      <point x="28" y="230"/>
      <point x="10" y="192"/>
      <point x="10" y="146" type="curve" smooth="yes"/>
      <point x="10" y="101"/>
      <point x="27" y="65"/>
      <point x="60" y="38" type="curve" smooth="yes"/>
      <point x="91" y="13"/>
      <point x="129" y="0"/>
      <point x="176" y="0" type="curve" smooth="yes"/>
      <point x="205" y="0"/>
      <point x="229" y="3"/>
      <point x="248" y="9" type="curve" smooth="yes"/>
      <point x="272" y="16"/>
      <point x="292" y="26"/>
      <point x="309" y="41" type="curve"/>
      <point x="320" y="26"/>
      <point x="334" y="14"/>
      <point x="353" y="6" type="curve"/>
      <point x="370" y="1"/>
      <point x="390" y="-2"/>
      <point x="415" y="-2" type="curve" smooth="yes"/>
      <point x="478" y="-2"/>
      <point x="528" y="20"/>
      <point x="564" y="64" type="curve" smooth="yes"/>
      <point x="598" y="105"/>
      <point x="619" y="163"/>
    </contour>
  </outline>
</glyph>
<glyph name="uni0C12" format="1">
  <advance width="643"/>
  <unicode hex="0C12"/>
  <outline>
    <contour>
      <point x="628" y="121" type="curve" smooth="yes" name="hr00"/>
      <point x="628" y="157"/>
      <point x="614" y="185"/>
      <point x="585" y="204" type="curve" smooth="yes"/>
      <point x="559" y="221"/>
      <point x="524" y="230"/>
      <point x="481" y="230" type="curve" smooth="yes"/>
      <point x="455" y="230" type="line"/>
      <point x="455" y="176" type="line"/>
      <point x="475" y="176"/>
      <point x="490" y="173"/>
      <point x="499" y="168" type="curve" smooth="yes"/>
      <point x="512" y="159"/>
      <point x="518" y="142"/>
      <point x="518" y="119" type="curve" smooth="yes"/>
      <point x="518" y="96"/>
      <point x="510" y="79"/>
      <point x="493" y="68" type="curve" smooth="yes"/>
      <point x="478" y="59"/>
      <point x="460" y="54"/>
      <point x="438" y="54" type="curve" smooth="yes"/>
      <point x="409" y="54"/>
      <point x="389" y="64"/>
      <point x="379" y="84" type="curve" smooth="yes"/>
      <point x="373" y="95"/>
      <point x="370" y="115"/>
      <point x="370" y="144" type="curve"/>
      <point x="271" y="144" type="line"/>
      <point x="271" y="118"/>
      <point x="267" y="98"/>
      <point x="259" y="84" type="curve" smooth="yes"/>
      <point x="248" y="64"/>
      <point x="230" y="54"/>
      <point x="203" y="54" type="curve" smooth="yes"/>
      <point x="184" y="54"/>
      <point x="170" y="61"/>
      <point x="160" y="75" type="curve" smooth="yes"/>
      <point x="150" y="90"/>
      <point x="145" y="112"/>
      <point x="145" y="139" type="curve" smooth="yes"/>
      <point x="145" y="186"/>
      <point x="179" y="216"/>
      <point x="248" y="229" type="curve" smooth="yes"/>
      <point x="319" y="242"/>
      <point x="355" y="274"/>
      <point x="355" y="326" type="curve"/>
      <point x="358" y="359"/>
      <point x="343" y="385"/>
      <point x="310" y="403" type="curve" smooth="yes"/>
      <point x="281" y="419"/>
      <point x="242" y="425"/>
      <point x="194" y="425" type="curve" smooth="yes"/>
      <point x="131" y="425"/>
      <point x="85" y="415"/>
      <point x="56" y="395" type="curve" smooth="yes"/>
      <point x="25" y="375"/>
      <point x="10" y="342"/>
      <point x="10" y="295" type="curve"/>
      <point x="136" y="295" type="line"/>
      <point x="136" y="325" type="line" smooth="yes"/>
      <point x="136" y="339"/>
      <point x="141" y="351"/>
      <point x="151" y="361" type="curve" smooth="yes"/>
      <point x="162" y="371"/>
      <point x="176" y="376"/>
      <point x="191" y="376" type="curve" smooth="yes"/>
      <point x="211" y="376"/>
      <point x="227" y="371"/>
      <point x="238" y="361" type="curve" smooth="yes"/>
      <point x="248" y="351"/>
      <point x="253" y="337"/>
      <point x="253" y="320" type="curve" smooth="yes"/>
      <point x="253" y="292"/>
      <point x="222" y="273"/>
      <point x="160" y="263" type="curve" smooth="yes"/>
      <point x="63" y="247"/>
      <point x="14" y="204"/>
      <point x="14" y="133" type="curve" smooth="yes"/>
      <point x="14" y="87"/>
      <point x="30" y="52"/>
      <point x="63" y="29" type="curve" smooth="yes"/>
      <point x="91" y="10"/>
      <point x="129" y="0"/>
      <point x="176" y="0" type="curve" smooth="yes"/>
      <point x="209" y="0"/>
      <point x="235" y="3"/>
      <point x="255" y="10" type="curve" smooth="yes"/>
      <point x="281" y="19"/>
      <point x="301" y="35"/>
      <point x="315" y="56" type="curve"/>
      <point x="328" y="34"/>
      <point x="347" y="18"/>
      <point x="373" y="9" type="curve" smooth="yes"/>
      <point x="394" y="2"/>
      <point x="422" y="-2"/>
      <point x="458" y="-2" type="curve" smooth="yes"/>
      <point x="506" y="-2"/>
      <point x="545" y="8"/>
      <point x="576" y="28" type="curve" smooth="yes"/>
      <point x="611" y="50"/>
      <point x="628" y="81"/>
    </contour>
  </outline>
</glyph>
<glyph name="Ga" format="1">
  <advance width="647"/>
  <unicode hex="0C17"/>
  <outline>
    <contour>
      <point x="425" y="408" type="curve" name="hr00"/>
      <point x="440" y="414"/>
      <point x="455" y="421"/>
      <point x="470" y="430" type="curve" smooth="yes"/>
      <point x="523" y="460"/>
      <point x="577" y="502"/>
      <point x="631" y="556" type="curve"/>
      <point x="505" y="589" type="line"/>
      <point x="478" y="549"/>
      <point x="445" y="512"/>
      <point x="404" y="479" type="curve" smooth="yes"/>
      <point x="369" y="451"/>
      <point x="339" y="434"/>
      <point x="314" y="428" type="curve"/>
      <point x="278" y="428" type="line"/>
      <point x="267" y="431"/>
      <point x="258" y="439"/>
      <point x="250" y="450" type="curve" smooth="yes"/>
      <point x="237" y="467"/>
      <point x="231" y="487"/>
      <point x="231" y="511" type="curve"/>
      <point x="121" y="511" type="line"/>
      <point x="121" y="468"/>
      <point x="136" y="434"/>
      <point x="167" y="411" type="curve"/>
      <point x="128" y="399"/>
      <point x="98" y="381"/>
      <point x="73" y="356" type="curve" smooth="yes"/>
      <point x="31" y="314"/>
      <point x="10" y="252"/>
      <point x="10" y="169" type="curve" smooth="yes"/>
      <point x="10" y="100"/>
      <point x="20" y="44"/>
      <point x="39" y="0" type="curve"/>
      <point x="176" y="0" type="line"/>
      <point x="153" y="44"/>
      <point x="141" y="106"/>
      <point x="141" y="186" type="curve" smooth="yes"/>
      <point x="141" y="252"/>
      <point x="155" y="301"/>
      <point x="184" y="334" type="curve" smooth="yes"/>
      <point x="210" y="362"/>
      <point x="247" y="376"/>
      <point x="294" y="376" type="curve" smooth="yes"/>
      <point x="341" y="376"/>
      <point x="376" y="362"/>
      <point x="400" y="334" type="curve" smooth="yes"/>
      <point x="426" y="302"/>
      <point x="439" y="253"/>
      <point x="439" y="186" type="curve" smooth="yes"/>
      <point x="439" y="104"/>
      <point x="428" y="42"/>
      <point x="406" y="0" type="curve"/>
      <point x="544" y="0" type="line"/>
      <point x="561" y="40"/>
      <point x="570" y="96"/>
      <point x="570" y="169" type="curve" smooth="yes"/>
      <point x="570" y="250"/>
      <point x="549" y="313"/>
      <point x="506" y="356" type="curve" smooth="yes"/>
      <point x="484" y="379"/>
      <point x="457" y="396"/>
    </contour>
  </outline>
</glyph>
<glyph name="Cha" format="1">
  <advance width="711"/>
  <unicode hex="0C1B"/>
  <outline>
    <contour>
      <point x="538" y="431" type="line" smooth="yes" name="hr00"/>
      <point x="592" y="458"/>
      <point x="645" y="503"/>
      <point x="699" y="557" type="curve"/>
      <point x="573" y="590" type="line"/>
      <point x="546" y="550"/>
      <point x="512" y="513"/>
      <point x="471" y="480" type="curve" smooth="yes"/>
      <point x="426" y="444"/>
      <point x="390" y="426"/>
      <point x="361" y="426" type="curve" smooth="yes"/>
      <point x="344" y="426"/>
      <point x="330" y="434"/>
      <point x="318" y="451" type="curve" smooth="yes"/>
      <point x="306" y="468"/>
      <point x="299" y="488"/>
      <point x="299" y="512" type="curve"/>
      <point x="189" y="512" type="line"/>
      <point x="189" y="465"/>
      <point x="207" y="429"/>
      <point x="243" y="406" type="curve" smooth="yes"/>
      <point x="268" y="391"/>
      <point x="300" y="383"/>
      <point x="339" y="379" type="curve"/>
      <point x="342" y="378"/>
      <point x="346" y="378"/>
      <point x="350" y="378" type="curve" smooth="yes"/>
      <point x="376" y="378" type="line" smooth="yes"/>
      <point x="432" y="378"/>
      <point x="473" y="365"/>
      <point x="500" y="338" type="curve" smooth="yes"/>
      <point x="526" y="312"/>
      <point x="539" y="271"/>
      <point x="539" y="214" type="curve" smooth="yes"/>
      <point x="539" y="155"/>
      <point x="531" y="113"/>
      <point x="514" y="86" type="curve" smooth="yes"/>
      <point x="501" y="64"/>
      <point x="482" y="53"/>
      <point x="458" y="53" type="curve" smooth="yes"/>
      <point x="439" y="53"/>
      <point x="425" y="59"/>
      <point x="415" y="70" type="curve"/>
      <point x="407" y="81"/>
      <point x="403" y="94"/>
      <point x="403" y="111" type="curve" smooth="yes"/>
      <point x="403" y="175" type="line"/>
      <point x="296" y="175" type="line"/>
      <point x="296" y="116" type="line" smooth="yes"/>
      <point x="296" y="97"/>
      <point x="292" y="82"/>
      <point x="284" y="71" type="curve"/>
      <point x="273" y="59"/>
      <point x="256" y="53"/>
      <point x="233" y="53" type="curve" smooth="yes"/>
      <point x="211" y="53"/>
      <point x="196" y="65"/>
      <point x="189" y="88" type="curve" smooth="yes"/>
      <point x="186" y="99"/>
      <point x="184" y="120"/>
      <point x="184" y="149" type="curve" smooth="yes"/>
      <point x="184" y="185"/>
      <point x="186" y="209"/>
      <point x="191" y="221" type="curve" smooth="yes"/>
      <point x="200" y="244"/>
      <point x="218" y="256"/>
      <point x="246" y="256" type="curve" smooth="yes"/>
      <point x="283" y="256" type="line"/>
      <point x="283" y="316" type="line"/>
      <point x="10" y="316" type="line"/>
      <point x="10" y="256" type="line"/>
      <point x="119" y="256" type="line"/>
      <point x="96" y="247"/>
      <point x="80" y="233"/>
      <point x="69" y="214" type="curve" smooth="yes"/>
      <point x="58" y="195"/>
      <point x="53" y="171"/>
      <point x="53" y="140" type="curve" smooth="yes"/>
      <point x="53" y="94"/>
      <point x="71" y="58"/>
      <point x="106" y="33" type="curve" smooth="yes"/>
      <point x="137" y="11"/>
      <point x="176" y="0"/>
      <point x="223" y="0" type="curve" smooth="yes"/>
      <point x="254" y="0"/>
      <point x="279" y="5"/>
      <point x="300" y="15" type="curve" smooth="yes"/>
      <point x="319" y="24"/>
      <point x="334" y="36"/>
      <point x="344" y="51" type="curve"/>
      <point x="353" y="36"/>
      <point x="366" y="24"/>
      <point x="381" y="16" type="curve" smooth="yes"/>
      <point x="403" y="4"/>
      <point x="431" y="0"/>
      <point x="465" y="0" type="curve" smooth="yes"/>
      <point x="528" y="0"/>
      <point x="577" y="17"/>
      <point x="611" y="50" type="curve" smooth="yes"/>
      <point x="647" y="86"/>
      <point x="668" y="140"/>
      <point x="670" y="213" type="curve" smooth="yes"/>
      <point x="671" y="271"/>
      <point x="651" y="320"/>
      <point x="614" y="359" type="curve" smooth="yes"/>
      <point x="587" y="388"/>
      <point x="552" y="407"/>
      <point x="510" y="417" type="curve"/>
    </contour>
    <contour>
      <point x="386" y="-136" type="curve" smooth="yes"/>
      <point x="401" y="-125"/>
      <point x="412" y="-106"/>
      <point x="418" y="-79" type="curve"/>
      <point x="418" y="-51"/>
      <point x="410" y="-31"/>
      <point x="394" y="-20" type="curve" smooth="yes"/>
      <point x="383" y="-13"/>
      <point x="368" y="-9"/>
      <point x="348" y="-9" type="curve" smooth="yes"/>
      <point x="333" y="-9"/>
      <point x="320" y="-13"/>
      <point x="310" y="-21" type="curve" smooth="yes"/>
      <point x="294" y="-34"/>
      <point x="286" y="-55"/>
      <point x="286" y="-84" type="curve" smooth="yes"/>
      <point x="286" y="-109"/>
      <point x="292" y="-126"/>
      <point x="305" y="-136" type="curve" smooth="yes"/>
      <point x="314" y="-143"/>
      <point x="328" y="-147"/>
      <point x="345" y="-147" type="curve" smooth="yes"/>
      <point x="362" y="-147"/>
      <point x="376" y="-143"/>
    </contour>
  </outline>
</glyph>
<glyph name="Ja" format="1">
  <advance width="700"/>
  <unicode hex="0C1C"/>
  <outline>
    <contour>
      <point x="628" y="111" type="curve" smooth="yes" name="hr00"/>
      <point x="628" y="146"/>
      <point x="614" y="172"/>
      <point x="585" y="191" type="curve" smooth="yes"/>
      <point x="560" y="207"/>
      <point x="526" y="216"/>
      <point x="481" y="216" type="curve" smooth="yes"/>
      <point x="468" y="216" type="line"/>
      <point x="468" y="163" type="line"/>
      <point x="485" y="163"/>
      <point x="497" y="160"/>
      <point x="504" y="155" type="curve" smooth="yes"/>
      <point x="513" y="148"/>
      <point x="518" y="135"/>
      <point x="518" y="115" type="curve" smooth="yes"/>
      <point x="518" y="97"/>
      <point x="510" y="82"/>
      <point x="494" y="70" type="curve" smooth="yes"/>
      <point x="479" y="59"/>
      <point x="460" y="54"/>
      <point x="438" y="54" type="curve" smooth="yes"/>
      <point x="409" y="54"/>
      <point x="389" y="64"/>
      <point x="379" y="84" type="curve" smooth="yes"/>
      <point x="373" y="95"/>
      <point x="370" y="115"/>
      <point x="370" y="144" type="curve"/>
      <point x="271" y="144" type="line"/>
      <point x="271" y="118"/>
      <point x="267" y="98"/>
      <point x="259" y="84" type="curve" smooth="yes"/>
      <point x="248" y="64"/>
      <point x="230" y="54"/>
      <point x="203" y="54" type="curve" smooth="yes"/>
      <point x="184" y="54"/>
      <point x="170" y="61"/>
      <point x="160" y="75" type="curve" smooth="yes"/>
      <point x="150" y="90"/>
      <point x="145" y="112"/>
      <point x="145" y="139" type="curve" smooth="yes"/>
      <point x="145" y="186"/>
      <point x="179" y="215"/>
      <point x="246" y="228" type="curve" smooth="yes"/>
      <point x="295" y="237"/>
      <point x="326" y="251"/>
      <point x="340" y="270" type="curve"/>
      <point x="379" y="249"/>
      <point x="422" y="238"/>
      <point x="471" y="238" type="curve" smooth="yes"/>
      <point x="516" y="238"/>
      <point x="553" y="245"/>
      <point x="584" y="259" type="curve" smooth="yes"/>
      <point x="621" y="277"/>
      <point x="639" y="303"/>
      <point x="639" y="336" type="curve" smooth="yes"/>
      <point x="639" y="369"/>
      <point x="622" y="394"/>
      <point x="589" y="411" type="curve" smooth="yes"/>
      <point x="562" y="426"/>
      <point x="528" y="433"/>
      <point x="488" y="433" type="curve" smooth="yes"/>
      <point x="458" y="433"/>
      <point x="437" y="432"/>
      <point x="426" y="431" type="curve"/>
      <point x="426" y="373" type="line"/>
      <point x="439" y="377"/>
      <point x="451" y="379"/>
      <point x="463" y="379" type="curve" smooth="yes"/>
      <point x="480" y="379"/>
      <point x="496" y="376"/>
      <point x="509" y="369" type="curve" smooth="yes"/>
      <point x="523" y="362"/>
      <point x="530" y="352"/>
      <point x="530" y="340" type="curve" smooth="yes"/>
      <point x="530" y="327"/>
      <point x="524" y="316"/>
      <point x="513" y="309" type="curve" smooth="yes"/>
      <point x="498" y="300"/>
      <point x="474" y="295"/>
      <point x="443" y="295" type="curve" smooth="yes"/>
      <point x="417" y="295"/>
      <point x="396" y="301"/>
      <point x="381" y="313" type="curve" smooth="yes"/>
      <point x="371" y="320"/>
      <point x="361" y="333"/>
      <point x="351" y="350" type="curve"/>
      <point x="344" y="375"/>
      <point x="325" y="395"/>
      <point x="295" y="408" type="curve" smooth="yes"/>
      <point x="268" y="419"/>
      <point x="235" y="425"/>
      <point x="194" y="425" type="curve" smooth="yes"/>
      <point x="131" y="425"/>
      <point x="85" y="415"/>
      <point x="56" y="395" type="curve" smooth="yes"/>
      <point x="25" y="375"/>
      <point x="10" y="342"/>
      <point x="10" y="295" type="curve"/>
      <point x="136" y="295" type="line"/>
      <point x="136" y="325" type="line" smooth="yes"/>
      <point x="136" y="339"/>
      <point x="141" y="351"/>
      <point x="151" y="361" type="curve" smooth="yes"/>
      <point x="162" y="371"/>
      <point x="176" y="376"/>
      <point x="191" y="376" type="curve" smooth="yes"/>
      <point x="211" y="376"/>
      <point x="227" y="371"/>
      <point x="238" y="361" type="curve" smooth="yes"/>
      <point x="248" y="351"/>
      <point x="253" y="337"/>
      <point x="253" y="320" type="curve" smooth="yes"/>
      <point x="253" y="292"/>
      <point x="222" y="273"/>
      <point x="160" y="263" type="curve" smooth="yes"/>
      <point x="63" y="247"/>
      <point x="14" y="204"/>
      <point x="14" y="133" type="curve" smooth="yes"/>
      <point x="14" y="87"/>
      <point x="30" y="52"/>
      <point x="63" y="29" type="curve" smooth="yes"/>
      <point x="91" y="10"/>
      <point x="129" y="0"/>
      <point x="176" y="0" type="curve" smooth="yes"/>
      <point x="209" y="0"/>
      <point x="235" y="3"/>
      <point x="255" y="10" type="curve" smooth="yes"/>
      <point x="281" y="19"/>
      <point x="301" y="35"/>
      <point x="315" y="56" type="curve"/>
      <point x="328" y="34"/>
      <point x="347" y="18"/>
      <point x="373" y="9" type="curve" smooth="yes"/>
      <point x="394" y="2"/>
      <point x="422" y="-2"/>
      <point x="458" y="-2" type="curve" smooth="yes"/>
      <point x="506" y="-2"/>
      <point x="545" y="8"/>
      <point x="576" y="26" type="curve" smooth="yes"/>
      <point x="611" y="47"/>
      <point x="628" y="74"/>
    </contour>
  </outline>
</glyph>
<glyph name="Jha" format="1">
  <advance width="1278"/>
  <unicode hex="0C1D"/>
  <outline>
    <contour>
      <point x="289" y="425" type="curve" smooth="yes" name="hr00"/>
      <point x="272" y="425"/>
      <point x="257" y="433"/>
      <point x="245" y="450" type="curve" smooth="yes"/>
      <point x="232" y="467"/>
      <point x="226" y="487"/>
      <point x="226" y="511" type="curve"/>
      <point x="116" y="511" type="line"/>
      <point x="116" y="467"/>
      <point x="132" y="433"/>
      <point x="163" y="410" type="curve"/>
      <point x="128" y="400"/>
      <point x="99" y="385"/>
      <point x="76" y="366" type="curve" smooth="yes"/>
      <point x="32" y="331"/>
      <point x="10" y="281"/>
      <point x="10" y="216" type="curve" smooth="yes"/>
      <point x="10" y="145"/>
      <point x="35" y="91"/>
      <point x="84" y="54" type="curve" smooth="yes"/>
      <point x="131" y="18"/>
      <point x="200" y="0"/>
      <point x="289" y="0" type="curve" smooth="yes"/>
      <point x="366" y="0"/>
      <point x="430" y="16"/>
      <point x="480" y="49" type="curve" smooth="yes"/>
      <point x="497" y="60"/>
      <point x="512" y="73"/>
      <point x="525" y="87" type="curve"/>
      <point x="535" y="66"/>
      <point x="552" y="48"/>
      <point x="575" y="33" type="curve" smooth="yes"/>
      <point x="608" y="10"/>
      <point x="646" y="-1"/>
      <point x="691" y="-1" type="curve" smooth="yes"/>
      <point x="752" y="-1"/>
      <point x="801" y="19"/>
      <point x="836" y="59" type="curve" smooth="yes"/>
      <point x="841" y="64"/>
      <point x="845" y="69"/>
      <point x="848" y="74" type="curve"/>
      <point x="858" y="57"/>
      <point x="873" y="43"/>
      <point x="893" y="30" type="curve" smooth="yes"/>
      <point x="926" y="9"/>
      <point x="965" y="-1"/>
      <point x="1010" y="-1" type="curve" smooth="yes"/>
      <point x="1073" y="-1"/>
      <point x="1124" y="19"/>
      <point x="1161" y="59" type="curve" smooth="yes"/>
      <point x="1200" y="100"/>
      <point x="1219" y="153"/>
      <point x="1219" y="220" type="curve" smooth="yes"/>
      <point x="1219" y="282"/>
      <point x="1201" y="332"/>
      <point x="1165" y="369" type="curve" smooth="yes"/>
      <point x="1129" y="406"/>
      <point x="1081" y="425"/>
      <point x="1021" y="425" type="curve" smooth="yes"/>
      <point x="979" y="425" type="line"/>
      <point x="979" y="376" type="line"/>
      <point x="1012" y="376"/>
      <point x="1038" y="362"/>
      <point x="1058" y="333" type="curve" smooth="yes"/>
      <point x="1078" y="304"/>
      <point x="1088" y="264"/>
      <point x="1088" y="215" type="curve" smooth="yes"/>
      <point x="1088" y="165"/>
      <point x="1079" y="125"/>
      <point x="1061" y="94" type="curve" smooth="yes"/>
      <point x="1043" y="64"/>
      <point x="1019" y="49"/>
      <point x="990" y="49" type="curve" smooth="yes"/>
      <point x="957" y="49"/>
      <point x="928" y="61"/>
      <point x="903" y="85" type="curve" smooth="yes"/>
      <point x="891" y="96"/>
      <point x="881" y="107"/>
      <point x="874" y="120" type="curve"/>
      <point x="885" y="149"/>
      <point x="891" y="183"/>
      <point x="891" y="220" type="curve" smooth="yes"/>
      <point x="891" y="281"/>
      <point x="878" y="329"/>
      <point x="850" y="363" type="curve" smooth="yes"/>
      <point x="817" y="405"/>
      <point x="762" y="425"/>
      <point x="688" y="425" type="curve" smooth="yes"/>
      <point x="651" y="425" type="line"/>
      <point x="651" y="376" type="line"/>
      <point x="684" y="376"/>
      <point x="709" y="366"/>
      <point x="726" y="346" type="curve" smooth="yes"/>
      <point x="749" y="321"/>
      <point x="760" y="278"/>
      <point x="760" y="215" type="curve" smooth="yes"/>
      <point x="760" y="160"/>
      <point x="753" y="119"/>
      <point x="738" y="90" type="curve" smooth="yes"/>
      <point x="723" y="63"/>
      <point x="701" y="49"/>
      <point x="671" y="49" type="curve" smooth="yes"/>
      <point x="640" y="49"/>
      <point x="613" y="61"/>
      <point x="588" y="85" type="curve" smooth="yes"/>
      <point x="573" y="99"/>
      <point x="562" y="115"/>
      <point x="554" y="133" type="curve"/>
      <point x="565" y="158"/>
      <point x="570" y="185"/>
      <point x="570" y="216" type="curve" smooth="yes"/>
      <point x="570" y="283"/>
      <point x="545" y="334"/>
      <point x="495" y="371" type="curve" smooth="yes"/>
      <point x="474" y="386"/>
      <point x="449" y="399"/>
      <point x="420" y="408" type="curve"/>
      <point x="435" y="414"/>
      <point x="450" y="421"/>
      <point x="465" y="430" type="curve" smooth="yes"/>
      <point x="518" y="460"/>
      <point x="572" y="502"/>
      <point x="626" y="556" type="curve"/>
      <point x="500" y="589" type="line"/>
      <point x="473" y="549"/>
      <point x="440" y="512"/>
      <point x="399" y="479" type="curve" smooth="yes"/>
      <point x="354" y="443"/>
      <point x="317" y="425"/>
    </contour>
    <contour>
      <point x="875" y="-136" type="curve" smooth="yes"/>
      <point x="890" y="-125"/>
      <point x="901" y="-106"/>
      <point x="906" y="-79" type="curve"/>
      <point x="906" y="-51"/>
      <point x="898" y="-31"/>
      <point x="883" y="-20" type="curve" smooth="yes"/>
      <point x="872" y="-13"/>
      <point x="856" y="-9"/>
      <point x="836" y="-9" type="curve" smooth="yes"/>
      <point x="821" y="-9"/>
      <point x="809" y="-13"/>
      <point x="799" y="-21" type="curve" smooth="yes"/>
      <point x="783" y="-34"/>
      <point x="775" y="-55"/>
      <point x="775" y="-84" type="curve" smooth="yes"/>
      <point x="775" y="-109"/>
      <point x="781" y="-126"/>
      <point x="794" y="-136" type="curve" smooth="yes"/>
      <point x="803" y="-143"/>
      <point x="817" y="-147"/>
      <point x="834" y="-147" type="curve" smooth="yes"/>
      <point x="851" y="-147"/>
      <point x="865" y="-143"/>
    </contour>
    <contour>
      <point x="405" y="338" type="curve" smooth="yes"/>
      <point x="428" y="313"/>
      <point x="439" y="274"/>
      <point x="439" y="221" type="curve" smooth="yes"/>
      <point x="439" y="164"/>
      <point x="427" y="121"/>
      <point x="403" y="93" type="curve" smooth="yes"/>
      <point x="378" y="64"/>
      <point x="339" y="49"/>
      <point x="288" y="49" type="curve" smooth="yes"/>
      <point x="236" y="49"/>
      <point x="198" y="63"/>
      <point x="174" y="90" type="curve" smooth="yes"/>
      <point x="152" y="116"/>
      <point x="141" y="155"/>
      <point x="141" y="206" type="curve" smooth="yes"/>
      <point x="141" y="265"/>
      <point x="153" y="309"/>
      <point x="176" y="336" type="curve" smooth="yes"/>
      <point x="199" y="364"/>
      <point x="237" y="378"/>
      <point x="290" y="378" type="curve" smooth="yes"/>
      <point x="343" y="378"/>
      <point x="381" y="365"/>
    </contour>
  </outline>
</glyph>
<glyph name="Da" format="1">
  <advance width="697"/>
  <unicode hex="0C26"/>
  <outline>
    <contour>
      <point x="464" y="410" type="curve" name="hr00"/>
      <point x="477" y="416"/>
      <point x="490" y="423"/>
      <point x="503" y="430" type="curve" smooth="yes"/>
      <point x="556" y="460"/>
      <point x="610" y="502"/>
      <point x="664" y="556" type="curve"/>
      <point x="538" y="589" type="line"/>
      <point x="511" y="549"/>
      <point x="477" y="512"/>
      <point x="436" y="479" type="curve" smooth="yes"/>
      <point x="397" y="448"/>
      <point x="365" y="430"/>
      <point x="338" y="426" type="curve"/>
      <point x="316" y="426" type="line"/>
      <point x="303" y="429"/>
      <point x="292" y="437"/>
      <point x="283" y="450" type="curve" smooth="yes"/>
      <point x="270" y="467"/>
      <point x="264" y="487"/>
      <point x="264" y="511" type="curve"/>
      <point x="154" y="511" type="line"/>
      <point x="154" y="469"/>
      <point x="168" y="437"/>
      <point x="196" y="414" type="curve"/>
      <point x="144" y="403"/>
      <point x="103" y="384"/>
      <point x="73" y="359" type="curve" smooth="yes"/>
      <point x="31" y="322"/>
      <point x="10" y="270"/>
      <point x="10" y="201" type="curve" smooth="yes"/>
      <point x="10" y="132"/>
      <point x="27" y="81"/>
      <point x="60" y="48" type="curve" smooth="yes"/>
      <point x="92" y="16"/>
      <point x="142" y="0"/>
      <point x="210" y="0" type="curve" smooth="yes"/>
      <point x="235" y="0"/>
      <point x="257" y="3"/>
      <point x="275" y="10" type="curve" smooth="yes"/>
      <point x="295" y="17"/>
      <point x="312" y="28"/>
      <point x="326" y="44" type="curve"/>
      <point x="334" y="31"/>
      <point x="347" y="21"/>
      <point x="366" y="13" type="curve" smooth="yes"/>
      <point x="387" y="4"/>
      <point x="412" y="0"/>
      <point x="439" y="0" type="curve" smooth="yes"/>
      <point x="500" y="0"/>
      <point x="547" y="16"/>
      <point x="580" y="48" type="curve" smooth="yes"/>
      <point x="616" y="82"/>
      <point x="634" y="136"/>
      <point x="635" y="209" type="curve" smooth="yes"/>
      <point x="635" y="272"/>
      <point x="612" y="322"/>
      <point x="566" y="360" type="curve" smooth="yes"/>
      <point x="539" y="383"/>
      <point x="505" y="399"/>
    </contour>
    <contour>
      <point x="453" y="349" type="curve" smooth="yes"/>
      <point x="488" y="321"/>
      <point x="504" y="268"/>
      <point x="504" y="193" type="curve" smooth="yes"/>
      <point x="504" y="148"/>
      <point x="499" y="112"/>
      <point x="485" y="86" type="curve" smooth="yes"/>
      <point x="473" y="63"/>
      <point x="456" y="51"/>
      <point x="436" y="51" type="curve" smooth="yes"/>
      <point x="415" y="51"/>
      <point x="399" y="59"/>
      <point x="389" y="74" type="curve" smooth="yes"/>
      <point x="379" y="90"/>
      <point x="374" y="116"/>
      <point x="374" y="151" type="curve"/>
      <point x="279" y="151" type="line"/>
      <point x="279" y="114"/>
      <point x="274" y="88"/>
      <point x="265" y="74" type="curve" smooth="yes"/>
      <point x="257" y="60"/>
      <point x="242" y="53"/>
      <point x="219" y="53" type="curve" smooth="yes"/>
      <point x="197" y="53"/>
      <point x="179" y="64"/>
      <point x="165" y="85" type="curve" smooth="yes"/>
      <point x="149" y="108"/>
      <point x="141" y="140"/>
      <point x="141" y="181" type="curve" smooth="yes"/>
      <point x="141" y="264"/>
      <point x="159" y="319"/>
      <point x="196" y="348" type="curve" smooth="yes"/>
      <point x="223" y="368"/>
      <point x="269" y="378"/>
      <point x="334" y="378" type="curve" smooth="yes"/>
      <point x="388" y="378"/>
      <point x="429" y="369"/>
    </contour>
  </outline>
</glyph>
<glyph name="Bha" format="1">
  <advance width="736"/>
  <unicode hex="0C2D"/>
  <outline>
    <contour>
      <point x="563" y="409" type="curve" name="hr00"/>
      <point x="576" y="415"/>
      <point x="590" y="422"/>
      <point x="604" y="431" type="curve" smooth="yes"/>
      <point x="653" y="461"/>
      <point x="701" y="503"/>
      <point x="750" y="557" type="curve"/>
      <point x="636" y="590" type="line"/>
      <point x="612" y="550"/>
      <point x="581" y="513"/>
      <point x="543" y="480" type="curve" smooth="yes"/>
      <point x="503" y="444"/>
      <point x="470" y="426"/>
      <point x="445" y="426" type="curve" smooth="yes"/>
      <point x="428" y="426"/>
      <point x="415" y="434"/>
      <point x="405" y="451" type="curve" smooth="yes"/>
      <point x="394" y="468"/>
      <point x="388" y="488"/>
      <point x="388" y="512" type="curve"/>
      <point x="288" y="512" type="line"/>
      <point x="288" y="465"/>
      <point x="304" y="429"/>
      <point x="337" y="406" type="curve" smooth="yes"/>
      <point x="359" y="391"/>
      <point x="386" y="385"/>
      <point x="418" y="380" type="curve" smooth="yes"/>
      <point x="421" y="379"/>
      <point x="425" y="378"/>
      <point x="430" y="378" type="curve" smooth="yes"/>
      <point x="449" y="378" type="line" smooth="yes"/>
      <point x="490" y="378"/>
      <point x="516" y="363"/>
      <point x="529" y="334" type="curve" smooth="yes"/>
      <point x="538" y="314"/>
      <point x="543" y="275"/>
      <point x="543" y="218" type="curve" smooth="yes"/>
      <point x="543" y="153"/>
      <point x="533" y="108"/>
      <point x="513" y="83" type="curve" smooth="yes"/>
      <point x="497" y="63"/>
      <point x="472" y="53"/>
      <point x="438" y="53" type="curve" smooth="yes"/>
      <point x="409" y="53"/>
      <point x="389" y="63"/>
      <point x="379" y="83" type="curve" smooth="yes"/>
      <point x="373" y="95"/>
      <point x="370" y="115"/>
      <point x="370" y="144" type="curve"/>
      <point x="271" y="144" type="line"/>
      <point x="271" y="118"/>
      <point x="267" y="98"/>
      <point x="259" y="84" type="curve" smooth="yes"/>
      <point x="248" y="64"/>
      <point x="230" y="54"/>
      <point x="203" y="54" type="curve" smooth="yes"/>
      <point x="184" y="54"/>
      <point x="170" y="61"/>
      <point x="160" y="75" type="curve" smooth="yes"/>
      <point x="150" y="90"/>
      <point x="145" y="112"/>
      <point x="145" y="139" type="curve" smooth="yes"/>
      <point x="145" y="186"/>
      <point x="179" y="216"/>
      <point x="248" y="229" type="curve" smooth="yes"/>
      <point x="319" y="242"/>
      <point x="355" y="274"/>
      <point x="355" y="326" type="curve"/>
      <point x="358" y="359"/>
      <point x="343" y="385"/>
      <point x="310" y="403" type="curve" smooth="yes"/>
      <point x="281" y="419"/>
      <point x="242" y="425"/>
      <point x="194" y="425" type="curve" smooth="yes"/>
      <point x="131" y="425"/>
      <point x="85" y="415"/>
      <point x="56" y="395" type="curve" smooth="yes"/>
      <point x="25" y="375"/>
      <point x="10" y="342"/>
      <point x="10" y="295" type="curve"/>
      <point x="136" y="295" type="line"/>
      <point x="136" y="325" type="line" smooth="yes"/>
      <point x="136" y="340"/>
      <point x="141" y="353"/>
      <point x="151" y="363" type="curve" smooth="yes"/>
      <point x="162" y="373"/>
      <point x="176" y="378"/>
      <point x="191" y="378" type="curve" smooth="yes"/>
      <point x="211" y="378"/>
      <point x="227" y="372"/>
      <point x="238" y="361" type="curve" smooth="yes"/>
      <point x="248" y="351"/>
      <point x="253" y="337"/>
      <point x="253" y="320" type="curve" smooth="yes"/>
      <point x="253" y="292"/>
      <point x="222" y="273"/>
      <point x="160" y="263" type="curve" smooth="yes"/>
      <point x="63" y="247"/>
      <point x="14" y="204"/>
      <point x="14" y="133" type="curve" smooth="yes"/>
      <point x="14" y="87"/>
      <point x="30" y="52"/>
      <point x="63" y="29" type="curve" smooth="yes"/>
      <point x="91" y="10"/>
      <point x="129" y="0"/>
      <point x="176" y="0" type="curve" smooth="yes"/>
      <point x="209" y="0"/>
      <point x="235" y="3"/>
      <point x="255" y="10" type="curve" smooth="yes"/>
      <point x="281" y="19"/>
      <point x="301" y="35"/>
      <point x="315" y="56" type="curve"/>
      <point x="328" y="34"/>
      <point x="346" y="19"/>
      <point x="370" y="10" type="curve" smooth="yes"/>
      <point x="390" y="3"/>
      <point x="418" y="0"/>
      <point x="454" y="0" type="curve" smooth="yes"/>
      <point x="522" y="0"/>
      <point x="576" y="17"/>
      <point x="614" y="55" type="curve" smooth="yes"/>
      <point x="655" y="94"/>
      <point x="674" y="153"/>
      <point x="674" y="230" type="curve" smooth="yes"/>
      <point x="674" y="287"/>
      <point x="657" y="333"/>
      <point x="624" y="368" type="curve" smooth="yes"/>
      <point x="607" y="386"/>
      <point x="586" y="400"/>
    </contour>
    <contour>
      <point x="359" y="-136" type="curve" smooth="yes"/>
      <point x="374" y="-125"/>
      <point x="384" y="-106"/>
      <point x="390" y="-79" type="curve"/>
      <point x="390" y="-51"/>
      <point x="382" y="-31"/>
      <point x="366" y="-20" type="curve" smooth="yes"/>
      <point x="355" y="-13"/>
      <point x="340" y="-9"/>
      <point x="320" y="-9" type="curve" smooth="yes"/>
      <point x="305" y="-9"/>
      <point x="293" y="-13"/>
      <point x="283" y="-21" type="curve" smooth="yes"/>
      <point x="267" y="-34"/>
      <point x="259" y="-55"/>
      <point x="259" y="-84" type="curve" smooth="yes"/>
      <point x="259" y="-109"/>
      <point x="265" y="-126"/>
      <point x="278" y="-136" type="curve" smooth="yes"/>
      <point x="287" y="-143"/>
      <point x="300" y="-147"/>
      <point x="318" y="-147" type="curve" smooth="yes"/>
      <point x="335" y="-147"/>
      <point x="349" y="-143"/>
    </contour>
  </outline>
</glyph>
<glyph name="Ma" format="1">
  <advance width="1002"/>
  <unicode hex="0C2E"/>
  <outline>
    <contour>
      <point x="366" y="378" type="line" smooth="yes" name="hr00"/>
      <point x="402" y="378"/>
      <point x="430" y="367"/>
      <point x="451" y="344" type="curve" smooth="yes"/>
      <point x="477" y="317"/>
      <point x="490" y="277"/>
      <point x="490" y="223" type="curve" smooth="yes"/>
      <point x="490" y="164"/>
      <point x="483" y="120"/>
      <point x="470" y="91" type="curve" smooth="yes"/>
      <point x="457" y="64"/>
      <point x="439" y="51"/>
      <point x="415" y="51" type="curve" smooth="yes"/>
      <point x="398" y="51"/>
      <point x="385" y="56"/>
      <point x="378" y="65" type="curve" smooth="yes"/>
      <point x="370" y="77"/>
      <point x="366" y="98"/>
      <point x="366" y="129" type="curve" smooth="yes"/>
      <point x="366" y="185"/>
      <point x="354" y="227"/>
      <point x="329" y="254" type="curve" smooth="yes"/>
      <point x="302" y="285"/>
      <point x="258" y="300"/>
      <point x="198" y="300" type="curve" smooth="yes"/>
      <point x="143" y="300"/>
      <point x="99" y="286"/>
      <point x="64" y="259" type="curve" smooth="yes"/>
      <point x="28" y="230"/>
      <point x="10" y="192"/>
      <point x="10" y="146" type="curve" smooth="yes"/>
      <point x="10" y="101"/>
      <point x="27" y="65"/>
      <point x="60" y="38" type="curve" smooth="yes"/>
      <point x="91" y="13"/>
      <point x="129" y="0"/>
      <point x="176" y="0" type="curve" smooth="yes"/>
      <point x="205" y="0"/>
      <point x="229" y="3"/>
      <point x="248" y="9" type="curve" smooth="yes"/>
      <point x="272" y="16"/>
      <point x="292" y="26"/>
      <point x="309" y="41" type="curve"/>
      <point x="320" y="26"/>
      <point x="334" y="14"/>
      <point x="353" y="6" type="curve"/>
      <point x="370" y="1"/>
      <point x="390" y="-2"/>
      <point x="415" y="-2" type="curve" smooth="yes"/>
      <point x="481" y="-2"/>
      <point x="534" y="14"/>
      <point x="568" y="53" type="curve" smooth="yes"/>
      <point x="582" y="69" type="line"/>
      <point x="591" y="54"/>
      <point x="605" y="41"/>
      <point x="623" y="30" type="curve" smooth="yes"/>
      <point x="656" y="9"/>
      <point x="695" y="-1"/>
      <point x="740" y="-1" type="curve" smooth="yes"/>
      <point x="803" y="-1"/>
      <point x="854" y="19"/>
      <point x="891" y="59" type="curve" smooth="yes"/>
      <point x="930" y="100"/>
      <point x="949" y="153"/>
      <point x="949" y="220" type="curve" smooth="yes"/>
      <point x="949" y="282"/>
      <point x="931" y="332"/>
      <point x="895" y="369" type="curve" smooth="yes"/>
      <point x="859" y="406"/>
      <point x="811" y="425"/>
      <point x="751" y="425" type="curve" smooth="yes"/>
      <point x="709" y="425" type="line"/>
      <point x="709" y="376" type="line"/>
      <point x="742" y="376"/>
      <point x="768" y="362"/>
      <point x="788" y="333" type="curve" smooth="yes"/>
      <point x="808" y="304"/>
      <point x="818" y="264"/>
      <point x="818" y="215" type="curve" smooth="yes"/>
      <point x="818" y="165"/>
      <point x="809" y="125"/>
      <point x="791" y="94" type="curve" smooth="yes"/>
      <point x="773" y="64"/>
      <point x="749" y="49"/>
      <point x="720" y="49" type="curve" smooth="yes"/>
      <point x="687" y="49"/>
      <point x="659" y="62"/>
      <point x="633" y="85" type="curve" smooth="yes"/>
      <point x="623" y="95"/>
      <point x="613" y="105"/>
      <point x="606" y="116" type="curve"/>
      <point x="616" y="144"/>
      <point x="621" y="176"/>
      <point x="621" y="213" type="curve" smooth="yes"/>
      <point x="621" y="284"/>
      <point x="601" y="340"/>
      <point x="558" y="378" type="curve" smooth="yes"/>
      <point x="521" y="411"/>
      <point x="472" y="426"/>
      <point x="414" y="426" type="curve" smooth="yes"/>
      <point x="380" y="426" type="line"/>
      <point x="436" y="457"/>
      <point x="491" y="498"/>
      <point x="545" y="551" type="curve"/>
      <point x="431" y="581" type="line"/>
      <point x="404" y="540"/>
      <point x="373" y="505"/>
      <point x="340" y="476" type="curve" smooth="yes"/>
      <point x="303" y="445"/>
      <point x="271" y="429"/>
      <point x="243" y="429" type="curve" smooth="yes"/>
      <point x="205" y="429"/>
      <point x="179" y="437"/>
      <point x="164" y="453" type="curve"/>
      <point x="151" y="464"/>
      <point x="145" y="482"/>
      <point x="145" y="506" type="curve"/>
      <point x="35" y="506" type="line"/>
      <point x="35" y="459"/>
      <point x="51" y="424"/>
      <point x="84" y="403" type="curve" smooth="yes"/>
      <point x="110" y="386"/>
      <point x="146" y="378"/>
      <point x="193" y="378" type="curve" smooth="yes"/>
    </contour>
    <contour>
      <point x="248" y="219" type="curve" smooth="yes"/>
      <point x="259" y="207"/>
      <point x="265" y="186"/>
      <point x="265" y="155" type="curve" smooth="yes"/>
      <point x="265" y="118"/>
      <point x="258" y="93"/>
      <point x="244" y="79" type="curve" smooth="yes"/>
      <point x="234" y="69"/>
      <point x="219" y="64"/>
      <point x="199" y="64" type="curve" smooth="yes"/>
      <point x="176" y="64"/>
      <point x="160" y="72"/>
      <point x="151" y="88" type="curve" smooth="yes"/>
      <point x="144" y="99"/>
      <point x="141" y="118"/>
      <point x="141" y="144" type="curve" smooth="yes"/>
      <point x="141" y="181"/>
      <point x="147" y="206"/>
      <point x="158" y="219" type="curve" smooth="yes"/>
      <point x="165" y="229"/>
      <point x="179" y="234"/>
      <point x="199" y="234" type="curve" smooth="yes"/>
      <point x="222" y="234"/>
      <point x="238" y="229"/>
    </contour>
  </outline>
</glyph>
<glyph name="Ya" format="1">
  <advance width="1302"/>
  <unicode hex="0C2F"/>
  <outline>
    <contour>
      <point x="636" y="379" type="curve" name="hr00"/>
      <point x="639" y="377"/>
      <point x="644" y="376"/>
      <point x="649" y="376" type="curve" smooth="yes"/>
      <point x="690" y="376"/>
      <point x="720" y="369"/>
      <point x="739" y="355" type="curve" smooth="yes"/>
      <point x="770" y="332"/>
      <point x="786" y="286"/>
      <point x="786" y="218" type="curve" smooth="yes"/>
      <point x="786" y="155"/>
      <point x="772" y="110"/>
      <point x="745" y="81" type="curve" smooth="yes"/>
      <point x="724" y="60"/>
      <point x="696" y="49"/>
      <point x="661" y="49" type="curve" smooth="yes"/>
      <point x="624" y="49"/>
      <point x="598" y="64"/>
      <point x="583" y="93" type="curve" smooth="yes"/>
      <point x="573" y="112"/>
      <point x="567" y="137"/>
      <point x="568" y="168" type="curve" smooth="yes"/>
      <point x="570" y="216" type="line" smooth="yes"/>
      <point x="573" y="282"/>
      <point x="545" y="334"/>
      <point x="496" y="371" type="curve" smooth="yes"/>
      <point x="449" y="407"/>
      <point x="384" y="425"/>
      <point x="301" y="425" type="curve" smooth="yes"/>
      <point x="201" y="425"/>
      <point x="127" y="405"/>
      <point x="78" y="366" type="curve" smooth="yes"/>
      <point x="33" y="331"/>
      <point x="10" y="281"/>
      <point x="10" y="216" type="curve" smooth="yes"/>
      <point x="10" y="145"/>
      <point x="35" y="91"/>
      <point x="84" y="54" type="curve" smooth="yes"/>
      <point x="131" y="18"/>
      <point x="199" y="0"/>
      <point x="288" y="0" type="curve" smooth="yes"/>
      <point x="333" y="0"/>
      <point x="375" y="5"/>
      <point x="414" y="18" type="curve" smooth="yes"/>
      <point x="455" y="31"/>
      <point x="489" y="52"/>
      <point x="515" y="78" type="curve"/>
      <point x="524" y="51"/>
      <point x="544" y="31"/>
      <point x="575" y="18" type="curve" smooth="yes"/>
      <point x="604" y="5"/>
      <point x="639" y="-1"/>
      <point x="681" y="-1" type="curve" smooth="yes"/>
      <point x="744" y="-1"/>
      <point x="795" y="14"/>
      <point x="836" y="43" type="curve" smooth="yes"/>
      <point x="849" y="52"/>
      <point x="861" y="63"/>
      <point x="872" y="75" type="curve"/>
      <point x="881" y="58"/>
      <point x="896" y="43"/>
      <point x="916" y="30" type="curve" smooth="yes"/>
      <point x="949" y="9"/>
      <point x="989" y="-1"/>
      <point x="1034" y="-1" type="curve" smooth="yes"/>
      <point x="1097" y="-1"/>
      <point x="1148" y="19"/>
      <point x="1185" y="59" type="curve" smooth="yes"/>
      <point x="1224" y="100"/>
      <point x="1243" y="153"/>
      <point x="1243" y="220" type="curve" smooth="yes"/>
      <point x="1243" y="282"/>
      <point x="1225" y="332"/>
      <point x="1189" y="369" type="curve" smooth="yes"/>
      <point x="1153" y="406"/>
      <point x="1105" y="425"/>
      <point x="1045" y="425" type="curve" smooth="yes"/>
      <point x="1003" y="425" type="line"/>
      <point x="1003" y="376" type="line"/>
      <point x="1035" y="376"/>
      <point x="1061" y="362"/>
      <point x="1081" y="333" type="curve" smooth="yes"/>
      <point x="1101" y="304"/>
      <point x="1111" y="264"/>
      <point x="1111" y="215" type="curve" smooth="yes"/>
      <point x="1111" y="165"/>
      <point x="1103" y="125"/>
      <point x="1085" y="94" type="curve" smooth="yes"/>
      <point x="1068" y="64"/>
      <point x="1043" y="49"/>
      <point x="1014" y="49" type="curve" smooth="yes"/>
      <point x="981" y="49"/>
      <point x="951" y="61"/>
      <point x="926" y="85" type="curve" smooth="yes"/>
      <point x="915" y="95"/>
      <point x="906" y="106"/>
      <point x="899" y="118" type="curve"/>
      <point x="912" y="147"/>
      <point x="918" y="181"/>
      <point x="918" y="220" type="curve" smooth="yes"/>
      <point x="918" y="285"/>
      <point x="894" y="335"/>
      <point x="846" y="371" type="curve" smooth="yes"/>
      <point x="823" y="388"/>
      <point x="795" y="402"/>
      <point x="762" y="411" type="curve"/>
      <point x="799" y="430" type="line" smooth="yes"/>
      <point x="853" y="458"/>
      <point x="906" y="502"/>
      <point x="960" y="556" type="curve"/>
      <point x="834" y="589" type="line"/>
      <point x="807" y="549"/>
      <point x="773" y="512"/>
      <point x="731" y="479" type="curve" smooth="yes"/>
      <point x="687" y="443"/>
      <point x="651" y="425"/>
      <point x="623" y="425" type="curve" smooth="yes"/>
      <point x="605" y="425"/>
      <point x="591" y="433"/>
      <point x="579" y="450" type="curve" smooth="yes"/>
      <point x="567" y="467"/>
      <point x="560" y="487"/>
      <point x="560" y="511" type="curve"/>
      <point x="450" y="511" type="line"/>
      <point x="450" y="464"/>
      <point x="468" y="428"/>
      <point x="504" y="405" type="curve" smooth="yes"/>
      <point x="533" y="387"/>
      <point x="572" y="378"/>
      <point x="619" y="378" type="curve" smooth="yes"/>
      <point x="625" y="378"/>
      <point x="631" y="378"/>
    </contour>
    <contour>
      <point x="405" y="338" type="curve" smooth="yes"/>
      <point x="428" y="312"/>
      <point x="439" y="273"/>
      <point x="439" y="221" type="curve" smooth="yes"/>
      <point x="439" y="164"/>
      <point x="427" y="121"/>
      <point x="403" y="93" type="curve" smooth="yes"/>
      <point x="378" y="64"/>
      <point x="339" y="49"/>
      <point x="288" y="49" type="curve" smooth="yes"/>
      <point x="236" y="49"/>
      <point x="198" y="63"/>
      <point x="174" y="90" type="curve" smooth="yes"/>
      <point x="152" y="116"/>
      <point x="141" y="155"/>
      <point x="141" y="206" type="curve" smooth="yes"/>
      <point x="141" y="266"/>
      <point x="153" y="309"/>
      <point x="176" y="336" type="curve" smooth="yes"/>
      <point x="201" y="364"/>
      <point x="241" y="378"/>
      <point x="296" y="378" type="curve" smooth="yes"/>
      <point x="345" y="378"/>
      <point x="382" y="365"/>
    </contour>
  </outline>
</glyph>
<glyph name="Ra" format="1">
  <advance width="626"/>
  <unicode hex="0C30"/>
  <outline>
    <contour>
      <point x="420" y="408" type="curve" name="hr00"/>
      <point x="435" y="414"/>
      <point x="450" y="421"/>
      <point x="465" y="430" type="curve" smooth="yes"/>
      <point x="518" y="460"/>
      <point x="572" y="502"/>
      <point x="626" y="556" type="curve"/>
      <point x="500" y="589" type="line"/>
      <point x="473" y="549"/>
      <point x="440" y="512"/>
      <point x="399" y="479" type="curve" smooth="yes"/>
      <point x="354" y="443"/>
      <point x="317" y="425"/>
      <point x="289" y="425" type="curve" smooth="yes"/>
      <point x="272" y="425"/>
      <point x="257" y="433"/>
      <point x="245" y="450" type="curve" smooth="yes"/>
      <point x="232" y="467"/>
      <point x="226" y="487"/>
      <point x="226" y="511" type="curve"/>
      <point x="116" y="511" type="line"/>
      <point x="116" y="467"/>
      <point x="132" y="433"/>
      <point x="163" y="410" type="curve"/>
      <point x="128" y="400"/>
      <point x="99" y="385"/>
      <point x="76" y="366" type="curve" smooth="yes"/>
      <point x="32" y="331"/>
      <point x="10" y="281"/>
      <point x="10" y="216" type="curve" smooth="yes"/>
      <point x="10" y="145"/>
      <point x="35" y="91"/>
      <point x="84" y="54" type="curve" smooth="yes"/>
      <point x="131" y="18"/>
      <point x="200" y="0"/>
      <point x="289" y="0" type="curve" smooth="yes"/>
      <point x="366" y="0"/>
      <point x="430" y="16"/>
      <point x="480" y="49" type="curve" smooth="yes"/>
      <point x="539" y="87"/>
      <point x="569" y="143"/>
      <point x="570" y="216" type="curve" smooth="yes"/>
      <point x="570" y="283"/>
      <point x="545" y="334"/>
      <point x="495" y="371" type="curve" smooth="yes"/>
      <point x="474" y="386"/>
      <point x="449" y="399"/>
    </contour>
    <contour>
      <point x="405" y="338" type="curve" smooth="yes"/>
      <point x="428" y="313"/>
      <point x="439" y="274"/>
      <point x="439" y="221" type="curve" smooth="yes"/>
      <point x="439" y="164"/>
      <point x="427" y="121"/>
      <point x="403" y="93" type="curve" smooth="yes"/>
      <point x="378" y="64"/>
      <point x="339" y="49"/>
      <point x="288" y="49" type="curve" smooth="yes"/>
      <point x="236" y="49"/>
      <point x="198" y="63"/>
      <point x="174" y="90" type="curve" smooth="yes"/>
      <point x="152" y="116"/>
      <point x="141" y="155"/>
      <point x="141" y="206" type="curve" smooth="yes"/>
      <point x="141" y="265"/>
      <point x="153" y="309"/>
      <point x="176" y="336" type="curve" smooth="yes"/>
      <point x="199" y="364"/>
      <point x="237" y="378"/>
      <point x="290" y="378" type="curve" smooth="yes"/>
      <point x="343" y="378"/>
      <point x="381" y="365"/>
    </contour>
  </outline>
</glyph>
<glyph name="Va" format="1">
  <advance width="676"/>
  <unicode hex="0C35"/>
  <outline>
    <contour>
      <point x="380" y="426" type="line" name="hr00"/>
      <point x="436" y="457"/>
      <point x="491" y="498"/>
      <point x="545" y="551" type="curve"/>
      <point x="431" y="581" type="line"/>
      <point x="404" y="540"/>
      <point x="373" y="505"/>
      <point x="340" y="476" type="curve" smooth="yes"/>
      <point x="303" y="445"/>
      <point x="271" y="429"/>
      <point x="243" y="429" type="curve" smooth="yes"/>
      <point x="205" y="429"/>
      <point x="179" y="437"/>
      <point x="164" y="453" type="curve"/>
      <point x="151" y="464"/>
      <point x="145" y="482"/>
      <point x="145" y="506" type="curve"/>
      <point x="35" y="506" type="line"/>
      <point x="35" y="459"/>
      <point x="51" y="424"/>
      <point x="84" y="403" type="curve" smooth="yes"/>
      <point x="110" y="386"/>
      <point x="146" y="378"/>
      <point x="193" y="378" type="curve" smooth="yes"/>
      <point x="366" y="378" type="line" smooth="yes"/>
      <point x="402" y="378"/>
      <point x="430" y="367"/>
      <point x="451" y="344" type="curve" smooth="yes"/>
      <point x="477" y="317"/>
      <point x="490" y="277"/>
      <point x="490" y="223" type="curve" smooth="yes"/>
      <point x="490" y="164"/>
      <point x="483" y="120"/>
      <point x="470" y="91" type="curve" smooth="yes"/>
      <point x="457" y="64"/>
      <point x="439" y="51"/>
      <point x="415" y="51" type="curve" smooth="yes"/>
      <point x="398" y="51"/>
      <point x="385" y="56"/>
      <point x="378" y="65" type="curve" smooth="yes"/>
      <point x="370" y="77"/>
      <point x="366" y="98"/>
      <point x="366" y="129" type="curve" smooth="yes"/>
      <point x="366" y="185"/>
      <point x="354" y="227"/>
      <point x="329" y="254" type="curve" smooth="yes"/>
      <point x="302" y="285"/>
      <point x="258" y="300"/>
      <point x="198" y="300" type="curve" smooth="yes"/>
      <point x="143" y="300"/>
      <point x="99" y="286"/>
      <point x="64" y="259" type="curve" smooth="yes"/>
      <point x="28" y="230"/>
      <point x="10" y="192"/>
      <point x="10" y="146" type="curve" smooth="yes"/>
      <point x="10" y="101"/>
      <point x="27" y="65"/>
      <point x="60" y="38" type="curve" smooth="yes"/>
      <point x="91" y="13"/>
      <point x="129" y="0"/>
      <point x="176" y="0" type="curve" smooth="yes"/>
      <point x="205" y="0"/>
      <point x="229" y="3"/>
      <point x="248" y="9" type="curve" smooth="yes"/>
      <point x="272" y="16"/>
      <point x="292" y="26"/>
      <point x="309" y="41" type="curve"/>
      <point x="320" y="26"/>
      <point x="334" y="14"/>
      <point x="353" y="6" type="curve"/>
      <point x="370" y="1"/>
      <point x="390" y="-2"/>
      <point x="415" y="-2" type="curve" smooth="yes"/>
      <point x="481" y="-2"/>
      <point x="532" y="16"/>
      <point x="568" y="53" type="curve" smooth="yes"/>
      <point x="603" y="90"/>
      <point x="621" y="143"/>
      <point x="621" y="213" type="curve" smooth="yes"/>
      <point x="621" y="284"/>
      <point x="601" y="340"/>
      <point x="558" y="378" type="curve" smooth="yes"/>
      <point x="521" y="411"/>
      <point x="472" y="426"/>
      <point x="414" y="426" type="curve" smooth="yes"/>
    </contour>
    <contour>
      <point x="248" y="219" type="curve" smooth="yes"/>
      <point x="259" y="207"/>
      <point x="265" y="186"/>
      <point x="265" y="155" type="curve" smooth="yes"/>
      <point x="265" y="118"/>
      <point x="258" y="93"/>
      <point x="244" y="79" type="curve" smooth="yes"/>
      <point x="234" y="69"/>
      <point x="219" y="64"/>
      <point x="199" y="64" type="curve" smooth="yes"/>
      <point x="176" y="64"/>
      <point x="160" y="72"/>
      <point x="151" y="88" type="curve" smooth="yes"/>
      <point x="144" y="99"/>
      <point x="141" y="118"/>
      <point x="141" y="144" type="curve" smooth="yes"/>
      <point x="141" y="181"/>
      <point x="147" y="206"/>
      <point x="158" y="219" type="curve" smooth="yes"/>
      <point x="165" y="229"/>
      <point x="179" y="234"/>
      <point x="199" y="234" type="curve" smooth="yes"/>
      <point x="222" y="234"/>
      <point x="238" y="229"/>
    </contour>
  </outline>
</glyph>
<glyph name="Avagraha" format="1">
  <advance width="778"/>
  <unicode hex="0C3D"/>
  <outline>
    <contour>
      <point x="37" y="83" type="curve" smooth="yes" name="hr00"/>
      <point x="37" y="51"/>
      <point x="50" y="25"/>
      <point x="78" y="7" type="curve" smooth="yes"/>
      <point x="105" y="-11"/>
      <point x="145" y="-19"/>
      <point x="194" y="-19" type="curve" smooth="yes"/>
      <point x="771" y="-19" type="line"/>
      <point x="771" y="31" type="line"/>
      <point x="252" y="31" type="line" smooth="yes"/>
      <point x="227" y="31"/>
      <point x="207" y="36"/>
      <point x="192" y="47" type="curve" smooth="yes"/>
      <point x="177" y="57"/>
      <point x="169" y="71"/>
      <point x="169" y="89" type="curve" smooth="yes"/>
      <point x="169" y="106"/>
      <point x="177" y="121"/>
      <point x="193" y="132" type="curve" smooth="yes"/>
      <point x="210" y="143"/>
      <point x="239" y="153"/>
      <point x="280" y="161" type="curve" smooth="yes"/>
      <point x="336" y="172"/>
      <point x="375" y="185"/>
      <point x="397" y="202" type="curve" smooth="yes"/>
      <point x="420" y="221"/>
      <point x="431" y="248"/>
      <point x="431" y="284" type="curve" smooth="yes"/>
      <point x="431" y="325"/>
      <point x="415" y="358"/>
      <point x="382" y="381" type="curve" smooth="yes"/>
      <point x="349" y="404"/>
      <point x="303" y="415"/>
      <point x="243" y="415" type="curve" smooth="yes"/>
      <point x="171" y="415"/>
      <point x="118" y="405"/>
      <point x="84" y="387" type="curve" smooth="yes"/>
      <point x="51" y="369"/>
      <point x="34" y="342"/>
      <point x="34" y="303" type="curve" smooth="yes"/>
      <point x="34" y="286"/>
      <point x="41" y="271"/>
      <point x="54" y="259" type="curve" smooth="yes"/>
      <point x="67" y="246"/>
      <point x="84" y="240"/>
      <point x="103" y="240" type="curve" smooth="yes"/>
      <point x="210" y="240" type="line"/>
      <point x="210" y="278" type="line"/>
      <point x="192" y="278" type="line" smooth="yes"/>
      <point x="185" y="278"/>
      <point x="179" y="281"/>
      <point x="174" y="288" type="curve" smooth="yes"/>
      <point x="169" y="295"/>
      <point x="166" y="304"/>
      <point x="166" y="314" type="curve" smooth="yes"/>
      <point x="166" y="329"/>
      <point x="173" y="342"/>
      <point x="186" y="351" type="curve" smooth="yes"/>
      <point x="200" y="360"/>
      <point x="218" y="365"/>
      <point x="241" y="365" type="curve" smooth="yes"/>
      <point x="268" y="365"/>
      <point x="290" y="358"/>
      <point x="305" y="343" type="curve" smooth="yes"/>
      <point x="320" y="329"/>
      <point x="328" y="309"/>
      <point x="328" y="284" type="curve" smooth="yes"/>
      <point x="328" y="257"/>
      <point x="319" y="237"/>
      <point x="302" y="224" type="curve" smooth="yes"/>
      <point x="285" y="211"/>
      <point x="254" y="202"/>
      <point x="209" y="195" type="curve" smooth="yes"/>
      <point x="148" y="186"/>
      <point x="104" y="173"/>
      <point x="77" y="156" type="curve" smooth="yes"/>
      <point x="50" y="138"/>
      <point x="37" y="114"/>
    </contour>
  </outline>
</glyph>
<glyph name="UMatra" format="1">
  <advance width="329"/>
  <unicode hex="0C41"/>
  <outline>
    <contour>
      <point x="295" y="202" type="curve" smooth="yes" name="hr00"/>
      <point x="295" y="265"/>
      <point x="277" y="315"/>
      <point x="241" y="352" type="curve" smooth="yes"/>
      <point x="204" y="390"/>
      <point x="156" y="409"/>
      <point x="96" y="409" type="curve" smooth="yes"/>
      <point x="53" y="409" type="line"/>
      <point x="53" y="360" type="line"/>
      <point x="86" y="360"/>
      <point x="112" y="345"/>
      <point x="132" y="316" type="curve" smooth="yes"/>
      <point x="153" y="287"/>
      <point x="163" y="247"/>
      <point x="163" y="197" type="curve" smooth="yes"/>
      <point x="163" y="147"/>
      <point x="155" y="106"/>
      <point x="136" y="75" type="curve" smooth="yes"/>
      <point x="118" y="45"/>
      <point x="93" y="30"/>
      <point x="64" y="30" type="curve" smooth="yes"/>
      <point x="31" y="30"/>
      <point x="1" y="43"/>
      <point x="-24" y="66" type="curve" smooth="yes"/>
      <point x="-50" y="90"/>
      <point x="-66" y="120"/>
      <point x="-73" y="157" type="curve"/>
      <point x="-92" y="91" type="line"/>
      <point x="-86" y="58"/>
      <point x="-67" y="32"/>
      <point x="-34" y="11" type="curve" smooth="yes"/>
      <point x="-1" y="-10"/>
      <point x="39" y="-21"/>
      <point x="84" y="-21" type="curve" smooth="yes"/>
      <point x="148" y="-21"/>
      <point x="199" y="-1"/>
      <point x="237" y="40" type="curve" smooth="yes"/>
      <point x="276" y="81"/>
      <point x="295" y="135"/>
    </contour>
  </outline>
</glyph>
<glyph name="UUMatra" format="1">
  <advance width="691"/>
  <unicode hex="0C42"/>
  <outline>
    <contour>
      <point x="560" y="210" type="curve" smooth="yes" name="hr00"/>
      <point x="560" y="185"/>
      <point x="556" y="167"/>
      <point x="549" y="156" type="curve" smooth="yes"/>
      <point x="540" y="144"/>
      <point x="527" y="138"/>
      <point x="510" y="138" type="curve" smooth="yes"/>
      <point x="493" y="138"/>
      <point x="481" y="143"/>
      <point x="472" y="154" type="curve"/>
      <point x="465" y="165"/>
      <point x="461" y="179"/>
      <point x="461" y="198" type="curve" smooth="yes"/>
      <point x="461" y="225"/>
      <point x="464" y="243"/>
      <point x="469" y="253" type="curve" smooth="yes"/>
      <point x="477" y="266"/>
      <point x="491" y="272"/>
      <point x="510" y="272" type="curve" smooth="yes"/>
      <point x="527" y="272"/>
      <point x="540" y="266"/>
      <point x="549" y="254" type="curve" smooth="yes"/>
      <point x="556" y="244"/>
      <point x="560" y="229"/>
    </contour>
    <contour>
      <point x="456" y="352" type="line" smooth="yes"/>
      <point x="496" y="352"/>
      <point x="523" y="347"/>
      <point x="537" y="338" type="curve"/>
      <point x="548" y="333"/>
      <point x="555" y="321"/>
      <point x="558" y="302" type="curve"/>
      <point x="549" y="308"/>
      <point x="536" y="312"/>
      <point x="519" y="314" type="curve" smooth="yes"/>
      <point x="508" y="315"/>
      <point x="495" y="316"/>
      <point x="478" y="316" type="curve" smooth="yes"/>
      <point x="444" y="316"/>
      <point x="416" y="305"/>
      <point x="393" y="284" type="curve" smooth="yes"/>
      <point x="370" y="263"/>
      <point x="359" y="235"/>
      <point x="359" y="198" type="curve" smooth="yes"/>
      <point x="359" y="165"/>
      <point x="373" y="139"/>
      <point x="400" y="119" type="curve" smooth="yes"/>
      <point x="427" y="100"/>
      <point x="462" y="90"/>
      <point x="506" y="90" type="curve" smooth="yes"/>
      <point x="553" y="90"/>
      <point x="591" y="103"/>
      <point x="618" y="130" type="curve" smooth="yes"/>
      <point x="647" y="160"/>
      <point x="662" y="201"/>
      <point x="662" y="254" type="curve" smooth="yes"/>
      <point x="662" y="305"/>
      <point x="645" y="344"/>
      <point x="611" y="371" type="curve" smooth="yes"/>
      <point x="580" y="396"/>
      <point x="537" y="409"/>
      <point x="483" y="409" type="curve" smooth="yes"/>
      <point x="52" y="409" type="line"/>
      <point x="52" y="360" type="line"/>
      <point x="87" y="360"/>
      <point x="113" y="350"/>
      <point x="132" y="330" type="curve" smooth="yes"/>
      <point x="157" y="303"/>
      <point x="170" y="259"/>
      <point x="170" y="197" type="curve" smooth="yes"/>
      <point x="170" y="142"/>
      <point x="161" y="100"/>
      <point x="143" y="71" type="curve" smooth="yes"/>
      <point x="126" y="44"/>
      <point x="100" y="30"/>
      <point x="66" y="30" type="curve" smooth="yes"/>
      <point x="33" y="30"/>
      <point x="3" y="43"/>
      <point x="-22" y="66" type="curve" smooth="yes"/>
      <point x="-48" y="90"/>
      <point x="-64" y="120"/>
      <point x="-71" y="157" type="curve"/>
      <point x="-90" y="91" type="line"/>
      <point x="-84" y="58"/>
      <point x="-65" y="32"/>
      <point x="-32" y="11" type="curve" smooth="yes"/>
      <point x="1" y="-10"/>
      <point x="41" y="-21"/>
      <point x="86" y="-21" type="curve" smooth="yes"/>
      <point x="152" y="-21"/>
      <point x="204" y="-1"/>
      <point x="243" y="40" type="curve" smooth="yes"/>
      <point x="282" y="81"/>
      <point x="302" y="135"/>
      <point x="302" y="202" type="curve" smooth="yes"/>
      <point x="302" y="231"/>
      <point x="299" y="259"/>
      <point x="291" y="284" type="curve" smooth="yes"/>
      <point x="283" y="311"/>
      <point x="270" y="333"/>
      <point x="254" y="352" type="curve"/>
    </contour>
  </outline>
</glyph>
<glyph name="RRMatra" format="1">
  <advance width="566"/>
  <unicode hex="0C44"/>
  <outline>
    <contour>
      <point x="-12" y="-120" type="curve" smooth="yes" name="hr00"/>
      <point x="-12" y="-136"/>
      <point x="-15" y="-148"/>
      <point x="-20" y="-156" type="curve"/>
      <point x="-26" y="-163"/>
      <point x="-35" y="-167"/>
      <point x="-47" y="-167" type="curve" smooth="yes"/>
      <point x="-58" y="-167"/>
      <point x="-67" y="-164"/>
      <point x="-73" y="-157" type="curve" smooth="yes"/>
      <point x="-79" y="-150"/>
      <point x="-82" y="-141"/>
      <point x="-82" y="-129" type="curve" smooth="yes"/>
      <point x="-82" y="-113"/>
      <point x="-80" y="-102"/>
      <point x="-76" y="-95" type="curve" smooth="yes"/>
      <point x="-70" y="-86"/>
      <point x="-60" y="-82"/>
      <point x="-47" y="-82" type="curve" smooth="yes"/>
      <point x="-35" y="-82"/>
      <point x="-26" y="-86"/>
      <point x="-20" y="-94" type="curve" smooth="yes"/>
      <point x="-15" y="-100"/>
      <point x="-12" y="-109"/>
    </contour>
    <contour>
      <point x="461" y="-30" type="curve" smooth="yes"/>
      <point x="461" y="-51"/>
      <point x="458" y="-67"/>
      <point x="451" y="-77" type="curve" smooth="yes"/>
      <point x="444" y="-88"/>
      <point x="433" y="-93"/>
      <point x="417" y="-93" type="curve" smooth="yes"/>
      <point x="402" y="-93"/>
      <point x="390" y="-88"/>
      <point x="383" y="-79" type="curve" smooth="yes"/>
      <point x="376" y="-70"/>
      <point x="373" y="-57"/>
      <point x="373" y="-40" type="curve" smooth="yes"/>
      <point x="373" y="-17"/>
      <point x="376" y="-1"/>
      <point x="382" y="8" type="curve" smooth="yes"/>
      <point x="389" y="19"/>
      <point x="400" y="25"/>
      <point x="417" y="25" type="curve" smooth="yes"/>
      <point x="433" y="25"/>
      <point x="444" y="20"/>
      <point x="451" y="9" type="curve"/>
      <point x="458" y="1"/>
      <point x="461" y="-12"/>
    </contour>
    <contour>
      <point x="239" y="-74" type="curve" smooth="yes"/>
      <point x="239" y="-36"/>
      <point x="234" y="-3"/>
      <point x="224" y="26" type="curve" smooth="yes"/>
      <point x="214" y="53"/>
      <point x="198" y="76"/>
      <point x="177" y="95" type="curve"/>
      <point x="369" y="95" type="line" smooth="yes"/>
      <point x="404" y="95"/>
      <point x="428" y="91"/>
      <point x="441" y="83" type="curve" smooth="yes"/>
      <point x="449" y="78"/>
      <point x="455" y="67"/>
      <point x="458" y="51" type="curve"/>
      <point x="451" y="57"/>
      <point x="439" y="61"/>
      <point x="424" y="62" type="curve" smooth="yes"/>
      <point x="416" y="63"/>
      <point x="404" y="64"/>
      <point x="389" y="64" type="curve" smooth="yes"/>
      <point x="356" y="64"/>
      <point x="330" y="56"/>
      <point x="311" y="41" type="curve" smooth="yes"/>
      <point x="291" y="24"/>
      <point x="281" y="-3"/>
      <point x="281" y="-40" type="curve" smooth="yes"/>
      <point x="281" y="-68"/>
      <point x="293" y="-91"/>
      <point x="317" y="-108" type="curve" smooth="yes"/>
      <point x="342" y="-125"/>
      <point x="374" y="-134"/>
      <point x="413" y="-134" type="curve" smooth="yes"/>
      <point x="454" y="-134"/>
      <point x="487" y="-122"/>
      <point x="511" y="-99" type="curve" smooth="yes"/>
      <point x="537" y="-74"/>
      <point x="550" y="-38"/>
      <point x="550" y="9" type="curve" smooth="yes"/>
      <point x="550" y="54"/>
      <point x="535" y="88"/>
      <point x="505" y="113" type="curve" smooth="yes"/>
      <point x="477" y="135"/>
      <point x="440" y="146"/>
      <point x="393" y="146" type="curve" smooth="yes"/>
      <point x="7" y="146" type="line"/>
      <point x="7" y="98" type="line"/>
      <point x="54" y="98"/>
      <point x="87" y="89"/>
      <point x="107" y="71" type="curve" smooth="yes"/>
      <point x="136" y="45"/>
      <point x="151" y="-5"/>
      <point x="151" y="-79" type="curve" smooth="yes"/>
      <point x="151" y="-132"/>
      <point x="138" y="-173"/>
      <point x="112" y="-200" type="curve" smooth="yes"/>
      <point x="89" y="-223"/>
      <point x="59" y="-235"/>
      <point x="21" y="-235" type="curve" smooth="yes"/>
      <point x="-1" y="-235"/>
      <point x="-21" y="-231"/>
      <point x="-39" y="-224" type="curve" smooth="yes"/>
      <point x="-61" y="-215"/>
      <point x="-72" y="-204"/>
      <point x="-72" y="-191" type="curve"/>
      <point x="-59" y="-198"/>
      <point x="-44" y="-202"/>
      <point x="-27" y="-202" type="curve" smooth="yes"/>
      <point x="-1" y="-202"/>
      <point x="21" y="-197"/>
      <point x="38" y="-186" type="curve" smooth="yes"/>
      <point x="57" y="-173"/>
      <point x="67" y="-153"/>
      <point x="67" y="-127" type="curve" smooth="yes"/>
      <point x="67" y="-102"/>
      <point x="56" y="-84"/>
      <point x="35" y="-71" type="curve" smooth="yes"/>
      <point x="16" y="-60"/>
      <point x="-10" y="-54"/>
      <point x="-42" y="-54" type="curve" smooth="yes"/>
      <point x="-80" y="-54"/>
      <point x="-108" y="-62"/>
      <point x="-127" y="-77" type="curve" smooth="yes"/>
      <point x="-148" y="-95"/>
      <point x="-159" y="-122"/>
      <point x="-159" y="-157" type="curve" smooth="yes"/>
      <point x="-159" y="-197"/>
      <point x="-141" y="-226"/>
      <point x="-105" y="-246" type="curve" smooth="yes"/>
      <point x="-76" y="-262"/>
      <point x="-37" y="-271"/>
      <point x="10" y="-271" type="curve" smooth="yes"/>
      <point x="78" y="-271"/>
      <point x="131" y="-258"/>
      <point x="169" y="-231" type="curve" smooth="yes"/>
      <point x="216" y="-198"/>
      <point x="239" y="-146"/>
    </contour>
  </outline>
</glyph>
<glyph name="uni0C46" format="1">
  <advance width="0"/>
  <unicode hex="0C46"/>
  <outline>
    <contour>
      <point x="263" y="458" type="curve" smooth="yes" name="hr00"/>
      <point x="263" y="481"/>
      <point x="255" y="502"/>
      <point x="239" y="521" type="curve" smooth="yes"/>
      <point x="222" y="541"/>
      <point x="200" y="554"/>
      <point x="171" y="560" type="curve"/>
      <point x="-295" y="560" type="line"/>
      <point x="-295" y="502" type="line"/>
      <point x="109" y="502" type="line" smooth="yes"/>
      <point x="122" y="502"/>
      <point x="131" y="499"/>
      <point x="138" y="492" type="curve" smooth="yes"/>
      <point x="146" y="485"/>
      <point x="150" y="474"/>
      <point x="150" y="458" type="curve" smooth="yes"/>
      <point x="150" y="448"/>
      <point x="146" y="439"/>
      <point x="138" y="430" type="curve" smooth="yes"/>
      <point x="134" y="426"/>
      <point x="126" y="419"/>
      <point x="113" y="410" type="curve"/>
      <point x="-124" y="410" type="line"/>
      <point x="-124" y="361" type="line"/>
      <point x="166" y="361" type="line" smooth="yes"/>
      <point x="192" y="361"/>
      <point x="214" y="369"/>
      <point x="232" y="384" type="curve" smooth="yes"/>
      <point x="253" y="401"/>
      <point x="263" y="426"/>
    </contour>
  </outline>
</glyph>
<glyph name="AIMatra" format="1">
  <advance width="795"/>
  <unicode hex="0C48"/>
  <outline>
    <contour>
      <point x="732" y="445" type="curve" smooth="yes" name="hr00"/>
      <point x="732" y="469"/>
      <point x="724" y="490"/>
      <point x="708" y="507" type="curve" smooth="yes"/>
      <point x="691" y="526"/>
      <point x="669" y="535"/>
      <point x="640" y="535" type="curve" smooth="yes"/>
      <point x="174" y="535" type="line"/>
      <point x="174" y="477" type="line"/>
      <point x="578" y="477" type="line" smooth="yes"/>
      <point x="591" y="477"/>
      <point x="600" y="474"/>
      <point x="607" y="469" type="curve" smooth="yes"/>
      <point x="615" y="464"/>
      <point x="619" y="456"/>
      <point x="619" y="445" type="curve" smooth="yes"/>
      <point x="619" y="434"/>
      <point x="615" y="426"/>
      <point x="607" y="419" type="curve" smooth="yes"/>
      <point x="600" y="413"/>
      <point x="591" y="410"/>
      <point x="582" y="410" type="curve" smooth="yes"/>
      <point x="257" y="410" type="line"/>
      <point x="257" y="360" type="line"/>
      <point x="635" y="360" type="line" smooth="yes"/>
      <point x="660" y="360"/>
      <point x="682" y="367"/>
      <point x="701" y="381" type="curve" smooth="yes"/>
      <point x="722" y="397"/>
      <point x="732" y="418"/>
    </contour>
    <contour>
      <point x="241" y="-249" type="curve" smooth="yes"/>
      <point x="241" y="-266"/>
      <point x="236" y="-277"/>
      <point x="226" y="-284" type="curve" smooth="yes"/>
      <point x="218" y="-290"/>
      <point x="207" y="-293"/>
      <point x="193" y="-293" type="curve" smooth="yes"/>
      <point x="178" y="-293"/>
      <point x="166" y="-289"/>
      <point x="158" y="-282" type="curve" smooth="yes"/>
      <point x="150" y="-274"/>
      <point x="146" y="-263"/>
      <point x="146" y="-249" type="curve" smooth="yes"/>
      <point x="146" y="-236"/>
      <point x="150" y="-225"/>
      <point x="158" y="-217" type="curve" smooth="yes"/>
      <point x="166" y="-209"/>
      <point x="178" y="-205"/>
      <point x="193" y="-205" type="curve" smooth="yes"/>
      <point x="208" y="-205"/>
      <point x="219" y="-209"/>
      <point x="228" y="-217" type="curve" smooth="yes"/>
      <point x="237" y="-225"/>
      <point x="241" y="-236"/>
    </contour>
    <contour>
      <point x="699" y="-293" type="line"/>
      <point x="310" y="-293" type="line"/>
      <point x="315" y="-288"/>
      <point x="319" y="-280"/>
      <point x="320" y="-271" type="curve"/>
      <point x="324" y="-263"/>
      <point x="324" y="-254"/>
      <point x="324" y="-245" type="curve" smooth="yes"/>
      <point x="324" y="-219"/>
      <point x="309" y="-199"/>
      <point x="280" y="-186" type="curve" smooth="yes"/>
      <point x="257" y="-176"/>
      <point x="231" y="-171"/>
      <point x="200" y="-171" type="curve" smooth="yes"/>
      <point x="163" y="-171"/>
      <point x="133" y="-177"/>
      <point x="110" y="-188" type="curve" smooth="yes"/>
      <point x="79" y="-203"/>
      <point x="63" y="-229"/>
      <point x="63" y="-264" type="curve" smooth="yes"/>
      <point x="63" y="-290"/>
      <point x="74" y="-311"/>
      <point x="96" y="-327" type="curve" smooth="yes"/>
      <point x="118" y="-342"/>
      <point x="146" y="-350"/>
      <point x="181" y="-350" type="curve" smooth="yes"/>
      <point x="699" y="-350" type="line"/>
    </contour>
  </outline>
</glyph>
<glyph name="Halanth" format="1">
  <advance width="0"/>
  <unicode hex="0C4D"/>
  <outline>
    <contour>
      <point x="349" y="641" type="line" name="hr00"/>
      <point x="-67" y="641" type="line" smooth="yes"/>
      <point x="-93" y="641"/>
      <point x="-115" y="633"/>
      <point x="-132" y="617" type="curve" smooth="yes"/>
      <point x="-151" y="600"/>
      <point x="-160" y="581"/>
      <point x="-160" y="558" type="curve" smooth="yes"/>
      <point x="-160" y="544"/>
      <point x="-156" y="531"/>
      <point x="-149" y="519" type="curve" smooth="yes"/>
      <point x="-142" y="506"/>
      <point x="-131" y="496"/>
      <point x="-117" y="488" type="curve"/>
      <point x="-131" y="487"/>
      <point x="-142" y="482"/>
      <point x="-150" y="471" type="curve" smooth="yes"/>
      <point x="-159" y="459"/>
      <point x="-164" y="445"/>
      <point x="-164" y="430" type="curve" smooth="yes"/>
      <point x="-164" y="411"/>
      <point x="-156" y="394"/>
      <point x="-141" y="381" type="curve" smooth="yes"/>
      <point x="-126" y="368"/>
      <point x="-108" y="361"/>
      <point x="-86" y="361" type="curve" smooth="yes"/>
      <point x="60" y="361" type="line"/>
      <point x="60" y="410" type="line"/>
      <point x="12" y="410" type="line" smooth="yes"/>
      <point x="1" y="410"/>
      <point x="-9" y="413"/>
      <point x="-18" y="419" type="curve"/>
      <point x="-26" y="426"/>
      <point x="-30" y="433"/>
      <point x="-30" y="442" type="curve" smooth="yes"/>
      <point x="-30" y="449"/>
      <point x="-26" y="456"/>
      <point x="-19" y="461" type="curve" smooth="yes"/>
      <point x="-10" y="466"/>
      <point x="-1" y="468"/>
      <point x="10" y="468" type="curve" smooth="yes"/>
      <point x="206" y="468" type="line"/>
      <point x="206" y="521" type="line"/>
      <point x="7" y="521" type="line" smooth="yes"/>
      <point x="-3" y="521"/>
      <point x="-12" y="524"/>
      <point x="-19" y="530" type="curve" smooth="yes"/>
      <point x="-26" y="535"/>
      <point x="-30" y="541"/>
      <point x="-30" y="550" type="curve" smooth="yes"/>
      <point x="-30" y="559"/>
      <point x="-26" y="567"/>
      <point x="-17" y="573" type="curve" smooth="yes"/>
      <point x="-8" y="580"/>
      <point x="3" y="583"/>
      <point x="16" y="583" type="curve" smooth="yes"/>
      <point x="349" y="583" type="line"/>
    </contour>
  </outline>
</glyph>
<glyph name="RRu" format="1">
  <advance width="1468"/>
  <unicode hex="0C60"/>
  <outline>
    <contour>
      <point x="1331" y="146" type="curve" smooth="yes" name="hr00"/>
      <point x="1318" y="146"/>
      <point x="1306" y="151"/>
      <point x="1296" y="160" type="curve" smooth="yes"/>
      <point x="1287" y="169"/>
      <point x="1283" y="181"/>
      <point x="1283" y="194" type="curve" smooth="yes"/>
      <point x="1283" y="207"/>
      <point x="1287" y="219"/>
      <point x="1296" y="229" type="curve"/>
      <point x="1306" y="238"/>
      <point x="1318" y="243"/>
      <point x="1331" y="243" type="curve" smooth="yes"/>
      <point x="1344" y="243"/>
      <point x="1356" y="238"/>
      <point x="1366" y="229" type="curve"/>
      <point x="1375" y="219"/>
      <point x="1380" y="207"/>
      <point x="1380" y="194" type="curve" smooth="yes"/>
      <point x="1380" y="181"/>
      <point x="1375" y="169"/>
      <point x="1366" y="160" type="curve" smooth="yes"/>
      <point x="1356" y="151"/>
      <point x="1344" y="146"/>
    </contour>
    <contour>
      <point x="168" y="0" type="curve" smooth="yes"/>
      <point x="195" y="0"/>
      <point x="219" y="6"/>
      <point x="240" y="15" type="curve" smooth="yes"/>
      <point x="262" y="25"/>
      <point x="279" y="38"/>
      <point x="290" y="55" type="curve"/>
      <point x="302" y="38"/>
      <point x="318" y="24"/>
      <point x="338" y="15" type="curve" smooth="yes"/>
      <point x="359" y="5"/>
      <point x="381" y="0"/>
      <point x="405" y="0" type="curve" smooth="yes"/>
      <point x="434" y="0"/>
      <point x="460" y="10"/>
      <point x="484" y="31" type="curve" smooth="yes"/>
      <point x="509" y="53"/>
      <point x="527" y="81"/>
      <point x="540" y="115" type="curve"/>
      <point x="547" y="82"/>
      <point x="565" y="54"/>
      <point x="593" y="33" type="curve" smooth="yes"/>
      <point x="621" y="11"/>
      <point x="653" y="0"/>
      <point x="690" y="0" type="curve" smooth="yes"/>
      <point x="723" y="0"/>
      <point x="755" y="9"/>
      <point x="784" y="31" type="curve" smooth="yes"/>
      <point x="812" y="52"/>
      <point x="833" y="81"/>
      <point x="848" y="116" type="curve"/>
      <point x="856" y="82"/>
      <point x="873" y="54"/>
      <point x="900" y="33" type="curve" smooth="yes"/>
      <point x="927" y="11"/>
      <point x="958" y="0"/>
      <point x="991" y="0" type="curve" smooth="yes"/>
      <point x="1041" y="0"/>
      <point x="1084" y="20"/>
      <point x="1120" y="59" type="curve" smooth="yes"/>
      <point x="1156" y="98"/>
      <point x="1174" y="145"/>
      <point x="1174" y="200" type="curve" smooth="yes"/>
      <point x="1174" y="240"/>
      <point x="1169" y="274"/>
      <point x="1159" y="303" type="curve" smooth="yes"/>
      <point x="1150" y="332"/>
      <point x="1136" y="352"/>
      <point x="1119" y="364" type="curve"/>
      <point x="1283" y="364" type="line" smooth="yes"/>
      <point x="1307" y="364"/>
      <point x="1328" y="357"/>
      <point x="1345" y="343" type="curve" smooth="yes"/>
      <point x="1362" y="328"/>
      <point x="1372" y="311"/>
      <point x="1374" y="291" type="curve"/>
      <point x="1361" y="300"/>
      <point x="1345" y="304"/>
      <point x="1325" y="304" type="curve" smooth="yes"/>
      <point x="1297" y="304"/>
      <point x="1272" y="295"/>
      <point x="1251" y="274" type="curve" smooth="yes"/>
      <point x="1230" y="253"/>
      <point x="1221" y="229"/>
      <point x="1221" y="200" type="curve" smooth="yes"/>
      <point x="1221" y="169"/>
      <point x="1233" y="143"/>
      <point x="1258" y="119" type="curve" smooth="yes"/>
      <point x="1281" y="96"/>
      <point x="1310" y="85"/>
      <point x="1344" y="85" type="curve" smooth="yes"/>
      <point x="1374" y="85"/>
      <point x="1400" y="99"/>
      <point x="1421" y="126" type="curve" smooth="yes"/>
      <point x="1442" y="154"/>
      <point x="1453" y="187"/>
      <point x="1453" y="225" type="curve" smooth="yes"/>
      <point x="1453" y="280"/>
      <point x="1436" y="327"/>
      <point x="1403" y="366" type="curve" smooth="yes"/>
      <point x="1370" y="405"/>
      <point x="1330" y="425"/>
      <point x="1283" y="425" type="curve" smooth="yes"/>
      <point x="966" y="425" type="line"/>
      <point x="966" y="364" type="line"/>
      <point x="1009" y="364" type="line" smooth="yes"/>
      <point x="1037" y="364"/>
      <point x="1062" y="349"/>
      <point x="1083" y="318" type="curve" smooth="yes"/>
      <point x="1103" y="287"/>
      <point x="1113" y="249"/>
      <point x="1113" y="206" type="curve" smooth="yes"/>
      <point x="1113" y="166"/>
      <point x="1100" y="132"/>
      <point x="1075" y="104" type="curve" smooth="yes"/>
      <point x="1050" y="75"/>
      <point x="1020" y="61"/>
      <point x="985" y="61" type="curve" smooth="yes"/>
      <point x="965" y="61"/>
      <point x="944" y="72"/>
      <point x="923" y="95" type="curve" smooth="yes"/>
      <point x="901" y="118"/>
      <point x="882" y="148"/>
      <point x="865" y="185" type="curve"/>
      <point x="866" y="213" type="line" smooth="yes"/>
      <point x="868" y="271"/>
      <point x="850" y="321"/>
      <point x="815" y="363" type="curve" smooth="yes"/>
      <point x="781" y="404"/>
      <point x="739" y="425"/>
      <point x="690" y="425" type="curve" smooth="yes"/>
      <point x="648" y="425" type="line"/>
      <point x="648" y="364" type="line"/>
      <point x="671" y="364" type="line" smooth="yes"/>
      <point x="708" y="364"/>
      <point x="740" y="349"/>
      <point x="766" y="320" type="curve" smooth="yes"/>
      <point x="793" y="290"/>
      <point x="805" y="254"/>
      <point x="805" y="213" type="curve" smooth="yes"/>
      <point x="805" y="171"/>
      <point x="794" y="135"/>
      <point x="770" y="105" type="curve" smooth="yes"/>
      <point x="747" y="76"/>
      <point x="717" y="61"/>
      <point x="684" y="61" type="curve" smooth="yes"/>
      <point x="664" y="61"/>
      <point x="643" y="73"/>
      <point x="620" y="96" type="curve" smooth="yes"/>
      <point x="597" y="119"/>
      <point x="575" y="151"/>
      <point x="556" y="191" type="curve"/>
      <point x="556" y="206" type="line" smooth="yes"/>
      <point x="556" y="266"/>
      <point x="541" y="318"/>
      <point x="509" y="361" type="curve" smooth="yes"/>
      <point x="477" y="404"/>
      <point x="438" y="425"/>
      <point x="393" y="425" type="curve" smooth="yes"/>
      <point x="344" y="425" type="line"/>
      <point x="344" y="364" type="line"/>
      <point x="393" y="364" type="line" smooth="yes"/>
      <point x="421" y="364"/>
      <point x="446" y="349"/>
      <point x="466" y="320" type="curve" smooth="yes"/>
      <point x="487" y="290"/>
      <point x="496" y="254"/>
      <point x="496" y="213" type="curve" smooth="yes"/>
      <point x="496" y="167"/>
      <point x="487" y="130"/>
      <point x="470" y="103" type="curve" smooth="yes"/>
      <point x="452" y="75"/>
      <point x="428" y="61"/>
      <point x="399" y="61" type="curve" smooth="yes"/>
      <point x="379" y="61"/>
      <point x="363" y="68"/>
      <point x="348" y="83" type="curve" smooth="yes"/>
      <point x="333" y="98"/>
      <point x="326" y="114"/>
      <point x="326" y="134" type="curve" smooth="yes"/>
      <point x="326" y="183" type="line"/>
      <point x="265" y="183" type="line"/>
      <point x="265" y="151" type="line" smooth="yes"/>
      <point x="265" y="126"/>
      <point x="255" y="105"/>
      <point x="236" y="88" type="curve" smooth="yes"/>
      <point x="217" y="70"/>
      <point x="195" y="61"/>
      <point x="168" y="61" type="curve" smooth="yes"/>
      <point x="141" y="61"/>
      <point x="119" y="68"/>
      <point x="100" y="83" type="curve" smooth="yes"/>
      <point x="81" y="97"/>
      <point x="71" y="114"/>
      <point x="71" y="134" type="curve" smooth="yes"/>
      <point x="71" y="152"/>
      <point x="79" y="169"/>
      <point x="94" y="185" type="curve" smooth="yes"/>
      <point x="108" y="201"/>
      <point x="127" y="213"/>
      <point x="150" y="219" type="curve" smooth="yes"/>
      <point x="177" y="227"/>
      <point x="199" y="240"/>
      <point x="216" y="260" type="curve" smooth="yes"/>
      <point x="233" y="281"/>
      <point x="241" y="303"/>
      <point x="241" y="328" type="curve" smooth="yes"/>
      <point x="241" y="355"/>
      <point x="230" y="377"/>
      <point x="209" y="396" type="curve" smooth="yes"/>
      <point x="187" y="415"/>
      <point x="161" y="425"/>
      <point x="131" y="425" type="curve" smooth="yes"/>
      <point x="101" y="425"/>
      <point x="75" y="415"/>
      <point x="54" y="396" type="curve" smooth="yes"/>
      <point x="33" y="377"/>
      <point x="23" y="355"/>
      <point x="23" y="328" type="curve" smooth="yes"/>
      <point x="23" y="304" type="line"/>
      <point x="83" y="304" type="line"/>
      <point x="83" y="321" type="line" smooth="yes"/>
      <point x="83" y="334"/>
      <point x="87" y="346"/>
      <point x="96" y="356" type="curve"/>
      <point x="106" y="365"/>
      <point x="118" y="370"/>
      <point x="131" y="370" type="curve" smooth="yes"/>
      <point x="144" y="370"/>
      <point x="156" y="366"/>
      <point x="166" y="358" type="curve"/>
      <point x="175" y="349"/>
      <point x="180" y="339"/>
      <point x="180" y="328" type="curve" smooth="yes"/>
      <point x="180" y="312"/>
      <point x="174" y="298"/>
      <point x="161" y="285" type="curve" smooth="yes"/>
      <point x="149" y="272"/>
      <point x="133" y="264"/>
      <point x="114" y="261" type="curve" smooth="yes"/>
      <point x="84" y="256"/>
      <point x="58" y="242"/>
      <point x="39" y="218" type="curve" smooth="yes"/>
      <point x="19" y="193"/>
      <point x="10" y="165"/>
      <point x="10" y="134" type="curve" smooth="yes"/>
      <point x="10" y="97"/>
      <point x="25" y="66"/>
      <point x="56" y="39" type="curve" smooth="yes"/>
      <point x="87" y="13"/>
      <point x="125" y="0"/>
    </contour>
  </outline>
</glyph>
<glyph name="Telugu0" format="1">
  <advance width="642"/>
  <unicode hex="0C66"/>
  <outline>
    <contour>
      <point x="322" y="29" type="curve" smooth="yes" name="hr00"/>
      <point x="287" y="29"/>
      <point x="256" y="51"/>
      <point x="230" y="94" type="curve" smooth="yes"/>
      <point x="205" y="137"/>
      <point x="192" y="189"/>
      <point x="192" y="250" type="curve" smooth="yes"/>
      <point x="192" y="309"/>
      <point x="205" y="359"/>
      <point x="230" y="400" type="curve" smooth="yes"/>
      <point x="256" y="441"/>
      <point x="287" y="461"/>
      <point x="322" y="461" type="curve" smooth="yes"/>
      <point x="358" y="461"/>
      <point x="389" y="441"/>
      <point x="415" y="400" type="curve" smooth="yes"/>
      <point x="441" y="359"/>
      <point x="454" y="309"/>
      <point x="454" y="250" type="curve" smooth="yes"/>
      <point x="454" y="189"/>
      <point x="441" y="137"/>
      <point x="415" y="94" type="curve" smooth="yes"/>
      <point x="389" y="51"/>
      <point x="358" y="29"/>
    </contour>
    <contour>
      <point x="322" y="-6" type="curve" smooth="yes"/>
      <point x="397" y="-6"/>
      <point x="460" y="19"/>
      <point x="512" y="69" type="curve" smooth="yes"/>
      <point x="565" y="119"/>
      <point x="591" y="179"/>
      <point x="591" y="250" type="curve" smooth="yes"/>
      <point x="591" y="319"/>
      <point x="565" y="376"/>
      <point x="512" y="425" type="curve" smooth="yes"/>
      <point x="460" y="473"/>
      <point x="397" y="498"/>
      <point x="322" y="498" type="curve" smooth="yes"/>
      <point x="249" y="498"/>
      <point x="186" y="474"/>
      <point x="134" y="425" type="curve" smooth="yes"/>
      <point x="82" y="377"/>
      <point x="56" y="319"/>
      <point x="56" y="250" type="curve" smooth="yes"/>
      <point x="56" y="179"/>
      <point x="82" y="119"/>
      <point x="134" y="69" type="curve" smooth="yes"/>
      <point x="186" y="19"/>
      <point x="249" y="-6"/>
    </contour>
  </outline>
</glyph>
<glyph name="Telugu1" format="1">
  <advance width="641"/>
  <unicode hex="0C67"/>
  <outline>
    <contour>
      <point x="264" y="30" type="line" name="hr00"/>
      <point x="242" y="43"/>
      <point x="226" y="69"/>
      <point x="214" y="109" type="curve" smooth="yes"/>
      <point x="202" y="150"/>
      <point x="195" y="199"/>
      <point x="195" y="256" type="curve" smooth="yes"/>
      <point x="195" y="313"/>
      <point x="207" y="361"/>
      <point x="232" y="401" type="curve" smooth="yes"/>
      <point x="257" y="441"/>
      <point x="287" y="461"/>
      <point x="322" y="461" type="curve" smooth="yes"/>
      <point x="358" y="461"/>
      <point x="389" y="441"/>
      <point x="414" y="401" type="curve" smooth="yes"/>
      <point x="439" y="361"/>
      <point x="451" y="313"/>
      <point x="451" y="256" type="curve" smooth="yes"/>
      <point x="451" y="204"/>
      <point x="445" y="158"/>
      <point x="432" y="118" type="curve" smooth="yes"/>
      <point x="420" y="79"/>
      <point x="403" y="49"/>
      <point x="380" y="30" type="curve"/>
      <point x="436" y="-5" type="line"/>
      <point x="485" y="24"/>
      <point x="524" y="61"/>
      <point x="552" y="108" type="curve" smooth="yes"/>
      <point x="581" y="155"/>
      <point x="595" y="204"/>
      <point x="595" y="256" type="curve" smooth="yes"/>
      <point x="595" y="323"/>
      <point x="568" y="379"/>
      <point x="515" y="426" type="curve" smooth="yes"/>
      <point x="462" y="474"/>
      <point x="397" y="498"/>
      <point x="322" y="498" type="curve" smooth="yes"/>
      <point x="247" y="498"/>
      <point x="184" y="474"/>
      <point x="131" y="426" type="curve" smooth="yes"/>
      <point x="78" y="379"/>
      <point x="51" y="323"/>
      <point x="51" y="256" type="curve" smooth="yes"/>
      <point x="51" y="204"/>
      <point x="64" y="155"/>
      <point x="92" y="108" type="curve" smooth="yes"/>
      <point x="119" y="62"/>
      <point x="158" y="25"/>
      <point x="205" y="-2" type="curve"/>
    </contour>
  </outline>
</glyph>
<glyph name="Telugu2" format="1">
  <advance width="641"/>
  <unicode hex="0C68"/>
  <outline>
    <contour>
      <point x="218" y="345" type="curve" smooth="yes" name="hr00"/>
      <point x="208" y="345"/>
      <point x="200" y="350"/>
      <point x="193" y="360" type="curve" smooth="yes"/>
      <point x="186" y="370"/>
      <point x="183" y="382"/>
      <point x="183" y="396" type="curve" smooth="yes"/>
      <point x="183" y="411"/>
      <point x="186" y="424"/>
      <point x="193" y="434" type="curve" smooth="yes"/>
      <point x="200" y="445"/>
      <point x="208" y="450"/>
      <point x="218" y="450" type="curve" smooth="yes"/>
      <point x="228" y="450"/>
      <point x="236" y="445"/>
      <point x="243" y="434" type="curve" smooth="yes"/>
      <point x="250" y="424"/>
      <point x="253" y="411"/>
      <point x="253" y="396" type="curve" smooth="yes"/>
      <point x="253" y="382"/>
      <point x="250" y="370"/>
      <point x="243" y="360" type="curve" smooth="yes"/>
      <point x="236" y="350"/>
      <point x="228" y="345"/>
    </contour>
    <contour>
      <point x="233" y="0" type="line" smooth="yes"/>
      <point x="338" y="0"/>
      <point x="422" y="23"/>
      <point x="485" y="71" type="curve" smooth="yes"/>
      <point x="547" y="118"/>
      <point x="578" y="182"/>
      <point x="578" y="261" type="curve" smooth="yes"/>
      <point x="578" y="333"/>
      <point x="551" y="390"/>
      <point x="497" y="433" type="curve" smooth="yes"/>
      <point x="443" y="476"/>
      <point x="371" y="498"/>
      <point x="281" y="498" type="curve" smooth="yes"/>
      <point x="225" y="498"/>
      <point x="180" y="489"/>
      <point x="146" y="470" type="curve" smooth="yes"/>
      <point x="113" y="452"/>
      <point x="96" y="427"/>
      <point x="96" y="396" type="curve" smooth="yes"/>
      <point x="96" y="371"/>
      <point x="108" y="348"/>
      <point x="132" y="329" type="curve" smooth="yes"/>
      <point x="155" y="310"/>
      <point x="184" y="301"/>
      <point x="218" y="301" type="curve" smooth="yes"/>
      <point x="250" y="301"/>
      <point x="277" y="310"/>
      <point x="300" y="329" type="curve" smooth="yes"/>
      <point x="322" y="348"/>
      <point x="333" y="371"/>
      <point x="333" y="396" type="curve" smooth="yes"/>
      <point x="333" y="408"/>
      <point x="330" y="419"/>
      <point x="325" y="429" type="curve" smooth="yes"/>
      <point x="320" y="440"/>
      <point x="312" y="448"/>
      <point x="302" y="454" type="curve"/>
      <point x="339" y="450"/>
      <point x="371" y="430"/>
      <point x="396" y="395" type="curve" smooth="yes"/>
      <point x="421" y="360"/>
      <point x="433" y="318"/>
      <point x="433" y="268" type="curve" smooth="yes"/>
      <point x="433" y="206"/>
      <point x="409" y="152"/>
      <point x="360" y="109" type="curve" smooth="yes"/>
      <point x="310" y="65"/>
      <point x="250" y="44"/>
      <point x="180" y="44" type="curve" smooth="yes"/>
      <point x="67" y="44" type="line"/>
      <point x="67" y="0" type="line"/>
    </contour>
  </outline>
</glyph>
<glyph name="Telugu9" format="1">
  <advance width="641"/>
  <unicode hex="0C6F"/>
  <outline>
    <contour>
      <point x="318" y="0" type="line" name="hr00"/>
      <point x="318" y="43" type="line"/>
      <point x="266" y="43" type="line" smooth="yes"/>
      <point x="243" y="43"/>
      <point x="224" y="51"/>
      <point x="209" y="66" type="curve" smooth="yes"/>
      <point x="194" y="81"/>
      <point x="186" y="100"/>
      <point x="186" y="123" type="curve" smooth="yes"/>
      <point x="186" y="148"/>
      <point x="198" y="171"/>
      <point x="221" y="190" type="curve" smooth="yes"/>
      <point x="243" y="209"/>
      <point x="270" y="218"/>
      <point x="303" y="218" type="curve" smooth="yes"/>
      <point x="347" y="218" type="line"/>
      <point x="347" y="264" type="line"/>
      <point x="303" y="264" type="line" smooth="yes"/>
      <point x="269" y="264"/>
      <point x="240" y="275"/>
      <point x="216" y="293" type="curve" smooth="yes"/>
      <point x="191" y="312"/>
      <point x="179" y="333"/>
      <point x="179" y="360" type="curve" smooth="yes"/>
      <point x="179" y="384"/>
      <point x="193" y="404"/>
      <point x="222" y="421" type="curve" smooth="yes"/>
      <point x="250" y="438"/>
      <point x="284" y="446"/>
      <point x="324" y="446" type="curve" smooth="yes"/>
      <point x="602" y="446" type="line"/>
      <point x="602" y="489" type="line"/>
      <point x="207" y="489" type="line" smooth="yes"/>
      <point x="162" y="489"/>
      <point x="123" y="476"/>
      <point x="91" y="451" type="curve" smooth="yes"/>
      <point x="59" y="426"/>
      <point x="43" y="396"/>
      <point x="43" y="360" type="curve" smooth="yes"/>
      <point x="43" y="335"/>
      <point x="54" y="312"/>
      <point x="77" y="290" type="curve" smooth="yes"/>
      <point x="98" y="269"/>
      <point x="127" y="253"/>
      <point x="163" y="243" type="curve"/>
      <point x="163" y="236" type="line"/>
      <point x="127" y="223"/>
      <point x="98" y="206"/>
      <point x="76" y="184" type="curve" smooth="yes"/>
      <point x="53" y="161"/>
      <point x="43" y="139"/>
      <point x="43" y="116" type="curve" smooth="yes"/>
      <point x="43" y="84"/>
      <point x="59" y="57"/>
      <point x="91" y="34" type="curve" smooth="yes"/>
      <point x="123" y="11"/>
      <point x="162" y="0"/>
      <point x="207" y="0" type="curve" smooth="yes"/>
    </contour>
  </outline>
</glyph>
<glyph name="uni0C78" format="1">
  <advance width="488"/>
  <unicode hex="0C78"/>
  <outline>
    <contour>
      <point x="356" y="423" type="curve" smooth="yes" name="hr00"/>
      <point x="356" y="342"/>
      <point x="296" y="303"/>
      <point x="239" y="303" type="curve" smooth="yes"/>
      <point x="183" y="303"/>
      <point x="123" y="346"/>
      <point x="123" y="423" type="curve" smooth="yes"/>
      <point x="123" y="505"/>
      <point x="187" y="553"/>
      <point x="239" y="553" type="curve" smooth="yes"/>
      <point x="295" y="553"/>
      <point x="356" y="505"/>
    </contour>
    <contour>
      <point x="201" y="-29" type="line"/>
      <point x="255" y="-6"/>
      <point x="306" y="9"/>
      <point x="365" y="44" type="curve" smooth="yes"/>
      <point x="422" y="78"/>
      <point x="466" y="120"/>
      <point x="466" y="158" type="curve" smooth="yes"/>
      <point x="466" y="195"/>
      <point x="426" y="232"/>
      <point x="367" y="254" type="curve"/>
      <point x="428" y="303"/>
      <point x="452" y="358"/>
      <point x="452" y="423" type="curve" smooth="yes"/>
      <point x="452" y="525"/>
      <point x="367" y="622"/>
      <point x="239" y="622" type="curve" smooth="yes"/>
      <point x="114" y="622"/>
      <point x="27" y="525"/>
      <point x="27" y="423" type="curve" smooth="yes"/>
      <point x="27" y="315"/>
      <point x="109" y="215"/>
      <point x="239" y="215" type="curve" smooth="yes"/>
      <point x="248" y="215"/>
      <point x="257" y="215"/>
      <point x="262" y="216" type="curve"/>
      <point x="323" y="202"/>
      <point x="369" y="197"/>
      <point x="369" y="158" type="curve" smooth="yes"/>
      <point x="369" y="97"/>
      <point x="172" y="30"/>
      <point x="159" y="23" type="curve"/>
    </contour>
  </outline>
</glyph>
<glyph name="uni0C79" format="1">
  <advance width="281"/>
  <unicode hex="0C79"/>
  <outline>
    <contour>
      <point x="103" y="7" type="line" name="hr00"/>
      <point x="199" y="7" type="line"/>
      <point x="199" y="613" type="line"/>
      <point x="103" y="613" type="line"/>
    </contour>
  </outline>
</glyph>
<glyph name="uni0C7A" format="1">
  <advance width="442"/>
  <unicode hex="0C7A"/>
  <outline>
    <contour>
      <point x="387" y="613" type="line" name="hr00"/>
      <point x="290" y="613" type="line"/>
      <point x="290" y="331" type="line"/>
      <point x="270" y="320"/>
      <point x="241" y="312"/>
      <point x="213" y="312" type="curve" smooth="yes"/>
      <point x="187" y="312"/>
      <point x="142" y="325"/>
      <point x="142" y="399" type="curve" smooth="yes"/>
      <point x="142" y="613" type="line"/>
      <point x="46" y="613" type="line"/>
      <point x="46" y="391" type="line" smooth="yes"/>
      <point x="46" y="304"/>
      <point x="118" y="242"/>
      <point x="203" y="242" type="curve" smooth="yes"/>
      <point x="246" y="242"/>
      <point x="287" y="253"/>
      <point x="290" y="253" type="curve"/>
      <point x="290" y="7" type="line"/>
      <point x="387" y="7" type="line"/>
    </contour>
  </outline>
</glyph>
<glyph name="uni0C7C" format="1">
  <advance width="655"/>
  <unicode hex="0C7C"/>
  <outline>
    <contour>
      <point x="639" y="270" type="line" name="hr00"/>
      <point x="639" y="341" type="line"/>
      <point x="37" y="341" type="line"/>
      <point x="37" y="270" type="line"/>
    </contour>
  </outline>
</glyph>
<glyph name="BaAA" format="1">
  <advance width="1096"/>
  <outline>
    <contour>
      <point x="835" y="378" type="line" smooth="yes" name="hr00"/>
      <point x="887" y="378"/>
      <point x="922" y="364"/>
      <point x="933" y="333" type="curve" smooth="yes"/>
      <point x="936" y="325" type="line"/>
      <point x="927" y="331"/>
      <point x="916" y="335"/>
      <point x="903" y="338" type="curve"/>
      <point x="894" y="339"/>
      <point x="882" y="340"/>
      <point x="868" y="340" type="curve" smooth="yes"/>
      <point x="829" y="340"/>
      <point x="798" y="332"/>
      <point x="775" y="315" type="curve" smooth="yes"/>
      <point x="748" y="295"/>
      <point x="734" y="264"/>
      <point x="734" y="223" type="curve" smooth="yes"/>
      <point x="734" y="188"/>
      <point x="749" y="160"/>
      <point x="778" y="141" type="curve" smooth="yes"/>
      <point x="805" y="124"/>
      <point x="841" y="115"/>
      <point x="885" y="115" type="curve" smooth="yes"/>
      <point x="932" y="115"/>
      <point x="969" y="128"/>
      <point x="996" y="155" type="curve" smooth="yes"/>
      <point x="1025" y="184"/>
      <point x="1040" y="225"/>
      <point x="1040" y="278" type="curve" smooth="yes"/>
      <point x="1040" y="328"/>
      <point x="1023" y="366"/>
      <point x="989" y="391" type="curve" smooth="yes"/>
      <point x="958" y="414"/>
      <point x="916" y="426"/>
      <point x="863" y="426" type="curve" smooth="yes"/>
      <point x="405" y="426" type="line"/>
      <point x="405" y="378" type="line"/>
      <point x="455" y="378" type="line" smooth="yes"/>
      <point x="496" y="378"/>
      <point x="522" y="363"/>
      <point x="533" y="334" type="curve" smooth="yes"/>
      <point x="540" y="317"/>
      <point x="543" y="278"/>
      <point x="543" y="218" type="curve" smooth="yes"/>
      <point x="543" y="153"/>
      <point x="533" y="108"/>
      <point x="513" y="83" type="curve" smooth="yes"/>
      <point x="497" y="63"/>
      <point x="472" y="53"/>
      <point x="438" y="53" type="curve" smooth="yes"/>
      <point x="409" y="53"/>
      <point x="389" y="63"/>
      <point x="379" y="83" type="curve" smooth="yes"/>
      <point x="373" y="95"/>
      <point x="370" y="115"/>
      <point x="370" y="144" type="curve"/>
      <point x="271" y="144" type="line"/>
      <point x="271" y="118"/>
      <point x="267" y="98"/>
      <point x="259" y="84" type="curve" smooth="yes"/>
      <point x="248" y="64"/>
      <point x="230" y="54"/>
      <point x="203" y="54" type="curve" smooth="yes"/>
      <point x="184" y="54"/>
      <point x="170" y="61"/>
      <point x="160" y="75" type="curve" smooth="yes"/>
      <point x="150" y="90"/>
      <point x="145" y="112"/>
      <point x="145" y="139" type="curve" smooth="yes"/>
      <point x="145" y="186"/>
      <point x="179" y="216"/>
      <point x="248" y="229" type="curve" smooth="yes"/>
      <point x="319" y="242"/>
      <point x="355" y="274"/>
      <point x="355" y="326" type="curve"/>
      <point x="358" y="359"/>
      <point x="343" y="385"/>
      <point x="310" y="403" type="curve" smooth="yes"/>
      <point x="281" y="419"/>
      <point x="242" y="425"/>
      <point x="194" y="425" type="curve" smooth="yes"/>
      <point x="131" y="425"/>
      <point x="85" y="415"/>
      <point x="56" y="395" type="curve" smooth="yes"/>
      <point x="25" y="375"/>
      <point x="10" y="342"/>
      <point x="10" y="295" type="curve"/>
      <point x="136" y="295" type="line"/>
      <point x="136" y="325" type="line" smooth="yes"/>
      <point x="136" y="340"/>
      <point x="141" y="353"/>
      <point x="151" y="363" type="curve" smooth="yes"/>
      <point x="162" y="373"/>
      <point x="176" y="378"/>
      <point x="191" y="378" type="curve" smooth="yes"/>
      <point x="211" y="378"/>
      <point x="227" y="372"/>
      <point x="238" y="361" type="curve" smooth="yes"/>
      <point x="248" y="351"/>
      <point x="253" y="337"/>
      <point x="253" y="320" type="curve" smooth="yes"/>
      <point x="253" y="292"/>
      <point x="222" y="273"/>
      <point x="160" y="263" type="curve" smooth="yes"/>
      <point x="63" y="247"/>
      <point x="14" y="204"/>
      <point x="14" y="133" type="curve" smooth="yes"/>
      <point x="14" y="87"/>
      <point x="30" y="52"/>
      <point x="63" y="29" type="curve" smooth="yes"/>
      <point x="91" y="10"/>
      <point x="129" y="0"/>
      <point x="176" y="0" type="curve" smooth="yes"/>
      <point x="209" y="0"/>
      <point x="235" y="3"/>
      <point x="255" y="10" type="curve" smooth="yes"/>
      <point x="281" y="19"/>
      <point x="301" y="35"/>
      <point x="315" y="56" type="curve"/>
      <point x="328" y="34"/>
      <point x="346" y="19"/>
      <point x="370" y="10" type="curve" smooth="yes"/>
      <point x="390" y="3"/>
      <point x="418" y="0"/>
      <point x="454" y="0" type="curve" smooth="yes"/>
      <point x="522" y="0"/>
      <point x="576" y="17"/>
      <point x="614" y="55" type="curve" smooth="yes"/>
      <point x="655" y="94"/>
      <point x="674" y="153"/>
      <point x="674" y="230" type="curve" smooth="yes"/>
      <point x="674" y="287"/>
      <point x="661" y="335"/>
      <point x="628" y="368" type="curve" smooth="yes"/>
      <point x="618" y="378" type="line"/>
    </contour>
    <contour>
      <point x="928" y="278" type="curve" smooth="yes"/>
      <point x="935" y="268"/>
      <point x="939" y="253"/>
      <point x="939" y="234" type="curve" smooth="yes"/>
      <point x="939" y="209"/>
      <point x="935" y="191"/>
      <point x="928" y="180" type="curve"/>
      <point x="919" y="169"/>
      <point x="906" y="163"/>
      <point x="889" y="163" type="curve" smooth="yes"/>
      <point x="872" y="163"/>
      <point x="858" y="168"/>
      <point x="848" y="179" type="curve" smooth="yes"/>
      <point x="839" y="189"/>
      <point x="834" y="204"/>
      <point x="834" y="223" type="curve" smooth="yes"/>
      <point x="834" y="247"/>
      <point x="838" y="265"/>
      <point x="846" y="276" type="curve" smooth="yes"/>
      <point x="855" y="289"/>
      <point x="870" y="295"/>
      <point x="889" y="295" type="curve" smooth="yes"/>
      <point x="906" y="295"/>
      <point x="919" y="289"/>
    </contour>
  </outline>
</glyph>
<glyph name="BaEE" format="1">
  <advance width="738"/>
  <outline>
    <contour>
      <point x="607" y="387" type="curve" name="hr00"/>
      <point x="617" y="392"/>
      <point x="626" y="398"/>
      <point x="634" y="406" type="curve" smooth="yes"/>
      <point x="653" y="425"/>
      <point x="663" y="449"/>
      <point x="663" y="476" type="curve" smooth="yes"/>
      <point x="663" y="503"/>
      <point x="653" y="524"/>
      <point x="634" y="540" type="curve" smooth="yes"/>
      <point x="618" y="554"/>
      <point x="594" y="564"/>
      <point x="563" y="571" type="curve"/>
      <point x="548" y="571" type="line" smooth="yes"/>
      <point x="541" y="571"/>
      <point x="535" y="574"/>
      <point x="530" y="581" type="curve" smooth="yes"/>
      <point x="525" y="588"/>
      <point x="523" y="597"/>
      <point x="523" y="609" type="curve" smooth="yes"/>
      <point x="523" y="628"/>
      <point x="530" y="641"/>
      <point x="543" y="648" type="curve"/>
      <point x="551" y="651"/>
      <point x="563" y="653"/>
      <point x="578" y="653" type="curve" smooth="yes"/>
      <point x="592" y="653"/>
      <point x="604" y="649"/>
      <point x="614" y="641" type="curve" smooth="yes"/>
      <point x="625" y="631"/>
      <point x="631" y="617"/>
      <point x="631" y="600" type="curve"/>
      <point x="723" y="600" type="line"/>
      <point x="723" y="633"/>
      <point x="710" y="657"/>
      <point x="683" y="673" type="curve" smooth="yes"/>
      <point x="658" y="688"/>
      <point x="620" y="696"/>
      <point x="569" y="696" type="curve" smooth="yes"/>
      <point x="528" y="696"/>
      <point x="495" y="691"/>
      <point x="470" y="679" type="curve" smooth="yes"/>
      <point x="440" y="665"/>
      <point x="425" y="641"/>
      <point x="425" y="610" type="curve" smooth="yes"/>
      <point x="425" y="602"/>
      <point x="426" y="595"/>
      <point x="428" y="588" type="curve" smooth="yes"/>
      <point x="429" y="581"/>
      <point x="432" y="576"/>
      <point x="436" y="571" type="curve"/>
      <point x="81" y="571" type="line"/>
      <point x="81" y="514" type="line"/>
      <point x="499" y="514" type="line" smooth="yes"/>
      <point x="512" y="514"/>
      <point x="521" y="511"/>
      <point x="528" y="504" type="curve" smooth="yes"/>
      <point x="536" y="497"/>
      <point x="540" y="485"/>
      <point x="540" y="470" type="curve" smooth="yes"/>
      <point x="540" y="457"/>
      <point x="536" y="447"/>
      <point x="528" y="439" type="curve" smooth="yes"/>
      <point x="519" y="430"/>
      <point x="508" y="425"/>
      <point x="496" y="425" type="curve" smooth="yes"/>
      <point x="393" y="425" type="line"/>
      <point x="393" y="378" type="line"/>
      <point x="455" y="378" type="line" smooth="yes"/>
      <point x="496" y="378"/>
      <point x="522" y="363"/>
      <point x="533" y="334" type="curve" smooth="yes"/>
      <point x="540" y="317"/>
      <point x="543" y="278"/>
      <point x="543" y="218" type="curve" smooth="yes"/>
      <point x="543" y="153"/>
      <point x="533" y="108"/>
      <point x="513" y="83" type="curve" smooth="yes"/>
      <point x="497" y="63"/>
      <point x="472" y="53"/>
      <point x="438" y="53" type="curve" smooth="yes"/>
      <point x="409" y="53"/>
      <point x="389" y="63"/>
      <point x="379" y="83" type="curve" smooth="yes"/>
      <point x="373" y="95"/>
      <point x="370" y="115"/>
      <point x="370" y="144" type="curve"/>
      <point x="271" y="144" type="line"/>
      <point x="271" y="118"/>
      <point x="267" y="98"/>
      <point x="259" y="84" type="curve" smooth="yes"/>
      <point x="248" y="64"/>
      <point x="230" y="54"/>
      <point x="203" y="54" type="curve" smooth="yes"/>
      <point x="184" y="54"/>
      <point x="170" y="61"/>
      <point x="160" y="75" type="curve" smooth="yes"/>
      <point x="150" y="90"/>
      <point x="145" y="112"/>
      <point x="145" y="139" type="curve" smooth="yes"/>
      <point x="145" y="186"/>
      <point x="179" y="216"/>
      <point x="248" y="229" type="curve" smooth="yes"/>
      <point x="319" y="242"/>
      <point x="355" y="274"/>
      <point x="355" y="326" type="curve"/>
      <point x="358" y="359"/>
      <point x="343" y="385"/>
      <point x="310" y="403" type="curve" smooth="yes"/>
      <point x="281" y="419"/>
      <point x="242" y="425"/>
      <point x="194" y="425" type="curve" smooth="yes"/>
      <point x="131" y="425"/>
      <point x="85" y="415"/>
      <point x="56" y="395" type="curve" smooth="yes"/>
      <point x="25" y="375"/>
      <point x="10" y="342"/>
      <point x="10" y="295" type="curve"/>
      <point x="136" y="295" type="line"/>
      <point x="136" y="325" type="line" smooth="yes"/>
      <point x="136" y="340"/>
      <point x="141" y="353"/>
      <point x="151" y="363" type="curve" smooth="yes"/>
      <point x="162" y="373"/>
      <point x="176" y="378"/>
      <point x="191" y="378" type="curve" smooth="yes"/>
      <point x="211" y="378"/>
      <point x="227" y="372"/>
      <point x="238" y="361" type="curve" smooth="yes"/>
      <point x="248" y="351"/>
      <point x="253" y="337"/>
      <point x="253" y="320" type="curve" smooth="yes"/>
      <point x="253" y="292"/>
      <point x="222" y="273"/>
      <point x="160" y="263" type="curve" smooth="yes"/>
      <point x="63" y="247"/>
      <point x="14" y="204"/>
      <point x="14" y="133" type="curve" smooth="yes"/>
      <point x="14" y="87"/>
      <point x="30" y="52"/>
      <point x="63" y="29" type="curve" smooth="yes"/>
      <point x="91" y="10"/>
      <point x="129" y="0"/>
      <point x="176" y="0" type="curve" smooth="yes"/>
      <point x="209" y="0"/>
      <point x="235" y="3"/>
      <point x="255" y="10" type="curve" smooth="yes"/>
      <point x="281" y="19"/>
      <point x="301" y="35"/>
      <point x="315" y="56" type="curve"/>
      <point x="328" y="34"/>
      <point x="346" y="19"/>
      <point x="370" y="10" type="curve" smooth="yes"/>
      <point x="390" y="3"/>
      <point x="418" y="0"/>
      <point x="454" y="0" type="curve" smooth="yes"/>
      <point x="522" y="0"/>
      <point x="576" y="17"/>
      <point x="614" y="55" type="curve" smooth="yes"/>
      <point x="655" y="94"/>
      <point x="674" y="153"/>
      <point x="674" y="230" type="curve" smooth="yes"/>
      <point x="674" y="287"/>
      <point x="659" y="333"/>
      <point x="628" y="368" type="curve" smooth="yes"/>
      <point x="621" y="375"/>
      <point x="614" y="382"/>
    </contour>
  </outline>
</glyph>
<glyph name="BaE" format="1">
  <advance width="740"/>
  <outline>
    <contour>
      <point x="609" y="386" type="curve" name="hr00"/>
      <point x="617" y="389"/>
      <point x="624" y="393"/>
      <point x="631" y="398" type="curve" smooth="yes"/>
      <point x="652" y="413"/>
      <point x="663" y="439"/>
      <point x="663" y="476" type="curve" smooth="yes"/>
      <point x="663" y="502"/>
      <point x="652" y="523"/>
      <point x="631" y="540" type="curve" smooth="yes"/>
      <point x="614" y="554"/>
      <point x="589" y="564"/>
      <point x="556" y="571" type="curve"/>
      <point x="80" y="571" type="line"/>
      <point x="80" y="514" type="line"/>
      <point x="499" y="514" type="line" smooth="yes"/>
      <point x="512" y="514"/>
      <point x="521" y="511"/>
      <point x="528" y="504" type="curve" smooth="yes"/>
      <point x="536" y="497"/>
      <point x="540" y="485"/>
      <point x="540" y="470" type="curve" smooth="yes"/>
      <point x="540" y="457"/>
      <point x="528" y="445"/>
      <point x="508" y="429" type="curve" smooth="yes"/>
      <point x="503" y="425" type="line"/>
      <point x="393" y="425" type="line"/>
      <point x="393" y="378" type="line"/>
      <point x="455" y="378" type="line" smooth="yes"/>
      <point x="496" y="378"/>
      <point x="522" y="363"/>
      <point x="533" y="334" type="curve" smooth="yes"/>
      <point x="540" y="317"/>
      <point x="543" y="278"/>
      <point x="543" y="218" type="curve" smooth="yes"/>
      <point x="543" y="153"/>
      <point x="533" y="108"/>
      <point x="513" y="83" type="curve" smooth="yes"/>
      <point x="497" y="63"/>
      <point x="472" y="53"/>
      <point x="438" y="53" type="curve" smooth="yes"/>
      <point x="409" y="53"/>
      <point x="389" y="63"/>
      <point x="379" y="83" type="curve" smooth="yes"/>
      <point x="373" y="95"/>
      <point x="370" y="115"/>
      <point x="370" y="144" type="curve"/>
      <point x="271" y="144" type="line"/>
      <point x="271" y="118"/>
      <point x="267" y="98"/>
      <point x="259" y="84" type="curve" smooth="yes"/>
      <point x="248" y="64"/>
      <point x="230" y="54"/>
      <point x="203" y="54" type="curve" smooth="yes"/>
      <point x="184" y="54"/>
      <point x="170" y="61"/>
      <point x="160" y="75" type="curve" smooth="yes"/>
      <point x="150" y="90"/>
      <point x="145" y="112"/>
      <point x="145" y="139" type="curve" smooth="yes"/>
      <point x="145" y="186"/>
      <point x="179" y="216"/>
      <point x="248" y="229" type="curve" smooth="yes"/>
      <point x="319" y="242"/>
      <point x="355" y="274"/>
      <point x="355" y="326" type="curve"/>
      <point x="358" y="359"/>
      <point x="343" y="385"/>
      <point x="310" y="403" type="curve" smooth="yes"/>
      <point x="281" y="419"/>
      <point x="242" y="425"/>
      <point x="194" y="425" type="curve" smooth="yes"/>
      <point x="131" y="425"/>
      <point x="85" y="415"/>
      <point x="56" y="395" type="curve" smooth="yes"/>
      <point x="25" y="375"/>
      <point x="10" y="342"/>
      <point x="10" y="295" type="curve"/>
      <point x="136" y="295" type="line"/>
      <point x="136" y="325" type="line" smooth="yes"/>
      <point x="136" y="340"/>
      <point x="141" y="353"/>
      <point x="151" y="363" type="curve" smooth="yes"/>
      <point x="162" y="373"/>
      <point x="176" y="378"/>
      <point x="191" y="378" type="curve" smooth="yes"/>
      <point x="211" y="378"/>
      <point x="227" y="372"/>
      <point x="238" y="361" type="curve" smooth="yes"/>
      <point x="248" y="351"/>
      <point x="253" y="337"/>
      <point x="253" y="320" type="curve" smooth="yes"/>
      <point x="253" y="292"/>
      <point x="222" y="273"/>
      <point x="160" y="263" type="curve" smooth="yes"/>
      <point x="63" y="247"/>
      <point x="14" y="204"/>
      <point x="14" y="133" type="curve" smooth="yes"/>
      <point x="14" y="87"/>
      <point x="30" y="52"/>
      <point x="63" y="29" type="curve" smooth="yes"/>
      <point x="91" y="10"/>
      <point x="129" y="0"/>
      <point x="176" y="0" type="curve" smooth="yes"/>
      <point x="209" y="0"/>
      <point x="235" y="3"/>
      <point x="255" y="10" type="curve" smooth="yes"/>
      <point x="281" y="19"/>
      <point x="301" y="35"/>
      <point x="315" y="56" type="curve"/>
      <point x="328" y="34"/>
      <point x="346" y="19"/>
      <point x="370" y="10" type="curve" smooth="yes"/>
      <point x="390" y="3"/>
      <point x="418" y="0"/>
      <point x="454" y="0" type="curve" smooth="yes"/>
      <point x="522" y="0"/>
      <point x="576" y="17"/>
      <point x="614" y="55" type="curve" smooth="yes"/>
      <point x="655" y="94"/>
      <point x="674" y="153"/>
      <point x="674" y="230" type="curve" smooth="yes"/>
      <point x="674" y="287"/>
      <point x="659" y="333"/>
      <point x="628" y="368" type="curve" smooth="yes"/>
      <point x="622" y="375"/>
      <point x="616" y="381"/>
    </contour>
  </outline>
</glyph>
<glyph name="BaHalanth" format="1">
  <advance width="737"/>
  <outline>
    <contour>
      <point x="488" y="426" type="line" name="hr00"/>
      <point x="477" y="426"/>
      <point x="467" y="429"/>
      <point x="458" y="435" type="curve"/>
      <point x="450" y="442"/>
      <point x="446" y="449"/>
      <point x="446" y="458" type="curve" smooth="yes"/>
      <point x="446" y="465"/>
      <point x="450" y="471"/>
      <point x="457" y="476" type="curve" smooth="yes"/>
      <point x="465" y="481"/>
      <point x="475" y="484"/>
      <point x="486" y="484" type="curve" smooth="yes"/>
      <point x="549" y="484" type="line"/>
      <point x="549" y="536" type="line"/>
      <point x="483" y="536" type="line" smooth="yes"/>
      <point x="473" y="536"/>
      <point x="464" y="539"/>
      <point x="457" y="545" type="curve" smooth="yes"/>
      <point x="450" y="550"/>
      <point x="446" y="557"/>
      <point x="446" y="565" type="curve" smooth="yes"/>
      <point x="446" y="574"/>
      <point x="450" y="582"/>
      <point x="459" y="588" type="curve" smooth="yes"/>
      <point x="468" y="595"/>
      <point x="479" y="598"/>
      <point x="492" y="598" type="curve" smooth="yes"/>
      <point x="690" y="598" type="line"/>
      <point x="690" y="655" type="line"/>
      <point x="409" y="655" type="line" smooth="yes"/>
      <point x="384" y="655"/>
      <point x="362" y="647"/>
      <point x="344" y="631" type="curve" smooth="yes"/>
      <point x="326" y="614"/>
      <point x="317" y="595"/>
      <point x="317" y="573" type="curve" smooth="yes"/>
      <point x="317" y="560"/>
      <point x="321" y="547"/>
      <point x="328" y="534" type="curve" smooth="yes"/>
      <point x="335" y="521"/>
      <point x="346" y="511"/>
      <point x="359" y="504" type="curve"/>
      <point x="346" y="503"/>
      <point x="335" y="497"/>
      <point x="327" y="486" type="curve" smooth="yes"/>
      <point x="318" y="475"/>
      <point x="313" y="461"/>
      <point x="313" y="446" type="curve" smooth="yes"/>
      <point x="313" y="427"/>
      <point x="321" y="411"/>
      <point x="336" y="398" type="curve" smooth="yes"/>
      <point x="351" y="385"/>
      <point x="369" y="378"/>
      <point x="391" y="378" type="curve" smooth="yes"/>
      <point x="455" y="378" type="line" smooth="yes"/>
      <point x="496" y="378"/>
      <point x="522" y="363"/>
      <point x="533" y="334" type="curve" smooth="yes"/>
      <point x="540" y="317"/>
      <point x="543" y="278"/>
      <point x="543" y="218" type="curve" smooth="yes"/>
      <point x="543" y="153"/>
      <point x="533" y="108"/>
      <point x="513" y="83" type="curve" smooth="yes"/>
      <point x="497" y="63"/>
      <point x="472" y="53"/>
      <point x="438" y="53" type="curve" smooth="yes"/>
      <point x="409" y="53"/>
      <point x="389" y="63"/>
      <point x="379" y="83" type="curve" smooth="yes"/>
      <point x="373" y="95"/>
      <point x="370" y="115"/>
      <point x="370" y="144" type="curve"/>
      <point x="271" y="144" type="line"/>
      <point x="271" y="118"/>
      <point x="267" y="98"/>
      <point x="259" y="84" type="curve" smooth="yes"/>
      <point x="248" y="64"/>
      <point x="230" y="54"/>
      <point x="203" y="54" type="curve" smooth="yes"/>
      <point x="184" y="54"/>
      <point x="170" y="61"/>
      <point x="160" y="75" type="curve" smooth="yes"/>
      <point x="150" y="90"/>
      <point x="145" y="112"/>
      <point x="145" y="139" type="curve" smooth="yes"/>
      <point x="145" y="186"/>
      <point x="179" y="216"/>
      <point x="248" y="229" type="curve" smooth="yes"/>
      <point x="319" y="242"/>
      <point x="355" y="274"/>
      <point x="355" y="326" type="curve"/>
      <point x="358" y="359"/>
      <point x="343" y="385"/>
      <point x="310" y="403" type="curve" smooth="yes"/>
      <point x="281" y="419"/>
      <point x="242" y="425"/>
      <point x="194" y="425" type="curve" smooth="yes"/>
      <point x="131" y="425"/>
      <point x="85" y="415"/>
      <point x="56" y="395" type="curve" smooth="yes"/>
      <point x="25" y="375"/>
      <point x="10" y="342"/>
      <point x="10" y="295" type="curve"/>
      <point x="136" y="295" type="line"/>
      <point x="136" y="325" type="line" smooth="yes"/>
      <point x="136" y="340"/>
      <point x="141" y="353"/>
      <point x="151" y="363" type="curve" smooth="yes"/>
      <point x="162" y="373"/>
      <point x="176" y="378"/>
      <point x="191" y="378" type="curve" smooth="yes"/>
      <point x="211" y="378"/>
      <point x="227" y="372"/>
      <point x="238" y="361" type="curve" smooth="yes"/>
      <point x="248" y="351"/>
      <point x="253" y="337"/>
      <point x="253" y="320" type="curve" smooth="yes"/>
      <point x="253" y="292"/>
      <point x="222" y="273"/>
      <point x="160" y="263" type="curve" smooth="yes"/>
      <point x="63" y="247"/>
      <point x="14" y="204"/>
      <point x="14" y="133" type="curve" smooth="yes"/>
      <point x="14" y="87"/>
      <point x="30" y="52"/>
      <point x="63" y="29" type="curve" smooth="yes"/>
      <point x="91" y="10"/>
      <point x="129" y="0"/>
      <point x="176" y="0" type="curve" smooth="yes"/>
      <point x="209" y="0"/>
      <point x="235" y="3"/>
      <point x="255" y="10" type="curve" smooth="yes"/>
      <point x="281" y="19"/>
      <point x="301" y="35"/>
      <point x="315" y="56" type="curve"/>
      <point x="328" y="34"/>
      <point x="346" y="19"/>
      <point x="370" y="10" type="curve" smooth="yes"/>
      <point x="390" y="3"/>
      <point x="418" y="0"/>
      <point x="454" y="0" type="curve" smooth="yes"/>
      <point x="522" y="0"/>
      <point x="576" y="17"/>
      <point x="614" y="55" type="curve" smooth="yes"/>
      <point x="655" y="94"/>
      <point x="674" y="153"/>
      <point x="674" y="230" type="curve" smooth="yes"/>
      <point x="674" y="287"/>
      <point x="659" y="333"/>
      <point x="628" y="368" type="curve" smooth="yes"/>
      <point x="605" y="393"/>
      <point x="574" y="410"/>
      <point x="536" y="419" type="curve"/>
    </contour>
  </outline>
</glyph>
<glyph name="BaOO" format="1">
  <advance width="1088"/>
  <outline>
    <contour>
      <point x="458" y="425" type="line" smooth="yes" name="hr00"/>
      <point x="441" y="425"/>
      <point x="429" y="428"/>
      <point x="420" y="435" type="curve" smooth="yes"/>
      <point x="412" y="442"/>
      <point x="408" y="451"/>
      <point x="408" y="464" type="curve" smooth="yes"/>
      <point x="408" y="485"/>
      <point x="416" y="499"/>
      <point x="433" y="508" type="curve" smooth="yes"/>
      <point x="450" y="517"/>
      <point x="479" y="521"/>
      <point x="518" y="521" type="curve" smooth="yes"/>
      <point x="542" y="521"/>
      <point x="563" y="515"/>
      <point x="580" y="504" type="curve" smooth="yes"/>
      <point x="597" y="492"/>
      <point x="606" y="478"/>
      <point x="606" y="463" type="curve"/>
      <point x="673" y="463" type="line"/>
      <point x="673" y="484"/>
      <point x="688" y="499"/>
      <point x="718" y="511" type="curve" smooth="yes"/>
      <point x="748" y="523"/>
      <point x="788" y="530"/>
      <point x="838" y="530" type="curve" smooth="yes"/>
      <point x="865" y="530"/>
      <point x="887" y="524"/>
      <point x="904" y="511" type="curve" smooth="yes"/>
      <point x="921" y="499"/>
      <point x="930" y="482"/>
      <point x="933" y="459" type="curve"/>
      <point x="924" y="464"/>
      <point x="915" y="467"/>
      <point x="905" y="470" type="curve" smooth="yes"/>
      <point x="895" y="473"/>
      <point x="882" y="474"/>
      <point x="866" y="474" type="curve" smooth="yes"/>
      <point x="823" y="474"/>
      <point x="790" y="464"/>
      <point x="768" y="445" type="curve" smooth="yes"/>
      <point x="745" y="425"/>
      <point x="734" y="396"/>
      <point x="734" y="358" type="curve" smooth="yes"/>
      <point x="734" y="325"/>
      <point x="747" y="299"/>
      <point x="774" y="279" type="curve" smooth="yes"/>
      <point x="801" y="260"/>
      <point x="836" y="250"/>
      <point x="881" y="250" type="curve" smooth="yes"/>
      <point x="930" y="250"/>
      <point x="968" y="264"/>
      <point x="995" y="293" type="curve" smooth="yes"/>
      <point x="1022" y="321"/>
      <point x="1036" y="361"/>
      <point x="1036" y="413" type="curve" smooth="yes"/>
      <point x="1036" y="458"/>
      <point x="1020" y="497"/>
      <point x="989" y="530" type="curve" smooth="yes"/>
      <point x="958" y="563"/>
      <point x="920" y="581"/>
      <point x="874" y="584" type="curve"/>
      <point x="864" y="603" type="line" smooth="yes"/>
      <point x="860" y="610"/>
      <point x="860" y="615"/>
      <point x="860" y="620" type="curve" smooth="yes"/>
      <point x="860" y="636"/>
      <point x="864" y="647"/>
      <point x="873" y="654" type="curve" smooth="yes"/>
      <point x="881" y="661"/>
      <point x="895" y="664"/>
      <point x="915" y="664" type="curve" smooth="yes"/>
      <point x="932" y="664"/>
      <point x="945" y="659"/>
      <point x="954" y="650" type="curve" smooth="yes"/>
      <point x="964" y="640"/>
      <point x="969" y="627"/>
      <point x="969" y="611" type="curve"/>
      <point x="1060" y="611" type="line"/>
      <point x="1060" y="643"/>
      <point x="1047" y="667"/>
      <point x="1021" y="684" type="curve" smooth="yes"/>
      <point x="996" y="700"/>
      <point x="957" y="708"/>
      <point x="906" y="708" type="curve" smooth="yes"/>
      <point x="859" y="708"/>
      <point x="823" y="701"/>
      <point x="799" y="686" type="curve" smooth="yes"/>
      <point x="775" y="671"/>
      <point x="763" y="650"/>
      <point x="763" y="621" type="curve" smooth="yes"/>
      <point x="763" y="613"/>
      <point x="764" y="606"/>
      <point x="766" y="599" type="curve" smooth="yes"/>
      <point x="768" y="592"/>
      <point x="771" y="585"/>
      <point x="775" y="580" type="curve"/>
      <point x="742" y="574"/>
      <point x="715" y="567"/>
      <point x="693" y="559" type="curve" smooth="yes"/>
      <point x="671" y="550"/>
      <point x="655" y="540"/>
      <point x="646" y="529" type="curve"/>
      <point x="639" y="545"/>
      <point x="623" y="558"/>
      <point x="596" y="568" type="curve" smooth="yes"/>
      <point x="569" y="577"/>
      <point x="535" y="581"/>
      <point x="496" y="581" type="curve" smooth="yes"/>
      <point x="433" y="581"/>
      <point x="383" y="572"/>
      <point x="348" y="553" type="curve" smooth="yes"/>
      <point x="313" y="534"/>
      <point x="295" y="507"/>
      <point x="295" y="473" type="curve" smooth="yes"/>
      <point x="295" y="440"/>
      <point x="304" y="416"/>
      <point x="321" y="400" type="curve" smooth="yes"/>
      <point x="338" y="385"/>
      <point x="364" y="378"/>
      <point x="401" y="378" type="curve" smooth="yes"/>
      <point x="455" y="378" type="line" smooth="yes"/>
      <point x="496" y="378"/>
      <point x="522" y="363"/>
      <point x="533" y="334" type="curve" smooth="yes"/>
      <point x="540" y="317"/>
      <point x="543" y="278"/>
      <point x="543" y="218" type="curve" smooth="yes"/>
      <point x="543" y="153"/>
      <point x="533" y="108"/>
      <point x="513" y="83" type="curve" smooth="yes"/>
      <point x="497" y="63"/>
      <point x="472" y="53"/>
      <point x="438" y="53" type="curve" smooth="yes"/>
      <point x="409" y="53"/>
      <point x="389" y="63"/>
      <point x="379" y="83" type="curve" smooth="yes"/>
      <point x="373" y="95"/>
      <point x="370" y="115"/>
      <point x="370" y="144" type="curve"/>
      <point x="271" y="144" type="line"/>
      <point x="271" y="118"/>
      <point x="267" y="98"/>
      <point x="259" y="84" type="curve" smooth="yes"/>
      <point x="248" y="64"/>
      <point x="230" y="54"/>
      <point x="203" y="54" type="curve" smooth="yes"/>
      <point x="184" y="54"/>
      <point x="170" y="61"/>
      <point x="160" y="75" type="curve" smooth="yes"/>
      <point x="150" y="90"/>
      <point x="145" y="112"/>
      <point x="145" y="139" type="curve" smooth="yes"/>
      <point x="145" y="186"/>
      <point x="179" y="216"/>
      <point x="248" y="229" type="curve" smooth="yes"/>
      <point x="319" y="242"/>
      <point x="355" y="274"/>
      <point x="355" y="326" type="curve"/>
      <point x="358" y="359"/>
      <point x="343" y="385"/>
      <point x="310" y="403" type="curve" smooth="yes"/>
      <point x="281" y="419"/>
      <point x="242" y="425"/>
      <point x="194" y="425" type="curve" smooth="yes"/>
      <point x="131" y="425"/>
      <point x="85" y="415"/>
      <point x="56" y="395" type="curve" smooth="yes"/>
      <point x="25" y="375"/>
      <point x="10" y="342"/>
      <point x="10" y="295" type="curve"/>
      <point x="136" y="295" type="line"/>
      <point x="136" y="325" type="line" smooth="yes"/>
      <point x="136" y="340"/>
      <point x="141" y="353"/>
      <point x="151" y="363" type="curve" smooth="yes"/>
      <point x="162" y="373"/>
      <point x="176" y="378"/>
      <point x="191" y="378" type="curve" smooth="yes"/>
      <point x="211" y="378"/>
      <point x="227" y="372"/>
      <point x="238" y="361" type="curve" smooth="yes"/>
      <point x="248" y="351"/>
      <point x="253" y="337"/>
      <point x="253" y="320" type="curve" smooth="yes"/>
      <point x="253" y="292"/>
      <point x="222" y="273"/>
      <point x="160" y="263" type="curve" smooth="yes"/>
      <point x="63" y="247"/>
      <point x="14" y="204"/>
      <point x="14" y="133" type="curve" smooth="yes"/>
      <point x="14" y="87"/>
      <point x="30" y="52"/>
      <point x="63" y="29" type="curve" smooth="yes"/>
      <point x="91" y="10"/>
      <point x="129" y="0"/>
      <point x="176" y="0" type="curve" smooth="yes"/>
      <point x="209" y="0"/>
      <point x="235" y="3"/>
      <point x="255" y="10" type="curve" smooth="yes"/>
      <point x="281" y="19"/>
      <point x="301" y="35"/>
      <point x="315" y="56" type="curve"/>
      <point x="328" y="34"/>
      <point x="346" y="19"/>
      <point x="370" y="10" type="curve" smooth="yes"/>
      <point x="390" y="3"/>
      <point x="418" y="0"/>
      <point x="454" y="0" type="curve" smooth="yes"/>
      <point x="522" y="0"/>
      <point x="576" y="17"/>
      <point x="614" y="55" type="curve" smooth="yes"/>
      <point x="655" y="94"/>
      <point x="674" y="153"/>
      <point x="674" y="230" type="curve" smooth="yes"/>
      <point x="674" y="287"/>
      <point x="659" y="333"/>
      <point x="628" y="368" type="curve" smooth="yes"/>
      <point x="593" y="406"/>
      <point x="541" y="425"/>
      <point x="474" y="425" type="curve" smooth="yes"/>
    </contour>
    <contour>
      <point x="921" y="416" type="curve" smooth="yes"/>
      <point x="930" y="407"/>
      <point x="935" y="395"/>
      <point x="935" y="378" type="curve" smooth="yes"/>
      <point x="935" y="353"/>
      <point x="930" y="333"/>
      <point x="921" y="319" type="curve" smooth="yes"/>
      <point x="913" y="305"/>
      <point x="901" y="298"/>
      <point x="885" y="298" type="curve" smooth="yes"/>
      <point x="869" y="298"/>
      <point x="857" y="303"/>
      <point x="849" y="314" type="curve"/>
      <point x="840" y="324"/>
      <point x="836" y="339"/>
      <point x="836" y="358" type="curve" smooth="yes"/>
      <point x="836" y="382"/>
      <point x="840" y="400"/>
      <point x="849" y="411" type="curve"/>
      <point x="857" y="424"/>
      <point x="869" y="430"/>
      <point x="885" y="430" type="curve" smooth="yes"/>
      <point x="901" y="430"/>
      <point x="913" y="425"/>
    </contour>
  </outline>
</glyph>
